<svg width="567" height="198" viewBox="0 0 567 198" fill="none" xmlns="http://www.w3.org/2000/svg">
<rect width="555" height="4" fill="#6053FD"/>
<rect x="98" y="45" width="457" height="4" fill="#6053FD"/>
<rect y="45" width="57" height="4" fill="#6053FD"/>
<rect x="555" y="4" width="4" height="4" fill="#6053FD"/>
<rect width="4" height="4" transform="matrix(-1 0 0 1 563 37)" fill="#6053FD"/>
<rect x="559" y="8" width="4" height="4" fill="#6053FD"/>
<rect width="4" height="4" transform="matrix(-1 0 0 1 559 41)" fill="#6053FD"/>
<rect x="563" y="12" width="4" height="25" fill="#6053FD"/>
<rect x="53" y="45" width="4" height="141" fill="#6053FD"/>
<rect x="98" y="45" width="4" height="141" fill="#6053FD"/>
<rect x="57" y="186" width="4" height="4" fill="#6053FD"/>
<rect width="4" height="4" transform="matrix(-1 0 0 1 98 186)" fill="#6053FD"/>
<rect x="61" y="190" width="4" height="4" fill="#6053FD"/>
<rect width="4" height="4" transform="matrix(-1 0 0 1 94 190)" fill="#6053FD"/>
<rect x="65" y="194" width="25" height="4" fill="#6053FD"/>
</svg>
