<svg width="567" height="198" viewBox="0 0 567 198" fill="none" xmlns="http://www.w3.org/2000/svg">
<rect x="242" width="289" height="4" fill="#6053FD"/>
<rect x="242" y="45" width="94" height="4" fill="#6053FD"/>
<rect x="377" y="45" width="154" height="4" fill="#6053FD"/>
<rect x="531" y="4" width="4" height="4" fill="#6053FD"/>
<rect width="4" height="4" transform="matrix(-1 0 0 1 242 4)" fill="#6053FD"/>
<rect width="4" height="4" transform="matrix(-1 0 0 1 539 37)" fill="#6053FD"/>
<rect x="234" y="37" width="4" height="4" fill="#6053FD"/>
<rect x="535" y="8" width="4" height="4" fill="#6053FD"/>
<rect width="4" height="4" transform="matrix(-1 0 0 1 238 8)" fill="#6053FD"/>
<rect width="4" height="4" transform="matrix(-1 0 0 1 535 41)" fill="#6053FD"/>
<rect x="238" y="41" width="4" height="4" fill="#6053FD"/>
<rect x="539" y="12" width="4" height="25" fill="#6053FD"/>
<rect width="4" height="25" transform="matrix(-1 0 0 1 234 12)" fill="#6053FD"/>
<rect width="324" height="4" transform="matrix(-1 0 0 1 336 149)" fill="#6053FD"/>
<rect width="555" height="4" transform="matrix(-1 0 0 1 567 194)" fill="#6053FD"/>
<rect width="4" height="4" transform="matrix(-1 0 0 1 12 153)" fill="#6053FD"/>
<rect x="4" y="186" width="4" height="4" fill="#6053FD"/>
<rect width="4" height="4" transform="matrix(-1 0 0 1 8 157)" fill="#6053FD"/>
<rect x="8" y="190" width="4" height="4" fill="#6053FD"/>
<rect width="4" height="25" transform="matrix(-1 0 0 1 4 161)" fill="#6053FD"/>
<rect x="332" y="45" width="4" height="108" fill="#6053FD"/>
<rect x="377" y="45" width="4" height="108" fill="#6053FD"/>
<rect width="190" height="4" transform="matrix(-1 0 0 1 567 149)" fill="#6053FD"/>
</svg>
