<svg width="296" height="41" viewBox="0 0 296 41" fill="none" xmlns="http://www.w3.org/2000/svg">
<path d="M28.7031 0.0390625H32.7266V4.0625V8.04688V12.0312H28.7031V8.04688H24.7188H20.7344V12.0312V16.0547V20.0391V24.0234V28.0469V32.0312V36.0156V40.0391H16.7109H12.7266V36.0156V32.0312V28.0469V24.0234V20.0391V16.0547V12.0312V8.04688H8.70312H4.71875V12.0312H0.734375V8.04688V4.0625V0.0390625H4.71875H8.70312H12.7266H16.7109H20.7344H24.7188H28.7031ZM66.2422 0V4.72656V8.00781H62.2188H58.2344V12.0312V16.0156V20V24.0234V28.0078V31.9922H62.2188H66.2422V40H62.2188H58.2344H54.25H50.2266H46.2422H42.2188V31.9922H46.2422H50.2266V28.0078V24.0234V20V16.0156V12.0312V8.00781H46.2422H42.2188V0H46.2422H50.2266H54.25H58.2344H62.2188H66.2422ZM66.2422 0H70.2266V4.02344V8.00781H66.2422H62.2188H58.2344H54.25H50.2266H46.2422H42.2578H38.2344V4.02344V0H42.2578H46.2422H50.2266H54.25H58.2344H62.2188H66.2422ZM66.2422 32.0312H70.2266V36.0156V40H66.2422H62.2188H58.2344H54.25H50.2266H46.2422H42.2578H38.2344V36.0156V32.0312H42.2578H46.2422H50.2266H54.25H58.2344H62.2188H66.2422ZM103.703 0.0390625H107.688V4.0625V8.04688V12.0312V16.0547V20.0391V24.0234V28.0469V32.0312V36.0547V40.0391H103.703H99.7188V36.0547V32.0312V28.0469V24.0234V20.0391V16.0547V12.0312H95.6953V16.0547V20.0391V24.0234V28.0469V32.0312V36.0547H91.7109H87.7266V32.0312V28.0469V24.0234V20.0391V16.0547V12.0312H83.7031V16.0547V20.0391V24.0234V28.0469V32.0312V36.0547V40.0391H79.7188H75.7344V36.0547V32.0312V28.0469V24.0234V20.0391V16.0547V12.0312V8.04688V4.0625V0.0390625H79.7188H83.7031V4.0625H87.7266V8.04688H91.7109H95.6953V4.0625H99.7188V0.0390625H103.703ZM141.164 0H145.148V4.02344V8.00781H141.164H137.141H133.156H129.133H125.148H121.164V12.0312V16.0156H125.148H129.133H133.156H137.141H141.164V20H137.141V24.0234H133.156H129.133H125.148H121.164V28.0078V31.9922H125.148H129.133H133.156H137.141H141.164H145.148V36.0156V40H141.164H137.141H133.156H129.133H125.148H121.164H117.141H113.156V36.0156V31.9922V28.0078V24.0234V20V16.0156V12.0312V8.00781V4.02344V0H117.141H121.164H125.148H129.133H133.156H137.141H141.164ZM178.625 28.0469H182.648V32.0312V36.0547V40.0391H178.625H174.641H170.617H166.633H162.648H158.625H154.641H150.656V36.0547V32.0312V28.0469V24.0234V20.0391V16.0547V12.0312V8.04688V4.0625V0.0390625H154.641H158.625V4.0625V8.04688V12.0312V16.0547V20.0391V24.0234V28.0469V32.0312H162.648H166.633H170.617H174.641V28.0469H178.625ZM216.164 0V4.72656V8.00781H212.141H208.156V12.0312V16.0156V20V24.0234V28.0078V31.9922H212.141H216.164V40H212.141H208.156H204.172H200.148H196.164H192.141V31.9922H196.164H200.148V28.0078V24.0234V20V16.0156V12.0312V8.00781H196.164H192.141V0H196.164H200.148H204.172H208.156H212.141H216.164ZM216.164 0H220.148V4.02344V8.00781H216.164H212.141H208.156H204.172H200.148H196.164H192.18H188.156V4.02344V0H192.18H196.164H200.148H204.172H208.156H212.141H216.164ZM216.164 32.0312H220.148V36.0156V40H216.164H212.141H208.156H204.172H200.148H196.164H192.18H188.156V36.0156V32.0312H192.18H196.164H200.148H204.172H208.156H212.141H216.164ZM253.625 0H257.609V4.02344V8.00781V12.0312V16.0156V20V24.0234V28.0078V31.9922V36.0156V40H253.625H249.641H245.617H241.633V36.0156H237.648V31.9922V28.0078V24.0234V20V16.0156V12.0312V8.00781V4.02344H233.625V8.00781V12.0312V16.0156V20V24.0234V28.0078V31.9922V36.0156V40H229.641H225.656V36.0156V31.9922V28.0078V24.0234V20V16.0156V12.0312V8.00781V4.02344V0H229.641H233.625H237.648H241.633V4.02344H245.617V8.00781V12.0312V16.0156V20V24.0234V28.0078V31.9922V36.0156H249.641V31.9922V28.0078V24.0234V20V16.0156V12.0312V8.00781V4.02344V0H253.625ZM291.086 0H295.07V4.02344V8.00781H291.086H287.062H283.078H279.055H275.07H271.086V12.0312V16.0156H275.07H279.055H283.078H287.062H291.086V20H287.062V24.0234H283.078H279.055H275.07H271.086V28.0078V31.9922H275.07H279.055H283.078H287.062H291.086H295.07V36.0156V40H291.086H287.062H283.078H279.055H275.07H271.086H267.062H263.078V36.0156V31.9922V28.0078V24.0234V20V16.0156V12.0312V8.00781V4.02344V0H267.062H271.086H275.07H279.055H283.078H287.062H291.086Z" fill="#9991FF"/>
</svg>
