<svg width="567" height="198" viewBox="0 0 567 198" fill="none" xmlns="http://www.w3.org/2000/svg">
<rect x="567" y="198" width="555" height="4" transform="rotate(-180 567 198)" fill="#6053FD"/>
<rect x="469" y="153" width="457" height="4" transform="rotate(-180 469 153)" fill="#6053FD"/>
<rect x="567" y="153" width="57" height="4" transform="rotate(-180 567 153)" fill="#6053FD"/>
<rect x="12" y="194" width="4" height="4" transform="rotate(-180 12 194)" fill="#6053FD"/>
<rect width="4" height="4" transform="matrix(1 0 0 -1 4 161)" fill="#6053FD"/>
<rect x="8" y="190" width="4" height="4" transform="rotate(-180 8 190)" fill="#6053FD"/>
<rect width="4" height="4" transform="matrix(1 0 0 -1 8 157)" fill="#6053FD"/>
<rect x="4" y="186" width="4" height="25" transform="rotate(-180 4 186)" fill="#6053FD"/>
<rect x="514" y="153" width="4" height="141" transform="rotate(-180 514 153)" fill="#6053FD"/>
<rect x="469" y="153" width="4" height="141" transform="rotate(-180 469 153)" fill="#6053FD"/>
<rect x="510" y="12" width="4" height="4" transform="rotate(-180 510 12)" fill="#6053FD"/>
<rect width="4" height="4" transform="matrix(1 0 0 -1 469 12)" fill="#6053FD"/>
<rect x="506" y="8" width="4" height="4" transform="rotate(-180 506 8)" fill="#6053FD"/>
<rect width="4" height="4" transform="matrix(1 0 0 -1 473 8)" fill="#6053FD"/>
<rect x="502" y="4" width="25" height="4" transform="rotate(-180 502 4)" fill="#6053FD"/>
</svg>
