<svg width="567" height="198" viewBox="0 0 567 198" fill="none" xmlns="http://www.w3.org/2000/svg">
<rect x="325" y="198" width="289" height="4" transform="rotate(-180 325 198)" fill="#6053FD"/>
<rect x="325" y="153" width="94" height="4" transform="rotate(-180 325 153)" fill="#6053FD"/>
<rect x="190" y="153" width="154" height="4" transform="rotate(-180 190 153)" fill="#6053FD"/>
<rect x="36" y="194" width="4" height="4" transform="rotate(-180 36 194)" fill="#6053FD"/>
<rect width="4" height="4" transform="matrix(1 0 0 -1 325 194)" fill="#6053FD"/>
<rect width="4" height="4" transform="matrix(1 0 0 -1 28 161)" fill="#6053FD"/>
<rect x="333" y="161" width="4" height="4" transform="rotate(-180 333 161)" fill="#6053FD"/>
<rect x="32" y="190" width="4" height="4" transform="rotate(-180 32 190)" fill="#6053FD"/>
<rect width="4" height="4" transform="matrix(1 0 0 -1 329 190)" fill="#6053FD"/>
<rect width="4" height="4" transform="matrix(1 0 0 -1 32 157)" fill="#6053FD"/>
<rect x="329" y="157" width="4" height="4" transform="rotate(-180 329 157)" fill="#6053FD"/>
<rect x="28" y="186" width="4" height="25" transform="rotate(-180 28 186)" fill="#6053FD"/>
<rect width="4" height="25" transform="matrix(1 0 0 -1 333 186)" fill="#6053FD"/>
<rect width="324" height="4" transform="matrix(1 0 0 -1 231 49)" fill="#6053FD"/>
<rect width="555" height="4" transform="matrix(1 0 0 -1 0 4)" fill="#6053FD"/>
<rect width="4" height="4" transform="matrix(1 0 0 -1 555 45)" fill="#6053FD"/>
<rect x="563" y="12" width="4" height="4" transform="rotate(-180 563 12)" fill="#6053FD"/>
<rect width="4" height="4" transform="matrix(1 0 0 -1 559 41)" fill="#6053FD"/>
<rect x="559" y="8" width="4" height="4" transform="rotate(-180 559 8)" fill="#6053FD"/>
<rect width="4" height="25" transform="matrix(1 0 0 -1 563 37)" fill="#6053FD"/>
<rect x="235" y="153" width="4" height="108" transform="rotate(-180 235 153)" fill="#6053FD"/>
<rect x="190" y="153" width="4" height="108" transform="rotate(-180 190 153)" fill="#6053FD"/>
<rect width="190" height="4" transform="matrix(1 0 0 -1 0 49)" fill="#6053FD"/>
</svg>
