<svg width="546" height="49" viewBox="0 0 546 49" fill="none" xmlns="http://www.w3.org/2000/svg">
<rect width="289" height="4" transform="matrix(-1 0 0 1 534 0)" fill="#6053FD"/>
<rect width="289" height="4" transform="matrix(-1 0 0 1 534 45)" fill="#6053FD"/>
<rect width="4" height="4" transform="matrix(-1 0 0 1 245 4)" fill="#6053FD"/>
<rect x="534" y="4" width="4" height="4" fill="#6053FD"/>
<rect x="237" y="37" width="4" height="4" fill="#6053FD"/>
<rect width="4" height="4" transform="matrix(-1 0 0 1 542 37)" fill="#6053FD"/>
<rect width="4" height="4" transform="matrix(-1 0 0 1 241 8)" fill="#6053FD"/>
<rect x="538" y="8" width="4" height="4" fill="#6053FD"/>
<rect x="241" y="41" width="4" height="4" fill="#6053FD"/>
<rect width="4" height="4" transform="matrix(-1 0 0 1 538 41)" fill="#6053FD"/>
<rect width="4" height="25" transform="matrix(-1 0 0 1 237 12)" fill="#6053FD"/>
<rect x="542" y="12" width="4" height="25" fill="#6053FD"/>
<rect width="121" height="4" transform="matrix(-1 0 0 1 121 0)" fill="#6053FD"/>
<rect width="121" height="4" transform="matrix(-1 0 0 1 121 45)" fill="#6053FD"/>
<rect x="121" y="4" width="4" height="4" fill="#6053FD"/>
<rect width="4" height="4" transform="matrix(-1 0 0 1 129 37)" fill="#6053FD"/>
<rect x="125" y="8" width="4" height="4" fill="#6053FD"/>
<rect width="4" height="4" transform="matrix(-1 0 0 1 125 41)" fill="#6053FD"/>
<rect x="129" y="12" width="4" height="25" fill="#6053FD"/>
</svg>
