<svg width="313" height="49" viewBox="0 0 313 49" fill="none" xmlns="http://www.w3.org/2000/svg">
<rect x="301" y="49" width="289" height="4" transform="rotate(-180 301 49)" fill="#6053FD"/>
<rect x="301" y="4" width="289" height="4" transform="rotate(-180 301 4)" fill="#6053FD"/>
<rect x="12" y="45" width="4" height="4" transform="rotate(-180 12 45)" fill="#6053FD"/>
<rect width="4" height="4" transform="matrix(1 0 0 -1 301 45)" fill="#6053FD"/>
<rect width="4" height="4" transform="matrix(1 0 0 -1 4 12)" fill="#6053FD"/>
<rect x="309" y="12" width="4" height="4" transform="rotate(-180 309 12)" fill="#6053FD"/>
<rect x="8" y="41" width="4" height="4" transform="rotate(-180 8 41)" fill="#6053FD"/>
<rect width="4" height="4" transform="matrix(1 0 0 -1 305 41)" fill="#6053FD"/>
<rect width="4" height="4" transform="matrix(1 0 0 -1 8 8)" fill="#6053FD"/>
<rect x="305" y="8" width="4" height="4" transform="rotate(-180 305 8)" fill="#6053FD"/>
<rect x="4" y="37" width="4" height="25" transform="rotate(-180 4 37)" fill="#6053FD"/>
<rect width="4" height="25" transform="matrix(1 0 0 -1 309 37)" fill="#6053FD"/>
</svg>
