<svg width="958" height="628" viewBox="0 0 958 628" fill="none" xmlns="http://www.w3.org/2000/svg">
<rect x="924" y="36" width="9" height="25" fill="#ACD5F1"/>
<rect x="12" y="58" width="41" height="523" fill="#ACD5F1"/>
<rect x="902" y="51" width="46" height="526" fill="#ACD5F1"/>
<rect x="30" y="12" width="897" height="603" fill="#ACD5F1"/>
<path d="M3.99997 581.552L4 50.3071L16.3698 50.3071L16.3698 28.4398L31.2135 28.4398L31.2135 4L926.786 4.00005L926.786 28.4399L940.806 28.4399L940.806 47.7345L954 47.7345L954 582.838L940.806 582.838L940.806 602.133L928.436 602.133L928.436 624L31.2135 624L31.2135 607.278L18.0191 607.278L18.0191 581.552L3.99997 581.552Z" stroke="black" stroke-width="7"/>
<path d="M7.99997 576.305L8 54.4855L20.2266 54.4855L20.2266 33.0062L34.8984 33.0062L34.8984 9L920.102 9.00005L920.102 33.0063L933.958 33.0063L933.958 51.9585L947 51.9585L947 577.568L933.958 577.568L933.958 596.521L921.732 596.521L921.732 618L34.8984 618L34.8984 601.575L21.8567 601.575L21.8567 576.305L7.99997 576.305Z" stroke="#3498DB" stroke-width="7"/>
<line x1="192" y1="12" x2="192" y2="615" stroke="#3498DB" stroke-width="4"/>
<line x1="188" y1="12" x2="188" y2="615" stroke="#7ECBFF" stroke-width="4"/>
<line x1="758" y1="12" x2="758" y2="615" stroke="#7ECBFF" stroke-width="4"/>
<line x1="762" y1="12" x2="762" y2="618" stroke="#3498DB" stroke-width="4"/>
<line x1="378" y1="12" x2="378" y2="615" stroke="#7ECBFF" stroke-width="4"/>
<line x1="382" y1="12" x2="382" y2="615" stroke="#3498DB" stroke-width="4"/>
<line x1="386" y1="12" x2="386" y2="615" stroke="black" stroke-width="4"/>
<line x1="568" y1="12" x2="568" y2="615.001" stroke="#7ECBFF" stroke-width="4"/>
<line x1="572" y1="12" x2="572" y2="615" stroke="#3498DB" stroke-width="4"/>
<line x1="576" y1="12" x2="576" y2="615" stroke="black" stroke-width="4"/>
<line x1="766" y1="12" x2="766" y2="615" stroke="black" stroke-width="4"/>
<line x1="3.00211" y1="311" x2="955.002" y2="312.002" stroke="black" stroke-width="4"/>
<path d="M85.8889 225H49.2222V212.778H85.8889V225ZM85.8889 151.667H49.2222V139.444H85.8889V151.667ZM49.2222 176.111H37V151.667H49.2222V176.111ZM49.2222 212.778H37V200.556H49.2222V212.778ZM85.8889 188.333H49.2222V176.111H85.8889V151.667H98.1111V212.778H85.8889V188.333ZM120.171 163.889H107.949V151.667H120.171V163.889ZM156.838 151.667H120.171V139.444H156.838V151.667ZM169.06 176.111H156.838V151.667H169.06V176.111ZM156.838 188.333H132.394V176.111H156.838V188.333ZM169.06 212.778H156.838V188.333H169.06V212.778ZM156.838 225H120.171V212.778H156.838V225ZM120.171 212.778H107.949V200.556H120.171V212.778Z" fill="black"/>
<path d="M268.889 225H232.222V212.778H268.889V225ZM281.111 163.889H268.889V151.667H281.111V163.889ZM268.889 151.667H232.222V139.444H268.889V151.667ZM232.222 188.333V212.778H220V151.667H232.222V176.111H268.889V188.333H232.222ZM281.111 212.778H268.889V188.333H281.111V212.778ZM303.171 163.889H290.949V151.667H303.171V163.889ZM339.838 151.667H303.171V139.444H339.838V151.667ZM352.06 176.111H339.838V151.667H352.06V176.111ZM339.838 188.333H315.394V176.111H339.838V188.333ZM352.06 212.778H339.838V188.333H352.06V212.778ZM339.838 225H303.171V212.778H339.838V225ZM303.171 212.778H290.949V200.556H303.171V212.778Z" fill="black"/>
<path d="M457.889 225H421.222V212.778H457.889V225ZM421.222 212.778H409V188.333H421.222V212.778ZM470.111 212.778H457.889V188.333H470.111V212.778ZM457.889 188.333H421.222V176.111H457.889V188.333ZM457.889 151.667H421.222V139.444H457.889V151.667ZM421.222 176.111H409V151.667H421.222V176.111ZM470.111 176.111H457.889V151.667H470.111V176.111ZM504.394 176.111H492.171V163.889H504.394V176.111ZM528.838 200.556V225H516.616V200.556H479.949V176.111H492.171V188.333H516.616V163.889H504.394V151.667H516.616V139.444H528.838V188.333H541.06V200.556H528.838Z" fill="black"/>
<path d="M461.222 447.889H449V435.667H461.222V447.889ZM497.889 435.667H461.222V423.444H497.889V435.667ZM510.111 460.111H497.889V435.667H510.111V460.111ZM497.889 472.333H485.667V460.111H497.889V472.333ZM485.667 484.556H473.444V472.333H485.667V484.556ZM473.444 496.778H510.111V509H449V496.778H461.222V484.556H473.444V496.778Z" fill="black"/>
<path d="M648.222 447.889H636V435.667H648.222V447.889ZM684.889 435.667H648.222V423.444H684.889V435.667ZM697.111 460.111H684.889V435.667H697.111V460.111ZM684.889 472.333H672.667V460.111H684.889V472.333ZM672.667 484.556H660.444V472.333H672.667V484.556ZM672.667 509H660.444V496.778H672.667V509Z" fill="black"/>
<path d="M839.222 447.889H827V435.667H839.222V447.889ZM875.889 435.667H839.222V423.444H875.889V435.667ZM888.111 460.111H875.889V435.667H888.111V460.111ZM875.889 472.333H863.667V460.111H875.889V472.333ZM863.667 484.556H851.444V472.333H863.667V484.556ZM863.667 509H851.444V496.778H863.667V509Z" fill="black"/>
<path d="M260.222 447.889H248V435.667H260.222V447.889ZM296.889 435.667H260.222V423.444H296.889V435.667ZM309.111 460.111H296.889V435.667H309.111V460.111ZM296.889 472.333H284.667V460.111H296.889V472.333ZM284.667 484.556H272.444V472.333H284.667V484.556ZM272.444 496.778H309.111V509H248V496.778H260.222V484.556H272.444V496.778Z" fill="black"/>
<path d="M81.2222 447.889H69V435.667H81.2222V447.889ZM117.889 435.667H81.2222V423.444H117.889V435.667ZM130.111 460.111H117.889V435.667H130.111V460.111ZM117.889 472.333H93.4444V460.111H117.889V472.333ZM130.111 496.778H117.889V472.333H130.111V496.778ZM117.889 509H81.2222V496.778H117.889V509ZM81.2222 496.778H69V484.556H81.2222V496.778Z" fill="black"/>
<path d="M622.444 176.111H610.222V163.889H622.444V176.111ZM646.889 200.556V225H634.667V200.556H598V176.111H610.222V188.333H634.667V163.889H622.444V151.667H634.667V139.444H646.889V188.333H659.111V200.556H646.889ZM705.616 212.778H730.06V225H668.949V212.778H693.394V151.667H668.949V139.444H705.616V212.778Z" fill="black"/>
<path d="M794.222 225H782V212.778H794.222V225ZM806.444 212.778H794.222V200.556H806.444V212.778ZM818.667 200.556H806.444V188.333H818.667V200.556ZM830.889 188.333H818.667V176.111H830.889V188.333ZM830.889 151.667H782V139.444H843.111V176.111H830.889V151.667ZM865.171 225H852.949V212.778H865.171V225ZM877.394 212.778H865.171V200.556H877.394V212.778ZM889.616 200.556H877.394V188.333H889.616V200.556ZM901.838 188.333H889.616V176.111H901.838V188.333ZM901.838 151.667H852.949V139.444H914.06V176.111H901.838V151.667Z" fill="black"/>
<line x1="944" y1="304" x2="11.0001" y2="304" stroke="#7ECBFF" stroke-width="4"/>
<line x1="944" y1="308" x2="11.0015" y2="308" stroke="#3498DB" stroke-width="4"/>
<line x1="196" y1="12" x2="196" y2="616" stroke="black" stroke-width="4"/>
</svg>
