<svg width="1919" height="91" viewBox="0 0 1919 91" fill="none" xmlns="http://www.w3.org/2000/svg">
<path d="M479 0H340.198V41.8088H479V0Z" fill="#A3C254"/>
<path d="M479 7.15332H468.514V15.7303H447.441V21.625H416.849V36.6347H403.253V15.7303H385.579V23.2332H362.466V33.9544H340.198V41.8086H479V7.15332Z" fill="#8BA748"/>
<path d="M479 41.8088H340.198V90.0484H479V41.8088Z" fill="#7F4D2E"/>
<path d="M479 78.9816V55.933H475.992V63.9719H458.997V54.8589H443.361V47.354H437.243V53.2507H431.805V61.8277H420.248V53.2507H405.293V63.9719H393.736V50.0343H371.982V55.933H353.628V65.5801H340.198V75.2272H356.348V90.0482H365.184V70.4027H378.102V80.0538H387.619V73.619H408.692V82.196H418.889V74.1551H438.603V83.8042H453.558V76.8354H466.474V78.9816H479Z" fill="#945835"/>
<path d="M445.911 62.4441H436.902V69.4129H445.911V62.4441Z" fill="#7F4D2E"/>
<path d="M466.137 67.8931H457.128V74.8619H466.137V67.8931Z" fill="#7F4D2E"/>
<path d="M427.897 69.4128H418.889V76.3797H427.897V69.4128Z" fill="#7F4D2E"/>
<path d="M396.625 69.9148H387.619V76.8836H396.625V69.9148Z" fill="#7F4D2E"/>
<path d="M380.764 55.4753H371.756V62.4421H380.764V55.4753Z" fill="#7F4D2E"/>
<path d="M357.198 65.3916H348.189V72.3604H357.198V65.3916Z" fill="#7F4D2E"/>
<path d="M444.72 35.376H433.844V42.3428H444.72V35.376Z" fill="#7F4D2E"/>
<path d="M392.375 38.3254H381.499V45.2922H392.375V38.3254Z" fill="#7F4D2E"/>
<path d="M433.844 38.8613H422.969V45.8281H433.844V38.8613Z" fill="#8BA748"/>
<path d="M466.134 38.512H455.259V45.4787H466.134V38.512Z" fill="#8BA748"/>
<path d="M411.071 40.335H400.195V47.3017H411.071V40.335Z" fill="#8BA748"/>
<path d="M368.583 38.3254H357.708V45.2922H368.583V38.3254Z" fill="#8BA748"/>
<path d="M348.737 0H-1V41.8088H348.737V0Z" fill="#A3C254"/>
<path d="M338.731 10.9058V17.3385H331.934V23.7692H316.298V29.1298H301.343V20.0188H294.545V17.3385H280.948V14.1221H268.713V22.161H262.594V33.9544H255.798V22.161H244.92V11.4418H237.441V26.4495H212.969V11.9779H190.537V22.6971H178.3V28.0577H162.665V21.0909H157.227V24.3053H141.59V7.15332H127.315V15.7303H106.24V21.625H75.6508V36.6347H62.0545V15.7303H44.3805V23.2332H21.2656V33.9544H-1V41.8086H348.739V10.9058H338.731Z" fill="#8BA748"/>
<path d="M348.737 41.8088H-1V90.0484H348.737V41.8088Z" fill="#7F4D2E"/>
<path d="M337.371 66.6524H348.739V61.8278H341.451V46.8181H322.416V55.3971H301.343V41.8088H293.866V53.2508H284.347V57.5393H272.112V53.2508H253.758V59.6836H236.082V41.8088H232.685V52.1787H211.61V63.436H185.778V54.859H168.783V50.0345H163.344V66.6524H144.309V55.9332H134.792V63.9721H117.797V54.859H102.163V47.3542H96.0432V53.2508H90.6063V61.8278H79.0499V53.2508H64.0943V63.9721H52.5379V50.0345H30.7842V55.9332H12.4296V65.5803H-1V75.2274H15.1481V90.0484H23.9861V70.4028H36.9018V80.0539H46.4184V73.6192H67.4934V82.1962H77.6906V74.1552H97.4024V83.8044H112.36V76.8356H125.276V78.9818H144.309V73.6192H177.619V70.4028H219.086V82.1962H225.206V75.7634H258.516V90.0484H271.432V66.6524H285.028V77.9097H295.225V69.8667H319.019V85.9486H335.331V78.9818H337.371V66.6524Z" fill="#945835"/>
<path d="M335.859 50.9179H339.22V50.7954C338.1 50.8235 336.98 50.8637 335.859 50.9179Z" fill="#A37458"/>
<path d="M315.618 35.376H304.742V42.3428H315.618V35.376Z" fill="#7F4D2E"/>
<path d="M207.53 35.376H196.654V42.3428H207.53V35.376Z" fill="#7F4D2E"/>
<path d="M150.426 35.376H139.551V42.3428H150.426V35.376Z" fill="#7F4D2E"/>
<path d="M104.711 62.4441H95.7039V69.4129H104.711V62.4441Z" fill="#7F4D2E"/>
<path d="M124.936 67.8931H115.928V74.8619H124.936V67.8931Z" fill="#7F4D2E"/>
<path d="M179.888 58.2461H170.879V65.2129H179.888V58.2461Z" fill="#7F4D2E"/>
<path d="M170.993 68.5173H161.985V75.4861H170.993V68.5173Z" fill="#7F4D2E"/>
<path d="M204.643 60.4785H195.634V67.4453H204.643V60.4785Z" fill="#7F4D2E"/>
<path d="M231.833 62.4441H222.827V69.4129H231.833V62.4441Z" fill="#7F4D2E"/>
<path d="M247.128 65.9275H238.122V72.8963H247.128V65.9275Z" fill="#7F4D2E"/>
<path d="M268.372 56.9951H259.365V63.9619H268.372V56.9951Z" fill="#7F4D2E"/>
<path d="M291.742 59.4065H282.733V66.3733H291.742V59.4065Z" fill="#7F4D2E"/>
<path d="M327.997 56.9951H318.989V63.9619H327.997V56.9951Z" fill="#7F4D2E"/>
<path d="M334.91 69.4128H325.901V76.3797H334.91V69.4128Z" fill="#7F4D2E"/>
<path d="M313.75 65.9275H304.742V72.8963H313.75V65.9275Z" fill="#7F4D2E"/>
<path d="M274.761 77.2729H265.754V84.2398H274.761V77.2729Z" fill="#7F4D2E"/>
<path d="M86.6993 69.4128H77.6906V76.3797H86.6993V69.4128Z" fill="#7F4D2E"/>
<path d="M55.427 69.9148H46.4184V76.8836H55.427V69.9148Z" fill="#7F4D2E"/>
<path d="M39.566 55.4753H30.5574V62.4421H39.566V55.4753Z" fill="#7F4D2E"/>
<path d="M15.9974 65.3916H6.99073V72.3604H15.9974V65.3916Z" fill="#7F4D2E"/>
<path d="M103.522 35.376H92.6461V42.3428H103.522V35.376Z" fill="#7F4D2E"/>
<path d="M240.159 38.512H229.284V45.4787H240.159V38.512Z" fill="#7F4D2E"/>
<path d="M275.694 38.3254H264.818V45.2922H275.694V38.3254Z" fill="#7F4D2E"/>
<path d="M51.1767 38.3254H40.3008V45.2922H51.1767V38.3254Z" fill="#7F4D2E"/>
<path d="M92.6441 38.8613H81.7683V45.8281H92.6441V38.8613Z" fill="#8BA748"/>
<path d="M124.934 38.512H114.059V45.4787H124.934V38.512Z" fill="#8BA748"/>
<path d="M167.422 40.335H156.546V47.3017H167.422V40.335Z" fill="#8BA748"/>
<path d="M189.517 38.512H178.641V45.4787H189.517V38.512Z" fill="#8BA748"/>
<path d="M229.284 40.335H218.408V47.3017H229.284V40.335Z" fill="#8BA748"/>
<path d="M259.365 40.335H248.49V47.3017H259.365V40.335Z" fill="#8BA748"/>
<path d="M292.675 40.335H281.8V47.3017H292.675V40.335Z" fill="#8BA748"/>
<path d="M332.782 36.1812H321.906V43.148H332.782V36.1812Z" fill="#8BA748"/>
<path d="M69.8726 40.335H58.9967V47.3017H69.8726V40.335Z" fill="#8BA748"/>
<path d="M27.3852 38.3254H16.5093V45.2922H27.3852V38.3254Z" fill="#8BA748"/>
<path d="M959 0H820.198V41.8088H959V0Z" fill="#A3C254"/>
<path d="M959 7.15332H948.514V15.7303H927.441V21.625H896.849V36.6347H883.253V15.7303H865.579V23.2332H842.466V33.9544H820.198V41.8086H959V7.15332Z" fill="#8BA748"/>
<path d="M959 41.8088H820.198V90.0484H959V41.8088Z" fill="#7F4D2E"/>
<path d="M959 78.9816V55.933H955.992V63.9719H938.997V54.8589H923.361V47.354H917.243V53.2507H911.804V61.8277H900.248V53.2507H885.293V63.9719H873.736V50.0343H851.982V55.933H833.628V65.5801H820.198V75.2272H836.348V90.0482H845.184V70.4027H858.102V80.0538H867.619V73.619H888.692V82.196H898.889V74.1551H918.603V83.8042H933.558V76.8354H946.474V78.9816H959Z" fill="#945835"/>
<path d="M925.911 62.4441H916.902V69.4129H925.911V62.4441Z" fill="#7F4D2E"/>
<path d="M946.136 67.8931H937.128V74.8619H946.136V67.8931Z" fill="#7F4D2E"/>
<path d="M907.897 69.4128H898.889V76.3797H907.897V69.4128Z" fill="#7F4D2E"/>
<path d="M876.625 69.9148H867.619V76.8836H876.625V69.9148Z" fill="#7F4D2E"/>
<path d="M860.764 55.4753H851.755V62.4421H860.764V55.4753Z" fill="#7F4D2E"/>
<path d="M837.198 65.3916H828.189V72.3604H837.198V65.3916Z" fill="#7F4D2E"/>
<path d="M924.72 35.376H913.844V42.3428H924.72V35.376Z" fill="#7F4D2E"/>
<path d="M872.375 38.3254H861.499V45.2922H872.375V38.3254Z" fill="#7F4D2E"/>
<path d="M913.844 38.8613H902.969V45.8281H913.844V38.8613Z" fill="#8BA748"/>
<path d="M946.134 38.512H935.259V45.4787H946.134V38.512Z" fill="#8BA748"/>
<path d="M891.071 40.335H880.195V47.3017H891.071V40.335Z" fill="#8BA748"/>
<path d="M848.583 38.3254H837.707V45.2922H848.583V38.3254Z" fill="#8BA748"/>
<path d="M828.737 0H479V41.8088H828.737V0Z" fill="#A3C254"/>
<path d="M818.731 10.9058V17.3385H811.934V23.7692H796.298V29.1298H781.343V20.0188H774.545V17.3385H760.948V14.1221H748.713V22.161H742.594V33.9544H735.798V22.161H724.92V11.4418H717.441V26.4495H692.969V11.9779H670.537V22.6971H658.3V28.0577H642.665V21.0909H637.227V24.3053H621.59V7.15332H607.315V15.7303H586.24V21.625H555.651V36.6347H542.054V15.7303H524.381V23.2332H501.266V33.9544H479V41.8086H828.739V10.9058H818.731Z" fill="#8BA748"/>
<path d="M828.737 41.8088H479V90.0484H828.737V41.8088Z" fill="#7F4D2E"/>
<path d="M817.371 66.6524H828.739V61.8278H821.451V46.8181H802.416V55.3971H781.343V41.8088H773.866V53.2508H764.347V57.5393H752.112V53.2508H733.758V59.6836H716.082V41.8088H712.685V52.1787H691.61V63.436H665.778V54.859H648.783V50.0345H643.344V66.6524H624.309V55.9332H614.792V63.9721H597.797V54.859H582.163V47.3542H576.043V53.2508H570.606V61.8278H559.05V53.2508H544.094V63.9721H532.538V50.0345H510.784V55.9332H492.43V65.5803H479V75.2274H495.148V90.0484H503.986V70.4028H516.902V80.0539H526.418V73.6192H547.493V82.1962H557.691V74.1552H577.402V83.8044H592.36V76.8356H605.276V78.9818H624.309V73.6192H657.619V70.4028H699.086V82.1962H705.206V75.7634H738.516V90.0484H751.432V66.6524H765.028V77.9097H775.225V69.8667H799.019V85.9486H815.331V78.9818H817.371V66.6524Z" fill="#945835"/>
<path d="M815.859 50.9179H819.22V50.7954C818.1 50.8235 816.98 50.8637 815.859 50.9179Z" fill="#A37458"/>
<path d="M795.618 35.376H784.742V42.3428H795.618V35.376Z" fill="#7F4D2E"/>
<path d="M687.53 35.376H676.654V42.3428H687.53V35.376Z" fill="#7F4D2E"/>
<path d="M630.426 35.376H619.551V42.3428H630.426V35.376Z" fill="#7F4D2E"/>
<path d="M584.711 62.4441H575.704V69.4129H584.711V62.4441Z" fill="#7F4D2E"/>
<path d="M604.936 67.8931H595.928V74.8619H604.936V67.8931Z" fill="#7F4D2E"/>
<path d="M659.888 58.2461H650.879V65.2129H659.888V58.2461Z" fill="#7F4D2E"/>
<path d="M650.993 68.5173H641.985V75.4861H650.993V68.5173Z" fill="#7F4D2E"/>
<path d="M684.643 60.4785H675.634V67.4453H684.643V60.4785Z" fill="#7F4D2E"/>
<path d="M711.833 62.4441H702.827V69.4129H711.833V62.4441Z" fill="#7F4D2E"/>
<path d="M727.128 65.9275H718.122V72.8963H727.128V65.9275Z" fill="#7F4D2E"/>
<path d="M748.372 56.9951H739.365V63.9619H748.372V56.9951Z" fill="#7F4D2E"/>
<path d="M771.742 59.4065H762.733V66.3733H771.742V59.4065Z" fill="#7F4D2E"/>
<path d="M807.997 56.9951H798.989V63.9619H807.997V56.9951Z" fill="#7F4D2E"/>
<path d="M814.91 69.4128H805.901V76.3797H814.91V69.4128Z" fill="#7F4D2E"/>
<path d="M793.75 65.9275H784.742V72.8963H793.75V65.9275Z" fill="#7F4D2E"/>
<path d="M754.761 77.2729H745.754V84.2398H754.761V77.2729Z" fill="#7F4D2E"/>
<path d="M566.699 69.4128H557.691V76.3797H566.699V69.4128Z" fill="#7F4D2E"/>
<path d="M535.427 69.9148H526.418V76.8836H535.427V69.9148Z" fill="#7F4D2E"/>
<path d="M519.566 55.4753H510.557V62.4421H519.566V55.4753Z" fill="#7F4D2E"/>
<path d="M495.997 65.3916H486.991V72.3604H495.997V65.3916Z" fill="#7F4D2E"/>
<path d="M583.522 35.376H572.646V42.3428H583.522V35.376Z" fill="#7F4D2E"/>
<path d="M720.159 38.512H709.284V45.4787H720.159V38.512Z" fill="#7F4D2E"/>
<path d="M755.694 38.3254H744.818V45.2922H755.694V38.3254Z" fill="#7F4D2E"/>
<path d="M531.177 38.3254H520.301V45.2922H531.177V38.3254Z" fill="#7F4D2E"/>
<path d="M572.644 38.8613H561.768V45.8281H572.644V38.8613Z" fill="#8BA748"/>
<path d="M604.934 38.512H594.058V45.4787H604.934V38.512Z" fill="#8BA748"/>
<path d="M647.422 40.335H636.546V47.3017H647.422V40.335Z" fill="#8BA748"/>
<path d="M669.517 38.512H658.641V45.4787H669.517V38.512Z" fill="#8BA748"/>
<path d="M709.284 40.335H698.408V47.3017H709.284V40.335Z" fill="#8BA748"/>
<path d="M739.365 40.335H728.49V47.3017H739.365V40.335Z" fill="#8BA748"/>
<path d="M772.675 40.335H761.8V47.3017H772.675V40.335Z" fill="#8BA748"/>
<path d="M812.782 36.1812H801.906V43.148H812.782V36.1812Z" fill="#8BA748"/>
<path d="M549.873 40.335H538.997V47.3017H549.873V40.335Z" fill="#8BA748"/>
<path d="M507.385 38.3254H496.509V45.2922H507.385V38.3254Z" fill="#8BA748"/>
<path d="M1439 0H1300.2V41.8088H1439V0Z" fill="#A3C254"/>
<path d="M1439 7.15332H1428.51V15.7303H1407.44V21.625H1376.85V36.6347H1363.25V15.7303H1345.58V23.2332H1322.47V33.9544H1300.2V41.8086H1439V7.15332Z" fill="#8BA748"/>
<path d="M1439 41.8088H1300.2V90.0484H1439V41.8088Z" fill="#7F4D2E"/>
<path d="M1439 78.9816V55.933H1435.99V63.9719H1419V54.8589H1403.36V47.354H1397.24V53.2507H1391.8V61.8277H1380.25V53.2507H1365.29V63.9719H1353.74V50.0343H1331.98V55.933H1313.63V65.5801H1300.2V75.2272H1316.35V90.0482H1325.18V70.4027H1338.1V80.0538H1347.62V73.619H1368.69V82.196H1378.89V74.1551H1398.6V83.8042H1413.56V76.8354H1426.47V78.9816H1439Z" fill="#945835"/>
<path d="M1405.91 62.4441H1396.9V69.4129H1405.91V62.4441Z" fill="#7F4D2E"/>
<path d="M1426.14 67.8931H1417.13V74.8619H1426.14V67.8931Z" fill="#7F4D2E"/>
<path d="M1387.9 69.4128H1378.89V76.3797H1387.9V69.4128Z" fill="#7F4D2E"/>
<path d="M1356.63 69.9148H1347.62V76.8836H1356.63V69.9148Z" fill="#7F4D2E"/>
<path d="M1340.76 55.4753H1331.76V62.4421H1340.76V55.4753Z" fill="#7F4D2E"/>
<path d="M1317.2 65.3916H1308.19V72.3604H1317.2V65.3916Z" fill="#7F4D2E"/>
<path d="M1404.72 35.376H1393.84V42.3428H1404.72V35.376Z" fill="#7F4D2E"/>
<path d="M1352.37 38.3254H1341.5V45.2922H1352.37V38.3254Z" fill="#7F4D2E"/>
<path d="M1393.84 38.8613H1382.97V45.8281H1393.84V38.8613Z" fill="#8BA748"/>
<path d="M1426.13 38.512H1415.26V45.4787H1426.13V38.512Z" fill="#8BA748"/>
<path d="M1371.07 40.335H1360.19V47.3017H1371.07V40.335Z" fill="#8BA748"/>
<path d="M1328.58 38.3254H1317.71V45.2922H1328.58V38.3254Z" fill="#8BA748"/>
<path d="M1308.74 0H959V41.8088H1308.74V0Z" fill="#A3C254"/>
<path d="M1298.73 10.9058V17.3385H1291.93V23.7692H1276.3V29.1298H1261.34V20.0188H1254.54V17.3385H1240.95V14.1221H1228.71V22.161H1222.59V33.9544H1215.8V22.161H1204.92V11.4418H1197.44V26.4495H1172.97V11.9779H1150.54V22.6971H1138.3V28.0577H1122.67V21.0909H1117.23V24.3053H1101.59V7.15332H1087.32V15.7303H1066.24V21.625H1035.65V36.6347H1022.05V15.7303H1004.38V23.2332H981.266V33.9544H959V41.8086H1308.74V10.9058H1298.73Z" fill="#8BA748"/>
<path d="M1308.74 41.8088H959V90.0484H1308.74V41.8088Z" fill="#7F4D2E"/>
<path d="M1297.37 66.6524H1308.74V61.8278H1301.45V46.8181H1282.42V55.3971H1261.34V41.8088H1253.87V53.2508H1244.35V57.5393H1232.11V53.2508H1213.76V59.6836H1196.08V41.8088H1192.68V52.1787H1171.61V63.436H1145.78V54.859H1128.78V50.0345H1123.34V66.6524H1104.31V55.9332H1094.79V63.9721H1077.8V54.859H1062.16V47.3542H1056.04V53.2508H1050.61V61.8278H1039.05V53.2508H1024.09V63.9721H1012.54V50.0345H990.784V55.9332H972.43V65.5803H959V75.2274H975.148V90.0484H983.986V70.4028H996.902V80.0539H1006.42V73.6192H1027.49V82.1962H1037.69V74.1552H1057.4V83.8044H1072.36V76.8356H1085.28V78.9818H1104.31V73.6192H1137.62V70.4028H1179.09V82.1962H1185.21V75.7634H1218.52V90.0484H1231.43V66.6524H1245.03V77.9097H1255.23V69.8667H1279.02V85.9486H1295.33V78.9818H1297.37V66.6524Z" fill="#945835"/>
<path d="M1295.86 50.9179H1299.22V50.7954C1298.1 50.8235 1296.98 50.8637 1295.86 50.9179Z" fill="#A37458"/>
<path d="M1275.62 35.376H1264.74V42.3428H1275.62V35.376Z" fill="#7F4D2E"/>
<path d="M1167.53 35.376H1156.65V42.3428H1167.53V35.376Z" fill="#7F4D2E"/>
<path d="M1110.43 35.376H1099.55V42.3428H1110.43V35.376Z" fill="#7F4D2E"/>
<path d="M1064.71 62.4441H1055.7V69.4129H1064.71V62.4441Z" fill="#7F4D2E"/>
<path d="M1084.94 67.8931H1075.93V74.8619H1084.94V67.8931Z" fill="#7F4D2E"/>
<path d="M1139.89 58.2461H1130.88V65.2129H1139.89V58.2461Z" fill="#7F4D2E"/>
<path d="M1130.99 68.5173H1121.98V75.4861H1130.99V68.5173Z" fill="#7F4D2E"/>
<path d="M1164.64 60.4785H1155.63V67.4453H1164.64V60.4785Z" fill="#7F4D2E"/>
<path d="M1191.83 62.4441H1182.83V69.4129H1191.83V62.4441Z" fill="#7F4D2E"/>
<path d="M1207.13 65.9275H1198.12V72.8963H1207.13V65.9275Z" fill="#7F4D2E"/>
<path d="M1228.37 56.9951H1219.37V63.9619H1228.37V56.9951Z" fill="#7F4D2E"/>
<path d="M1251.74 59.4065H1242.73V66.3733H1251.74V59.4065Z" fill="#7F4D2E"/>
<path d="M1288 56.9951H1278.99V63.9619H1288V56.9951Z" fill="#7F4D2E"/>
<path d="M1294.91 69.4128H1285.9V76.3797H1294.91V69.4128Z" fill="#7F4D2E"/>
<path d="M1273.75 65.9275H1264.74V72.8963H1273.75V65.9275Z" fill="#7F4D2E"/>
<path d="M1234.76 77.2729H1225.75V84.2398H1234.76V77.2729Z" fill="#7F4D2E"/>
<path d="M1046.7 69.4128H1037.69V76.3797H1046.7V69.4128Z" fill="#7F4D2E"/>
<path d="M1015.43 69.9148H1006.42V76.8836H1015.43V69.9148Z" fill="#7F4D2E"/>
<path d="M999.566 55.4753H990.557V62.4421H999.566V55.4753Z" fill="#7F4D2E"/>
<path d="M975.997 65.3916H966.991V72.3604H975.997V65.3916Z" fill="#7F4D2E"/>
<path d="M1063.52 35.376H1052.65V42.3428H1063.52V35.376Z" fill="#7F4D2E"/>
<path d="M1200.16 38.512H1189.28V45.4787H1200.16V38.512Z" fill="#7F4D2E"/>
<path d="M1235.69 38.3254H1224.82V45.2922H1235.69V38.3254Z" fill="#7F4D2E"/>
<path d="M1011.18 38.3254H1000.3V45.2922H1011.18V38.3254Z" fill="#7F4D2E"/>
<path d="M1052.64 38.8613H1041.77V45.8281H1052.64V38.8613Z" fill="#8BA748"/>
<path d="M1084.93 38.512H1074.06V45.4787H1084.93V38.512Z" fill="#8BA748"/>
<path d="M1127.42 40.335H1116.55V47.3017H1127.42V40.335Z" fill="#8BA748"/>
<path d="M1149.52 38.512H1138.64V45.4787H1149.52V38.512Z" fill="#8BA748"/>
<path d="M1189.28 40.335H1178.41V47.3017H1189.28V40.335Z" fill="#8BA748"/>
<path d="M1219.37 40.335H1208.49V47.3017H1219.37V40.335Z" fill="#8BA748"/>
<path d="M1252.68 40.335H1241.8V47.3017H1252.68V40.335Z" fill="#8BA748"/>
<path d="M1292.78 36.1812H1281.91V43.148H1292.78V36.1812Z" fill="#8BA748"/>
<path d="M1029.87 40.335H1019V47.3017H1029.87V40.335Z" fill="#8BA748"/>
<path d="M987.385 38.3254H976.509V45.2922H987.385V38.3254Z" fill="#8BA748"/>
<path d="M1919 0H1780.2V41.8088H1919V0Z" fill="#A3C254"/>
<path d="M1919 7.15332H1908.51V15.7303H1887.44V21.625H1856.85V36.6347H1843.25V15.7303H1825.58V23.2332H1802.47V33.9544H1780.2V41.8086H1919V7.15332Z" fill="#8BA748"/>
<path d="M1919 41.8088H1780.2V90.0484H1919V41.8088Z" fill="#7F4D2E"/>
<path d="M1919 78.9816V55.933H1915.99V63.9719H1899V54.8589H1883.36V47.354H1877.24V53.2507H1871.8V61.8277H1860.25V53.2507H1845.29V63.9719H1833.74V50.0343H1811.98V55.933H1793.63V65.5801H1780.2V75.2272H1796.35V90.0482H1805.18V70.4027H1818.1V80.0538H1827.62V73.619H1848.69V82.196H1858.89V74.1551H1878.6V83.8042H1893.56V76.8354H1906.47V78.9816H1919Z" fill="#945835"/>
<path d="M1885.91 62.4441H1876.9V69.4129H1885.91V62.4441Z" fill="#7F4D2E"/>
<path d="M1906.14 67.8931H1897.13V74.8619H1906.14V67.8931Z" fill="#7F4D2E"/>
<path d="M1867.9 69.4128H1858.89V76.3797H1867.9V69.4128Z" fill="#7F4D2E"/>
<path d="M1836.63 69.9148H1827.62V76.8836H1836.63V69.9148Z" fill="#7F4D2E"/>
<path d="M1820.76 55.4753H1811.76V62.4421H1820.76V55.4753Z" fill="#7F4D2E"/>
<path d="M1797.2 65.3916H1788.19V72.3604H1797.2V65.3916Z" fill="#7F4D2E"/>
<path d="M1884.72 35.376H1873.84V42.3428H1884.72V35.376Z" fill="#7F4D2E"/>
<path d="M1832.37 38.3254H1821.5V45.2922H1832.37V38.3254Z" fill="#7F4D2E"/>
<path d="M1873.84 38.8613H1862.97V45.8281H1873.84V38.8613Z" fill="#8BA748"/>
<path d="M1906.13 38.512H1895.26V45.4787H1906.13V38.512Z" fill="#8BA748"/>
<path d="M1851.07 40.335H1840.19V47.3017H1851.07V40.335Z" fill="#8BA748"/>
<path d="M1808.58 38.3254H1797.71V45.2922H1808.58V38.3254Z" fill="#8BA748"/>
<path d="M1788.74 0H1439V41.8088H1788.74V0Z" fill="#A3C254"/>
<path d="M1778.73 10.9058V17.3385H1771.93V23.7692H1756.3V29.1298H1741.34V20.0188H1734.54V17.3385H1720.95V14.1221H1708.71V22.161H1702.59V33.9544H1695.8V22.161H1684.92V11.4418H1677.44V26.4495H1652.97V11.9779H1630.54V22.6971H1618.3V28.0577H1602.67V21.0909H1597.23V24.3053H1581.59V7.15332H1567.32V15.7303H1546.24V21.625H1515.65V36.6347H1502.05V15.7303H1484.38V23.2332H1461.27V33.9544H1439V41.8086H1788.74V10.9058H1778.73Z" fill="#8BA748"/>
<path d="M1788.74 41.8088H1439V90.0484H1788.74V41.8088Z" fill="#7F4D2E"/>
<path d="M1777.37 66.6524H1788.74V61.8278H1781.45V46.8181H1762.42V55.3971H1741.34V41.8088H1733.87V53.2508H1724.35V57.5393H1712.11V53.2508H1693.76V59.6836H1676.08V41.8088H1672.68V52.1787H1651.61V63.436H1625.78V54.859H1608.78V50.0345H1603.34V66.6524H1584.31V55.9332H1574.79V63.9721H1557.8V54.859H1542.16V47.3542H1536.04V53.2508H1530.61V61.8278H1519.05V53.2508H1504.09V63.9721H1492.54V50.0345H1470.78V55.9332H1452.43V65.5803H1439V75.2274H1455.15V90.0484H1463.99V70.4028H1476.9V80.0539H1486.42V73.6192H1507.49V82.1962H1517.69V74.1552H1537.4V83.8044H1552.36V76.8356H1565.28V78.9818H1584.31V73.6192H1617.62V70.4028H1659.09V82.1962H1665.21V75.7634H1698.52V90.0484H1711.43V66.6524H1725.03V77.9097H1735.23V69.8667H1759.02V85.9486H1775.33V78.9818H1777.37V66.6524Z" fill="#945835"/>
<path d="M1775.86 50.9179H1779.22V50.7954C1778.1 50.8235 1776.98 50.8637 1775.86 50.9179Z" fill="#A37458"/>
<path d="M1755.62 35.376H1744.74V42.3428H1755.62V35.376Z" fill="#7F4D2E"/>
<path d="M1647.53 35.376H1636.65V42.3428H1647.53V35.376Z" fill="#7F4D2E"/>
<path d="M1590.43 35.376H1579.55V42.3428H1590.43V35.376Z" fill="#7F4D2E"/>
<path d="M1544.71 62.4441H1535.7V69.4129H1544.71V62.4441Z" fill="#7F4D2E"/>
<path d="M1564.94 67.8931H1555.93V74.8619H1564.94V67.8931Z" fill="#7F4D2E"/>
<path d="M1619.89 58.2461H1610.88V65.2129H1619.89V58.2461Z" fill="#7F4D2E"/>
<path d="M1610.99 68.5173H1601.98V75.4861H1610.99V68.5173Z" fill="#7F4D2E"/>
<path d="M1644.64 60.4785H1635.63V67.4453H1644.64V60.4785Z" fill="#7F4D2E"/>
<path d="M1671.83 62.4441H1662.83V69.4129H1671.83V62.4441Z" fill="#7F4D2E"/>
<path d="M1687.13 65.9275H1678.12V72.8963H1687.13V65.9275Z" fill="#7F4D2E"/>
<path d="M1708.37 56.9951H1699.37V63.9619H1708.37V56.9951Z" fill="#7F4D2E"/>
<path d="M1731.74 59.4065H1722.73V66.3733H1731.74V59.4065Z" fill="#7F4D2E"/>
<path d="M1768 56.9951H1758.99V63.9619H1768V56.9951Z" fill="#7F4D2E"/>
<path d="M1774.91 69.4128H1765.9V76.3797H1774.91V69.4128Z" fill="#7F4D2E"/>
<path d="M1753.75 65.9275H1744.74V72.8963H1753.75V65.9275Z" fill="#7F4D2E"/>
<path d="M1714.76 77.2729H1705.75V84.2398H1714.76V77.2729Z" fill="#7F4D2E"/>
<path d="M1526.7 69.4128H1517.69V76.3797H1526.7V69.4128Z" fill="#7F4D2E"/>
<path d="M1495.43 69.9148H1486.42V76.8836H1495.43V69.9148Z" fill="#7F4D2E"/>
<path d="M1479.57 55.4753H1470.56V62.4421H1479.57V55.4753Z" fill="#7F4D2E"/>
<path d="M1456 65.3916H1446.99V72.3604H1456V65.3916Z" fill="#7F4D2E"/>
<path d="M1543.52 35.376H1532.65V42.3428H1543.52V35.376Z" fill="#7F4D2E"/>
<path d="M1680.16 38.512H1669.28V45.4787H1680.16V38.512Z" fill="#7F4D2E"/>
<path d="M1715.69 38.3254H1704.82V45.2922H1715.69V38.3254Z" fill="#7F4D2E"/>
<path d="M1491.18 38.3254H1480.3V45.2922H1491.18V38.3254Z" fill="#7F4D2E"/>
<path d="M1532.64 38.8613H1521.77V45.8281H1532.64V38.8613Z" fill="#8BA748"/>
<path d="M1564.93 38.512H1554.06V45.4787H1564.93V38.512Z" fill="#8BA748"/>
<path d="M1607.42 40.335H1596.55V47.3017H1607.42V40.335Z" fill="#8BA748"/>
<path d="M1629.52 38.512H1618.64V45.4787H1629.52V38.512Z" fill="#8BA748"/>
<path d="M1669.28 40.335H1658.41V47.3017H1669.28V40.335Z" fill="#8BA748"/>
<path d="M1699.37 40.335H1688.49V47.3017H1699.37V40.335Z" fill="#8BA748"/>
<path d="M1732.68 40.335H1721.8V47.3017H1732.68V40.335Z" fill="#8BA748"/>
<path d="M1772.78 36.1812H1761.91V43.148H1772.78V36.1812Z" fill="#8BA748"/>
<path d="M1509.87 40.335H1499V47.3017H1509.87V40.335Z" fill="#8BA748"/>
<path d="M1467.39 38.3254H1456.51V45.2922H1467.39V38.3254Z" fill="#8BA748"/>
</svg>
