<svg width="831" height="625" viewBox="0 0 831 625" fill="none" xmlns="http://www.w3.org/2000/svg">
<rect x="701.748" y="183.704" width="51.4371" height="286.578" fill="#CDCDC9"/>
<rect x="51.4371" width="727.467" height="29.3926" fill="#000200"/>
<rect x="778.904" y="29.3926" width="25.7185" height="25.7185" fill="#000200"/>
<rect x="51.4371" y="598.875" width="727.467" height="25.7185" fill="#000200"/>
<rect x="778.904" y="573.156" width="25.7185" height="25.7185" fill="#000200"/>
<rect x="804.623" y="55.1111" width="25.7185" height="518.045" fill="#000200"/>
<rect x="25.7185" y="573.156" width="25.7185" height="25.7185" fill="#000200"/>
<rect y="55.1111" width="25.7185" height="518.045" fill="#000200"/>
<rect x="25.7185" y="29.3926" width="25.7185" height="25.7185" fill="#000200"/>
<rect x="128.593" y="80.8296" width="470.282" height="25.7185" fill="#020003"/>
<rect x="598.874" y="106.548" width="25.7185" height="25.7185" fill="#020003"/>
<rect x="624.593" y="132.267" width="25.7185" height="363.734" fill="#020003"/>
<rect x="598.874" y="496" width="25.7185" height="25.7185" fill="#020003"/>
<rect x="128.593" y="521.719" width="470.282" height="25.7185" fill="#020003"/>
<rect x="102.874" y="496" width="25.7185" height="25.7185" fill="#020003"/>
<rect x="77.1556" y="132.267" width="25.7185" height="363.734" fill="#020003"/>
<rect x="102.874" y="106.548" width="25.7185" height="25.7185" fill="#020003"/>
<rect x="676.03" y="183.704" width="25.7185" height="286.578" fill="#020003"/>
<rect x="753.186" y="183.704" width="25.7185" height="286.578" fill="#020003"/>
<rect x="701.748" y="470.282" width="51.4371" height="25.7185" fill="#020003"/>
<rect x="701.748" y="157.985" width="51.4371" height="25.7185" fill="#020003"/>
<rect x="701.748" y="209.422" width="25.7185" height="25.7185" fill="#020003"/>
<rect x="727.467" y="260.86" width="25.7185" height="25.7185" fill="#020003"/>
<rect x="701.748" y="315.97" width="25.7185" height="25.7185" fill="#020003"/>
<rect x="727.467" y="367.407" width="25.7185" height="25.7185" fill="#020003"/>
<rect x="701.748" y="418.845" width="25.7185" height="25.7185" fill="#020003"/>
<rect x="25.7185" y="55.1111" width="25.7185" height="518.045" fill="#8C5C3E"/>
<rect x="51.4371" y="29.3926" width="25.7185" height="569.482" fill="#7F4D2E"/>
<rect x="778.904" y="29.3926" width="25.7186" height="727.467" transform="rotate(90 778.904 29.3926)" fill="#8C5C3E"/>
<rect x="804.623" y="55.1111" width="25.7186" height="727.467" transform="rotate(90 804.623 55.1111)" fill="#7F4D2E"/>
<rect x="804.623" y="573.156" width="25.7186" height="492.326" transform="rotate(-180 804.623 573.156)" fill="#7F4D2E"/>
<rect x="679.704" y="598.875" width="29.3927" height="518.045" transform="rotate(-180 679.704 598.875)" fill="#7F4D2E"/>
<rect x="51.4371" y="598.875" width="25.7185" height="727.467" transform="rotate(-90 51.4371 598.875)" fill="#673F26"/>
<rect x="77.1556" y="573.156" width="25.7185" height="701.749" transform="rotate(-90 77.1556 573.156)" fill="#7F4D2E"/>
<rect x="624.593" y="496" width="25.7185" height="51.4371" fill="#7F4D2E"/>
<rect x="598.874" y="547.438" width="25.7185" height="51.4371" transform="rotate(-90 598.874 547.438)" fill="#7F4D2E"/>
<rect width="25.7185" height="51.4371" transform="matrix(1 0 0 -1 624.593 132.267)" fill="#7F4D2E"/>
<rect width="25.7185" height="51.4371" transform="matrix(1.19249e-08 1 1 -1.19249e-08 598.874 80.8298)" fill="#7F4D2E"/>
<rect x="102.874" y="132.267" width="25.7185" height="51.4371" transform="rotate(-180 102.874 132.267)" fill="#7F4D2E"/>
<rect x="128.593" y="80.8298" width="25.7185" height="51.4371" transform="rotate(90 128.593 80.8298)" fill="#7F4D2E"/>
<rect width="25.7185" height="51.4371" transform="matrix(-1 0 0 1 102.874 496)" fill="#7F4D2E"/>
<rect width="25.7185" height="51.4371" transform="matrix(-1.19249e-08 -1 -1 1.19249e-08 128.593 547.438)" fill="#7F4D2E"/>
<rect x="676.03" y="496" width="102.874" height="51.4371" fill="#7F4D2E"/>
<rect x="753.186" y="470.282" width="25.7185" height="25.7185" fill="#7F4D2E"/>
<rect x="679.704" y="470.282" width="22.0445" height="25.7185" fill="#7F4D2E"/>
<rect x="676.03" y="80.8296" width="102.874" height="77.1556" fill="#7F4D2E"/>
<rect x="679.704" y="157.985" width="22.0445" height="25.7185" fill="#7F4D2E"/>
<rect x="753.186" y="157.985" width="25.7185" height="25.7185" fill="#7F4D2E"/>
</svg>
