<svg width="500" height="77" viewBox="0 0 500 77" fill="none" xmlns="http://www.w3.org/2000/svg">
<rect x="492.64" y="69.1538" width="20.6164" height="60.4827" transform="rotate(-180 492.64 69.1538)" fill="#FDFF91"/>
<rect x="28.7708" y="67.4338" width="20.6164" height="55.8963" transform="rotate(-180 28.7708 67.4338)" fill="#FDFF91"/>
<rect x="484.324" y="72.186" width="471.447" height="66.3188" transform="rotate(-180 484.324 72.186)" fill="#FDFF91"/>
<path d="M496.707 9.38753L496.707 68.5803L491.352 68.5803L491.352 71.0168L483.621 71.0168L483.621 73.74L17.1739 73.7399L17.1739 71.0168L9.87222 71.0168L9.87222 68.8669L3.00012 68.8669L3.00013 8.52646L9.87223 8.52646L9.87223 6.31584L16.3149 6.31584L16.3149 2.99985L483.621 2.99989L483.621 6.52105L490.493 6.52105L490.493 9.38753L496.707 9.38753Z" stroke="#DEB200" stroke-width="5.89501"/>
<path d="M493.988 11.2201L493.988 65.6774L487.638 65.6774L487.638 67.919L480.017 67.919L480.017 70.4243L20.2336 70.4243L20.2336 67.919L13.0362 67.919L13.0362 65.9411L6.26227 65.9411L6.26227 11.0882L13.0362 11.0882L13.0362 9.11034L19.3868 9.11034L19.3868 6.86876L480.017 6.8688L480.017 8.58295L486.791 8.58295L486.791 11.2201L493.988 11.2201Z" stroke="#FFE57A" stroke-width="5.89501"/>
</svg>
