<svg width="428" height="252" viewBox="0 0 428 252" fill="none" xmlns="http://www.w3.org/2000/svg">
<rect x="56.7061" y="149.543" width="145.027" height="2.00729" fill="#6053FD" fill-opacity="0.5"/>
<rect x="56.7061" y="172.125" width="145.027" height="2.00729" fill="#6053FD" fill-opacity="0.5"/>
<rect x="201.733" y="151.551" width="2.00729" height="2.00729" fill="#6053FD" fill-opacity="0.5"/>
<rect width="2.00729" height="2.00729" transform="matrix(-1 0 0 1 56.7061 151.551)" fill="#6053FD" fill-opacity="0.5"/>
<rect width="2.00729" height="2.00729" transform="matrix(-1 0 0 1 205.748 168.111)" fill="#6053FD" fill-opacity="0.5"/>
<rect x="52.6914" y="168.111" width="2.00729" height="2.00729" fill="#6053FD" fill-opacity="0.5"/>
<rect x="203.74" y="153.558" width="2.00729" height="2.00729" fill="#6053FD" fill-opacity="0.5"/>
<rect width="2.00729" height="2.00729" transform="matrix(-1 0 0 1 54.6987 153.558)" fill="#6053FD" fill-opacity="0.5"/>
<rect width="2.00729" height="2.00729" transform="matrix(-1 0 0 1 203.74 170.118)" fill="#6053FD" fill-opacity="0.5"/>
<rect x="54.6987" y="170.118" width="2.00729" height="2.00729" fill="#6053FD" fill-opacity="0.5"/>
<rect x="205.748" y="155.565" width="2.00729" height="12.5456" fill="#6053FD" fill-opacity="0.5"/>
<rect width="2.00729" height="12.5456" transform="matrix(-1 0 0 1 52.6914 155.565)" fill="#6053FD" fill-opacity="0.5"/>
<rect x="159.078" y="74.7715" width="145.027" height="2.00729" fill="#6053FD" fill-opacity="0.5"/>
<rect x="159.078" y="97.3535" width="145.027" height="2.00729" fill="#6053FD" fill-opacity="0.5"/>
<rect x="304.105" y="76.7788" width="2.00729" height="2.00729" fill="#6053FD" fill-opacity="0.5"/>
<rect width="2.00729" height="2.00729" transform="matrix(-1 0 0 1 159.078 76.7788)" fill="#6053FD" fill-opacity="0.5"/>
<rect width="2.00729" height="2.00729" transform="matrix(-1 0 0 1 308.12 93.3391)" fill="#6053FD" fill-opacity="0.5"/>
<rect x="155.063" y="93.3391" width="2.00729" height="2.00729" fill="#6053FD" fill-opacity="0.5"/>
<rect x="306.112" y="78.7864" width="2.00729" height="2.00729" fill="#6053FD" fill-opacity="0.5"/>
<rect width="2.00729" height="2.00729" transform="matrix(-1 0 0 1 157.071 78.7864)" fill="#6053FD" fill-opacity="0.5"/>
<rect width="2.00729" height="2.00729" transform="matrix(-1 0 0 1 306.112 95.3464)" fill="#6053FD" fill-opacity="0.5"/>
<rect x="157.071" y="95.3464" width="2.00729" height="2.00729" fill="#6053FD" fill-opacity="0.5"/>
<rect x="308.12" y="80.7935" width="2.00729" height="12.5456" fill="#6053FD" fill-opacity="0.5"/>
<rect width="2.00729" height="12.5456" transform="matrix(-1 0 0 1 155.063 80.7935)" fill="#6053FD" fill-opacity="0.5"/>
<rect width="421.03" height="2.00729" transform="matrix(-1 0 0 1 427.052 0)" fill="#6053FD" fill-opacity="0.5"/>
<rect width="421.03" height="2.00729" transform="matrix(-1 0 0 1 427.052 22.5818)" fill="#6053FD" fill-opacity="0.5"/>
<rect width="2.00729" height="2.00729" transform="matrix(-1 0 0 1 6.02173 2.00732)" fill="#6053FD" fill-opacity="0.5"/>
<rect x="2.00732" y="18.5674" width="2.00729" height="2.00729" fill="#6053FD" fill-opacity="0.5"/>
<rect width="2.00729" height="2.00729" transform="matrix(-1 0 0 1 4.0144 4.01465)" fill="#6053FD" fill-opacity="0.5"/>
<rect x="4.0144" y="20.5747" width="2.00729" height="2.00729" fill="#6053FD" fill-opacity="0.5"/>
<rect width="2.00729" height="12.5456" transform="matrix(-1 0 0 1 2.00732 6.02173)" fill="#6053FD" fill-opacity="0.5"/>
<rect x="263.959" y="149.543" width="145.027" height="2.00729" fill="#6053FD" fill-opacity="0.5"/>
<rect x="263.959" y="175.136" width="47.1714" height="2.00729" fill="#6053FD" fill-opacity="0.5"/>
<rect x="331.705" y="175.136" width="77.2808" height="2.00729" fill="#6053FD" fill-opacity="0.5"/>
<rect x="408.986" y="151.551" width="2.00729" height="2.00729" fill="#6053FD" fill-opacity="0.5"/>
<rect width="2.00729" height="2.00729" transform="matrix(-1 0 0 1 263.959 151.551)" fill="#6053FD" fill-opacity="0.5"/>
<rect width="2.00729" height="2.00729" transform="matrix(-1 0 0 1 413.001 171.122)" fill="#6053FD" fill-opacity="0.5"/>
<rect x="259.945" y="171.122" width="2.00729" height="2.00729" fill="#6053FD" fill-opacity="0.5"/>
<rect x="410.993" y="153.558" width="2.00729" height="2.00729" fill="#6053FD" fill-opacity="0.5"/>
<rect width="2.00729" height="2.00729" transform="matrix(-1 0 0 1 261.952 153.558)" fill="#6053FD" fill-opacity="0.5"/>
<rect width="2.00729" height="2.00729" transform="matrix(-1 0 0 1 410.993 173.129)" fill="#6053FD" fill-opacity="0.5"/>
<rect x="261.952" y="173.129" width="2.00729" height="2.00729" fill="#6053FD" fill-opacity="0.5"/>
<rect x="413.001" y="158.576" width="2.00729" height="12.5456" fill="#6053FD" fill-opacity="0.5"/>
<rect width="2.00729" height="12.5456" transform="matrix(-1 0 0 1 259.945 158.576)" fill="#6053FD" fill-opacity="0.5"/>
<rect width="162.591" height="2.00729" transform="matrix(-1 0 0 1 311.131 227.326)" fill="#6053FD" fill-opacity="0.5"/>
<rect width="278.512" height="2.00729" transform="matrix(-1 0 0 1 427.052 249.908)" fill="#6053FD" fill-opacity="0.5"/>
<rect width="2.00729" height="2.00729" transform="matrix(-1 0 0 1 148.54 226.322)" fill="#6053FD" fill-opacity="0.5"/>
<rect x="144.525" y="242.882" width="2.00729" height="2.00729" fill="#6053FD" fill-opacity="0.5"/>
<rect width="2.00729" height="2.00729" transform="matrix(-1 0 0 1 146.532 228.33)" fill="#6053FD" fill-opacity="0.5"/>
<rect x="146.532" y="244.89" width="2.00729" height="2.00729" fill="#6053FD" fill-opacity="0.5"/>
<rect width="2.00729" height="12.5456" transform="matrix(-1 0 0 1 144.525 230.337)" fill="#6053FD" fill-opacity="0.5"/>
<rect x="309.123" y="175.136" width="2.00729" height="54.1969" fill="#6053FD" fill-opacity="0.5"/>
<rect x="331.705" y="175.136" width="2.00729" height="54.1969" fill="#6053FD" fill-opacity="0.5"/>
<rect width="95.3465" height="2.00729" transform="matrix(-1 0 0 1 427.052 227.326)" fill="#6053FD" fill-opacity="0.5"/>
<rect x="366.331" y="74.7715" width="60.7206" height="2.00729" fill="#6053FD" fill-opacity="0.5"/>
<rect x="366.331" y="97.3535" width="60.7206" height="2.00729" fill="#6053FD" fill-opacity="0.5"/>
<rect width="2.00729" height="2.00729" transform="matrix(-1 0 0 1 366.331 76.7788)" fill="#6053FD" fill-opacity="0.5"/>
<rect x="362.317" y="93.3391" width="2.00729" height="2.00729" fill="#6053FD" fill-opacity="0.5"/>
<rect width="2.00729" height="2.00729" transform="matrix(-1 0 0 1 364.324 78.7864)" fill="#6053FD" fill-opacity="0.5"/>
<rect x="364.324" y="95.3464" width="2.00729" height="2.00729" fill="#6053FD" fill-opacity="0.5"/>
<rect width="2.00729" height="12.5456" transform="matrix(-1 0 0 1 362.317 80.7935)" fill="#6053FD" fill-opacity="0.5"/>
</svg>
