<svg width="44" height="50" viewBox="0 0 44 50" fill="none" xmlns="http://www.w3.org/2000/svg">
<path d="M30.9727 0H12.3891V3.09727H6.19453V6.19453H3.09727V12.3891H0V37.1672H3.09727V43.3617H6.19453V46.459H12.3891V49.5563H30.9727V46.459H37.1672V43.3617H40.2645V37.1672H43.3617V12.3891H40.2645V6.19453H37.1672V3.09727H30.9727V0Z" fill="black"/>
<path d="M24.7785 3.09717H15.4867V6.19443H9.29219V9.2917H6.19492V15.4862H3.09766V34.0698H6.19492V40.2644H9.29219V43.3616H15.4867V46.4589H24.7785V43.3616H30.973V40.2644H34.0703V34.0698H37.1676V15.4862H34.0703V9.2917H30.973V6.19443H24.7785V3.09717Z" fill="#FCB5A8"/>
<path d="M15.4861 6.19434H30.9725V9.2916H34.0697V15.4861H37.167V34.0697H34.0697V43.3615H30.9725V46.4588H15.4861V43.3615H12.3889V40.2643H9.2916V34.0697H6.19434V15.4861H9.2916V9.2916H15.4861V6.19434Z" fill="#FC8E2E"/>
<path d="M27.8754 9.29199H24.7781V37.1674H15.4863V40.2647H27.8754V9.29199Z" fill="black"/>
<path d="M30.9727 43.3619V46.4592H24.7781V43.3619H30.9727Z" fill="black"/>
<path d="M30.9727 43.3619V40.2647H37.1672V43.3619H30.9727Z" fill="black"/>
<path d="M15.4863 9.29199V37.1674H18.5836V12.3893H24.7781V9.29199H15.4863Z" fill="#FCB5A8"/>
</svg>
