<svg width="822" height="138" viewBox="0 0 822 138" fill="none" xmlns="http://www.w3.org/2000/svg">
<rect x="810.311" y="124.701" width="33.9079" height="109.44" transform="rotate(-180 810.311 124.701)" fill="#ACD5F1"/>
<rect x="47.3847" y="121.589" width="33.9079" height="101.141" transform="rotate(-180 47.3847 121.589)" fill="#ACD5F1"/>
<rect x="796.634" y="130.188" width="775.388" height="120" transform="rotate(-180 796.634 130.188)" fill="#ACD5F1"/>
<path d="M817 16.558L817 123.664L808.192 123.664L808.192 128.073L795.477 128.073L795.477 133L28.3116 133L28.3116 128.073L16.3026 128.073L16.3026 124.182L5 124.182L5.00001 15L16.3026 15L16.3026 11L26.8989 11L26.8989 4.99992L795.477 5L795.477 11.3713L806.78 11.3713L806.78 16.558L817 16.558Z" stroke="#234992" stroke-width="8.30542"/>
<path d="M817 16.558L817 123.664L808.192 123.664L808.192 128.073L795.477 128.073L795.477 133L28.3116 133L28.3116 128.073L16.3026 128.073L16.3026 124.182L5 124.182L5.00001 15L16.3026 15L16.3026 11L26.8989 11L26.8989 4.99992L795.477 5L795.477 11.3713L806.78 11.3713L806.78 16.558L817 16.558Z" stroke="#234992" stroke-width="8.30542"/>
<path d="M812.529 19.8735L812.529 118.411L802.084 118.411L802.084 122.467L789.55 122.467L789.55 127L33.344 127L33.344 122.467L21.5065 122.467L21.5065 118.888L10.3654 118.888L10.3654 19.6348L21.5065 19.6348L21.5065 16.056L31.9514 16.056L31.9514 12L789.55 12.0001L789.55 15.1017L800.691 15.1017L800.691 19.8735L812.529 19.8735Z" stroke="#3498DB" stroke-width="8.30542"/>
<path d="M812.529 19.8735L812.529 118.411L802.084 118.411L802.084 122.467L789.55 122.467L789.55 127L33.344 127L33.344 122.467L21.5065 122.467L21.5065 118.888L10.3654 118.888L10.3654 19.6348L21.5065 19.6348L21.5065 16.056L31.9514 16.056L31.9514 12L789.55 12.0001L789.55 15.1017L800.691 15.1017L800.691 19.8735L812.529 19.8735Z" stroke="#3498DB" stroke-width="8.30542"/>
<path d="M49.7874 86.2847H46.3374V90.1703H49.7874V86.2847Z" fill="#F8D098"/>
<path d="M49.7874 82.2722H46.3374V86.1578H49.7874V82.2722Z" fill="#F8D098"/>
<path d="M49.7874 78.2598H46.3374V82.1454H49.7874V78.2598Z" fill="#F8D098"/>
<path d="M49.7874 74.2405H46.3374V78.1261H49.7874V74.2405Z" fill="#FE0000"/>
<path d="M53.2499 96.1145H49.7999V100H53.2499V96.1145Z" fill="#5C3700"/>
<path d="M56.7121 96.1145H53.2621V100H56.7121V96.1145Z" fill="#5C3700"/>
<path d="M60.1745 96.1145H56.7245V100H60.1745V96.1145Z" fill="#5C3700"/>
<path d="M63.6307 96.1145H60.1808V100H63.6307V96.1145Z" fill="#5C3700"/>
<path d="M80.9363 96.1145H77.4863V100H80.9363V96.1145Z" fill="#5C3700"/>
<path d="M84.3988 96.1145H80.9488V100H84.3988V96.1145Z" fill="#5C3700"/>
<path d="M87.8551 96.1145H84.4051V100H87.8551V96.1145Z" fill="#5C3700"/>
<path d="M91.3174 96.1145H87.8674V100H91.3174V96.1145Z" fill="#5C3700"/>
<path d="M56.7121 92.2498H53.2621V96.1354H56.7121V92.2498Z" fill="#5C3700"/>
<path d="M60.1745 92.2498H56.7245V96.1354H60.1745V92.2498Z" fill="#5C3700"/>
<path d="M63.6307 92.2498H60.1808V96.1354H63.6307V92.2498Z" fill="#5C3700"/>
<path d="M80.9363 92.2498H77.4863V96.1354H80.9363V92.2498Z" fill="#5C3700"/>
<path d="M84.3988 92.2498H80.9488V96.1354H84.3988V92.2498Z" fill="#5C3700"/>
<path d="M87.8551 92.2498H84.4051V96.1354H87.8551V92.2498Z" fill="#5C3700"/>
<path d="M60.1745 88.3845H56.7245V92.2701H60.1745V88.3845Z" fill="#0020FE"/>
<path d="M63.6307 88.3845H60.1808V92.2701H63.6307V88.3845Z" fill="#0020FE"/>
<path d="M67.0931 88.3845H63.6431V92.2701H67.0931V88.3845Z" fill="#0020FE"/>
<path d="M77.4741 88.3845H74.0242V92.2701H77.4741V88.3845Z" fill="#0020FE"/>
<path d="M80.9363 88.3845H77.4863V92.2701H80.9363V88.3845Z" fill="#0020FE"/>
<path d="M84.3988 88.3845H80.9488V92.2701H84.3988V88.3845Z" fill="#0020FE"/>
<path d="M53.2499 84.5129H49.7999V88.3985H53.2499V84.5129Z" fill="#FCBA63"/>
<path d="M56.7121 84.5129H53.2621V88.3985H56.7121V84.5129Z" fill="#FCBA63"/>
<path d="M60.1745 84.5129H56.7245V88.3985H60.1745V84.5129Z" fill="#0020FE"/>
<path d="M63.6307 84.5129H60.1808V88.3985H63.6307V84.5129Z" fill="#0020FE"/>
<path d="M67.0931 84.5129H63.6431V88.3985H67.0931V84.5129Z" fill="#0020FE"/>
<path d="M70.5555 84.5129H67.1055V88.3985H70.5555V84.5129Z" fill="#0020FE"/>
<path d="M74.0179 84.5129H70.5679V88.3985H74.0179V84.5129Z" fill="#0020FE"/>
<path d="M77.4741 84.5129H74.0242V88.3985H77.4741V84.5129Z" fill="#0020FE"/>
<path d="M80.9363 84.5129H77.4863V88.3985H80.9363V84.5129Z" fill="#0020FE"/>
<path d="M84.3988 84.5129H80.9488V88.3985H84.3988V84.5129Z" fill="#0020FE"/>
<path d="M87.8551 84.5129H84.4051V88.3985H87.8551V84.5129Z" fill="#FCBA63"/>
<path d="M91.3174 84.5129H87.8674V88.3985H91.3174V84.5129Z" fill="#FCBA63"/>
<path d="M94.7797 84.5129H91.3297V88.3985H94.7797V84.5129Z" fill="#FCBA63"/>
<path d="M53.2499 80.6482H49.7999V84.5338H53.2499V80.6482Z" fill="#FCBA63"/>
<path d="M56.7121 80.6482H53.2621V84.5338H56.7121V80.6482Z" fill="#FCBA63"/>
<path d="M60.1745 80.6482H56.7245V84.5338H60.1745V80.6482Z" fill="#FCBA63"/>
<path d="M63.6307 80.6482H60.1808V84.5338H63.6307V80.6482Z" fill="#0020FE"/>
<path d="M67.0931 80.6482H63.6431V84.5338H67.0931V80.6482Z" fill="#0020FE"/>
<path d="M70.5555 80.6482H67.1055V84.5338H70.5555V80.6482Z" fill="#0020FE"/>
<path d="M74.0179 80.6482H70.5679V84.5338H74.0179V80.6482Z" fill="#0020FE"/>
<path d="M77.4741 80.6482H74.0242V84.5338H77.4741V80.6482Z" fill="#0020FE"/>
<path d="M80.9363 80.6482H77.4863V84.5338H80.9363V80.6482Z" fill="#0020FE"/>
<path d="M84.3988 80.6482H80.9488V84.5338H84.3988V80.6482Z" fill="#FCBA63"/>
<path d="M87.8551 80.6482H84.4051V84.5338H87.8551V80.6482Z" fill="#FCBA63"/>
<path d="M91.3174 80.6482H87.8674V84.5338H91.3174V80.6482Z" fill="#FCBA63"/>
<path d="M94.7797 80.6482H91.3297V84.5338H94.7797V80.6482Z" fill="#FCBA63"/>
<path d="M53.2499 76.7832H49.7999V80.6688H53.2499V76.7832Z" fill="#FCBA63"/>
<path d="M56.7121 76.7832H53.2621V80.6688H56.7121V76.7832Z" fill="#FCBA63"/>
<path d="M60.1745 76.7832H56.7245V80.6688H60.1745V76.7832Z" fill="#FE0000"/>
<path d="M63.6307 76.7832H60.1808V80.6688H63.6307V76.7832Z" fill="#0020FE"/>
<path d="M67.0931 76.7832H63.6431V80.6688H67.0931V76.7832Z" fill="#EDFE00"/>
<path d="M70.5555 76.7832H67.1055V80.6688H70.5555V76.7832Z" fill="#0020FE"/>
<path d="M74.0179 76.7832H70.5679V80.6688H74.0179V76.7832Z" fill="#0020FE"/>
<path d="M77.4741 76.7832H74.0242V80.6688H77.4741V76.7832Z" fill="#EDFE00"/>
<path d="M80.9363 76.7832H77.4863V80.6688H80.9363V76.7832Z" fill="#0020FE"/>
<path d="M84.3988 76.7832H80.9488V80.6688H84.3988V76.7832Z" fill="#FE0000"/>
<path d="M87.8551 76.7832H84.4051V80.6688H87.8551V76.7832Z" fill="#FCBA63"/>
<path d="M91.3174 76.7832H87.8674V80.6688H91.3174V76.7832Z" fill="#FCBA63"/>
<path d="M94.7797 76.7832H91.3297V80.6688H94.7797V76.7832Z" fill="#FCBA63"/>
<path d="M53.2499 72.9116H49.7999V76.7972H53.2499V72.9116Z" fill="#FE0000"/>
<path d="M56.7121 72.9116H53.2621V76.7972H56.7121V72.9116Z" fill="#FE0000"/>
<path d="M60.1745 72.9116H56.7245V76.7972H60.1745V72.9116Z" fill="#FE0000"/>
<path d="M63.6307 72.9116H60.1808V76.7972H63.6307V72.9116Z" fill="#FE0000"/>
<path d="M67.0931 72.9116H63.6431V76.7972H67.0931V72.9116Z" fill="#0020FE"/>
<path d="M70.5555 72.9116H67.1055V76.7972H70.5555V72.9116Z" fill="#0020FE"/>
<path d="M74.0179 72.9116H70.5679V76.7972H74.0179V72.9116Z" fill="#0020FE"/>
<path d="M77.4741 72.9116H74.0242V76.7972H77.4741V72.9116Z" fill="#0020FE"/>
<path d="M80.9363 72.9116H77.4863V76.7972H80.9363V72.9116Z" fill="#FE0000"/>
<path d="M84.3988 72.9116H80.9488V76.7972H84.3988V72.9116Z" fill="#FE0000"/>
<path d="M87.8551 72.9116H84.4051V76.7972H87.8551V72.9116Z" fill="#FE0000"/>
<path d="M91.3174 72.9116H87.8674V76.7972H91.3174V72.9116Z" fill="#FE0000"/>
<path d="M94.7797 72.9116H91.3297V76.7972H94.7797V72.9116Z" fill="#FE0000"/>
<path d="M53.2499 69.0471H49.7999V72.9327H53.2499V69.0471Z" fill="#FE0000"/>
<path d="M56.7121 69.0471H53.2621V72.9327H56.7121V69.0471Z" fill="#FE0000"/>
<path d="M60.1745 69.0471H56.7245V72.9327H60.1745V69.0471Z" fill="#FE0000"/>
<path d="M63.6307 69.0471H60.1808V72.9327H63.6307V69.0471Z" fill="#FE0000"/>
<path d="M67.0931 69.0471H63.6431V72.9327H67.0931V69.0471Z" fill="#0020FE"/>
<path d="M70.5555 69.0471H67.1055V72.9327H70.5555V69.0471Z" fill="#FE0000"/>
<path d="M74.0179 69.0471H70.5679V72.9327H74.0179V69.0471Z" fill="#FE0000"/>
<path d="M77.4741 69.0471H74.0242V72.9327H77.4741V69.0471Z" fill="#0020FE"/>
<path d="M80.9363 69.0471H77.4863V72.9327H80.9363V69.0471Z" fill="#FE0000"/>
<path d="M84.3988 69.0471H80.9488V72.9327H84.3988V69.0471Z" fill="#FE0000"/>
<path d="M87.8551 69.0471H84.4051V72.9327H87.8551V69.0471Z" fill="#FE0000"/>
<path d="M91.3174 69.0471H87.8674V72.9327H91.3174V69.0471Z" fill="#FE0000"/>
<path d="M56.7121 65.1753H53.2621V69.0609H56.7121V65.1753Z" fill="#FE0000"/>
<path d="M60.1745 65.1753H56.7245V69.0609H60.1745V65.1753Z" fill="#FE0000"/>
<path d="M63.6307 65.1753H60.1808V69.0609H63.6307V65.1753Z" fill="#FE0000"/>
<path d="M67.0931 65.1753H63.6431V69.0609H67.0931V65.1753Z" fill="#0020FE"/>
<path d="M70.5555 65.1753H67.1055V69.0609H70.5555V65.1753Z" fill="#FE0000"/>
<path d="M74.0179 65.1753H70.5679V69.0609H74.0179V65.1753Z" fill="#FE0000"/>
<path d="M77.4741 65.1753H74.0242V69.0609H77.4741V65.1753Z" fill="#0020FE"/>
<path d="M63.6307 61.3105H60.1808V65.1962H63.6307V61.3105Z" fill="#FCBA63"/>
<path d="M67.0931 61.3105H63.6431V65.1962H67.0931V61.3105Z" fill="#FCBA63"/>
<path d="M70.5555 61.3105H67.1055V65.1962H70.5555V61.3105Z" fill="#FCBA63"/>
<path d="M74.0179 61.3105H70.5679V65.1962H74.0179V61.3105Z" fill="#FCBA63"/>
<path d="M77.4741 61.3105H74.0242V65.1962H77.4741V61.3105Z" fill="#FCBA63"/>
<path d="M80.9363 61.3105H77.4863V65.1962H80.9363V61.3105Z" fill="#FCBA63"/>
<path d="M84.3988 61.3105H80.9488V65.1962H84.3988V61.3105Z" fill="#FCBA63"/>
<path d="M56.7121 57.4458H53.2621V61.3314H56.7121V57.4458Z" fill="#4D3605"/>
<path d="M60.1745 57.4458H56.7245V61.3314H60.1745V57.4458Z" fill="#4D3605"/>
<path d="M63.6307 57.4458H60.1808V61.3314H63.6307V57.4458Z" fill="#FCBA63"/>
<path d="M67.0931 57.4458H63.6431V61.3314H67.0931V57.4458Z" fill="#FCBA63"/>
<path d="M70.5555 57.4458H67.1055V61.3314H70.5555V57.4458Z" fill="#FCBA63"/>
<path d="M74.0179 57.4458H70.5679V61.3314H74.0179V57.4458Z" fill="#FCBA63"/>
<path d="M77.4741 57.4458H74.0242V61.3314H77.4741V57.4458Z" fill="black"/>
<path d="M80.9363 57.4458H77.4863V61.3314H80.9363V57.4458Z" fill="black"/>
<path d="M84.3988 57.4458H80.9488V61.3314H84.3988V57.4458Z" fill="black"/>
<path d="M87.8551 57.4458H84.4051V61.3314H87.8551V57.4458Z" fill="black"/>
<path d="M56.7121 53.574H53.2621V57.4596H56.7121V53.574Z" fill="#4D3605"/>
<path d="M60.1745 53.574H56.7245V57.4596H60.1745V53.574Z" fill="#FCBA63"/>
<path d="M63.6307 53.574H60.1808V57.4596H63.6307V53.574Z" fill="#4D3605"/>
<path d="M67.0931 53.574H63.6431V57.4596H67.0931V53.574Z" fill="#4D3605"/>
<path d="M70.5555 53.574H67.1055V57.4596H70.5555V53.574Z" fill="#FCBA63"/>
<path d="M74.0179 53.574H70.5679V57.4596H74.0179V53.574Z" fill="#FCBA63"/>
<path d="M77.4741 53.574H74.0242V57.4596H77.4741V53.574Z" fill="#FCBA63"/>
<path d="M80.9363 53.574H77.4863V57.4596H80.9363V53.574Z" fill="black"/>
<path d="M84.3988 53.574H80.9488V57.4596H84.3988V53.574Z" fill="#FCBA63"/>
<path d="M87.8551 53.574H84.4051V57.4596H87.8551V53.574Z" fill="#FCBA63"/>
<path d="M91.3174 53.574H87.8674V57.4596H91.3174V53.574Z" fill="#FCBA63"/>
<path d="M56.7121 49.709H53.2621V53.5946H56.7121V49.709Z" fill="#4D3605"/>
<path d="M60.1745 49.709H56.7245V53.5946H60.1745V49.709Z" fill="#FCBA63"/>
<path d="M63.6307 49.709H60.1808V53.5946H63.6307V49.709Z" fill="#4D3605"/>
<path d="M67.0931 49.709H63.6431V53.5946H67.0931V49.709Z" fill="#FCBA63"/>
<path d="M70.5555 49.709H67.1055V53.5946H70.5555V49.709Z" fill="#FCBA63"/>
<path d="M74.0179 49.709H70.5679V53.5946H74.0179V49.709Z" fill="#FCBA63"/>
<path d="M77.4741 49.709H74.0242V53.5946H77.4741V49.709Z" fill="black"/>
<path d="M80.9363 49.709H77.4863V53.5946H80.9363V49.709Z" fill="#FCBA63"/>
<path d="M84.3988 49.709H80.9488V53.5946H84.3988V49.709Z" fill="#FCBA63"/>
<path d="M87.8551 49.709H84.4051V53.5946H87.8551V49.709Z" fill="#FCBA63"/>
<path d="M60.1745 45.8442H56.7245V49.7298H60.1745V45.8442Z" fill="#4D3605"/>
<path d="M63.6307 45.8442H60.1808V49.7298H63.6307V45.8442Z" fill="#4D3605"/>
<path d="M67.0931 45.8442H63.6431V49.7298H67.0931V45.8442Z" fill="#4D3605"/>
<path d="M70.5555 45.8442H67.1055V49.7298H70.5555V45.8442Z" fill="#FCBA63"/>
<path d="M74.0179 45.8442H70.5679V49.7298H74.0179V45.8442Z" fill="#FCBA63"/>
<path d="M77.4741 45.8442H74.0242V49.7298H77.4741V45.8442Z" fill="black"/>
<path d="M80.9363 45.8442H77.4863V49.7298H80.9363V45.8442Z" fill="#FCBA63"/>
<path d="M60.1745 41.9727H56.7245V45.8583H60.1745V41.9727Z" fill="#FE0000"/>
<path d="M63.6307 41.9727H60.1808V45.8583H63.6307V41.9727Z" fill="#FE0000"/>
<path d="M67.0931 41.9727H63.6431V45.8583H67.0931V41.9727Z" fill="#FE0000"/>
<path d="M70.5555 41.9727H67.1055V45.8583H70.5555V41.9727Z" fill="#FE0000"/>
<path d="M74.0179 41.9727H70.5679V45.8583H74.0179V41.9727Z" fill="#FE0000"/>
<path d="M77.4741 41.9727H74.0242V45.8583H77.4741V41.9727Z" fill="#FE0000"/>
<path d="M80.9363 41.9727H77.4863V45.8583H80.9363V41.9727Z" fill="#FE0000"/>
<path d="M84.3988 41.9727H80.9488V45.8583H84.3988V41.9727Z" fill="#FE0000"/>
<path d="M87.8551 41.9727H84.4051V45.8583H87.8551V41.9727Z" fill="#FE0000"/>
<path d="M63.6307 38.1079H60.1808V41.9935H63.6307V38.1079Z" fill="#FE0000"/>
<path d="M67.0931 38.1079H63.6431V41.9935H67.0931V38.1079Z" fill="#FE0000"/>
<path d="M70.5555 38.1079H67.1055V41.9935H70.5555V38.1079Z" fill="#FE0000"/>
<path d="M74.0179 38.1079H70.5679V41.9935H74.0179V38.1079Z" fill="#FE0000"/>
<path d="M77.4741 38.1079H74.0242V41.9935H77.4741V38.1079Z" fill="#FE0000"/>
</svg>
