<svg width="1920" height="1453" viewBox="0 0 1920 1453" fill="none" xmlns="http://www.w3.org/2000/svg">
<rect width="1920" height="384" fill="#568EF9"/>
<path d="M480 739V355H476.537V371.485H470.074V355H459.634V365.802H442.731V382.287H427.817V355H415.885V370.919H399.48V355H388.046V369.781H374.127V355H357.722V361.822H334.854V355H320.934V374.899H307.511V355H297.07V365.802H277.684V378.876H259.289V360.686H246.861V370.349H235.923V358.981H220.512V372.624H197.644V355H179.251V363.527H163.84V355H149.921V362.961H129.04V377.169H115.617V355H103.687V366.94H86.7838V355H78.3333V362.392H52.4818V380.582H40.5499V355H22.6531V365.233H0V739H480Z" fill="#5D95FD"/>
<path d="M960 739V355H956.537V371.485H950.074V355H939.634V365.802H922.731V382.287H907.817V355H895.885V370.919H879.48V355H868.046V369.781H854.127V355H837.722V361.822H814.854V355H800.934V374.899H787.511V355H777.07V365.802H757.684V378.876H739.289V360.686H726.861V370.349H715.923V358.981H700.512V372.624H677.644V355H659.251V363.527H643.84V355H629.921V362.961H609.04V377.169H595.617V355H583.687V366.94H566.784V355H558.333V362.392H532.482V380.582H520.55V355H502.653V365.233H480V739H960Z" fill="#5D95FD"/>
<path d="M1440 739V355H1436.54V371.485H1430.07V355H1419.63V365.802H1402.73V382.287H1387.82V355H1375.89V370.919H1359.48V355H1348.05V369.781H1334.13V355H1317.72V361.822H1294.85V355H1280.93V374.899H1267.51V355H1257.07V365.802H1237.68V378.876H1219.29V360.686H1206.86V370.349H1195.92V358.981H1180.51V372.624H1157.64V355H1139.25V363.527H1123.84V355H1109.92V362.961H1089.04V377.169H1075.62V355H1063.69V366.94H1046.78V355H1038.33V362.392H1012.48V380.582H1000.55V355H982.653V365.233H960V739H1440Z" fill="#5D95FD"/>
<path d="M1920 739V355H1916.54V371.485H1910.07V355H1899.63V365.802H1882.73V382.287H1867.82V355H1855.89V370.919H1839.48V355H1828.05V369.781H1814.13V355H1797.72V361.822H1774.85V355H1760.93V374.899H1747.51V355H1737.07V365.802H1717.68V378.876H1699.29V360.686H1686.86V370.349H1675.92V358.981H1660.51V372.624H1637.64V355H1619.25V363.527H1603.84V355H1589.92V362.961H1569.04V377.169H1555.62V355H1543.69V366.94H1526.78V355H1518.33V362.392H1492.48V380.582H1480.55V355H1462.65V365.233H1440V739H1920Z" fill="#5D95FD"/>
<path d="M480 1096V712H476.537V728.485H470.074V712H459.634V722.802H442.731V739.287H427.817V712H415.885V727.919H399.48V712H388.046V726.781H374.127V712H357.722V718.822H334.854V712H320.934V731.899H307.511V712H297.07V722.802H277.684V735.876H259.289V717.686H246.861V727.349H235.923V715.981H220.512V729.624H197.644V712H179.251V720.527H163.84V712H149.921V719.961H129.04V734.169H115.617V712H103.687V723.94H86.7838V712H78.3333V719.392H52.4818V737.582H40.5499V712H22.6531V722.233H0V1096H480Z" fill="#70A2FF"/>
<path d="M960 1096V712H956.537V728.485H950.074V712H939.634V722.802H922.731V739.287H907.817V712H895.885V727.919H879.48V712H868.046V726.781H854.127V712H837.722V718.822H814.854V712H800.934V731.899H787.511V712H777.07V722.802H757.684V735.876H739.289V717.686H726.861V727.349H715.923V715.981H700.512V729.624H677.644V712H659.251V720.527H643.84V712H629.921V719.961H609.04V734.169H595.617V712H583.687V723.94H566.784V712H558.333V719.392H532.482V737.582H520.55V712H502.653V722.233H480V1096H960Z" fill="#70A2FF"/>
<path d="M1440 1096V712H1436.54V728.485H1430.07V712H1419.63V722.802H1402.73V739.287H1387.82V712H1375.89V727.919H1359.48V712H1348.05V726.781H1334.13V712H1317.72V718.822H1294.85V712H1280.93V731.899H1267.51V712H1257.07V722.802H1237.68V735.876H1219.29V717.686H1206.86V727.349H1195.92V715.981H1180.51V729.624H1157.64V712H1139.25V720.527H1123.84V712H1109.92V719.961H1089.04V734.169H1075.62V712H1063.69V723.94H1046.78V712H1038.33V719.392H1012.48V737.582H1000.55V712H982.653V722.233H960V1096H1440Z" fill="#70A2FF"/>
<path d="M1920 1096V712H1916.54V728.485H1910.07V712H1899.63V722.802H1882.73V739.287H1867.82V712H1855.89V727.919H1839.48V712H1828.05V726.781H1814.13V712H1797.72V718.822H1774.85V712H1760.93V731.899H1747.51V712H1737.07V722.802H1717.68V735.876H1699.29V717.686H1686.86V727.349H1675.92V715.981H1660.51V729.624H1637.64V712H1619.25V720.527H1603.84V712H1589.92V719.961H1569.04V734.169H1555.62V712H1543.69V723.94H1526.78V712H1518.33V719.392H1492.48V737.582H1480.55V712H1462.65V722.233H1440V1096H1920Z" fill="#70A2FF"/>
<path d="M480 1453V1069H476.537V1085.49H470.074V1069H459.634V1079.8H442.731V1096.29H427.817V1069H415.885V1084.92H399.48V1069H388.046V1083.78H374.127V1069H357.722V1075.82H334.854V1069H320.934V1088.9H307.511V1069H297.07V1079.8H277.684V1092.88H259.289V1074.69H246.861V1084.35H235.923V1072.98H220.512V1086.62H197.644V1069H179.251V1077.53H163.84V1069H149.921V1076.96H129.04V1091.17H115.617V1069H103.687V1080.94H86.7838V1069H78.3333V1076.39H52.4818V1094.58H40.5499V1069H22.6531V1079.23H0V1453H480Z" fill="#82AEFF"/>
<path d="M960 1453V1069H956.537V1085.49H950.074V1069H939.634V1079.8H922.731V1096.29H907.817V1069H895.885V1084.92H879.48V1069H868.046V1083.78H854.127V1069H837.722V1075.82H814.854V1069H800.934V1088.9H787.511V1069H777.07V1079.8H757.684V1092.88H739.289V1074.69H726.861V1084.35H715.923V1072.98H700.512V1086.62H677.644V1069H659.251V1077.53H643.84V1069H629.921V1076.96H609.04V1091.17H595.617V1069H583.687V1080.94H566.784V1069H558.333V1076.39H532.482V1094.58H520.55V1069H502.653V1079.23H480V1453H960Z" fill="#82AEFF"/>
<path d="M1440 1453V1069H1436.54V1085.49H1430.07V1069H1419.63V1079.8H1402.73V1096.29H1387.82V1069H1375.89V1084.92H1359.48V1069H1348.05V1083.78H1334.13V1069H1317.72V1075.82H1294.85V1069H1280.93V1088.9H1267.51V1069H1257.07V1079.8H1237.68V1092.88H1219.29V1074.69H1206.86V1084.35H1195.92V1072.98H1180.51V1086.62H1157.64V1069H1139.25V1077.53H1123.84V1069H1109.92V1076.96H1089.04V1091.17H1075.62V1069H1063.69V1080.94H1046.78V1069H1038.33V1076.39H1012.48V1094.58H1000.55V1069H982.653V1079.23H960V1453H1440Z" fill="#82AEFF"/>
<path d="M1920 1453V1069H1916.54V1085.49H1910.07V1069H1899.63V1079.8H1882.73V1096.29H1867.82V1069H1855.89V1084.92H1839.48V1069H1828.05V1083.78H1814.13V1069H1797.72V1075.82H1774.85V1069H1760.93V1088.9H1747.51V1069H1737.07V1079.8H1717.68V1092.88H1699.29V1074.69H1686.86V1084.35H1675.92V1072.98H1660.51V1086.62H1637.64V1069H1619.25V1077.53H1603.84V1069H1589.92V1076.96H1569.04V1091.17H1555.62V1069H1543.69V1080.94H1526.78V1069H1518.33V1076.39H1492.48V1094.58H1480.55V1069H1462.65V1079.23H1440V1453H1920Z" fill="#82AEFF"/>
</svg>
