<svg width="281" height="65" viewBox="0 0 281 65" fill="none" xmlns="http://www.w3.org/2000/svg">
<rect x="4.57715" y="4.57642" width="271.847" height="54.9186" fill="white"/>
<rect x="4.57715" y="2.28833" width="271.847" height="2.28828" fill="#2C2395"/>
<rect x="4.57715" width="271.847" height="2.28828" fill="white"/>
<rect x="6.86426" y="59.4951" width="267.271" height="2.28828" fill="#2C2395"/>
<rect x="6.86426" y="61.7834" width="267.271" height="2.28828" fill="white"/>
<rect x="6.86426" y="48.9692" width="267.271" height="2.28828" fill="#4E5DC6"/>
<rect x="6.86426" y="51.2576" width="267.271" height="8.2378" fill="#192051"/>
<rect x="2.28809" y="4.57642" width="2.28828" height="52.6304" fill="#2C2395"/>
<rect y="4.57642" width="2.28828" height="52.6304" fill="white"/>
<rect x="276.424" y="4.57642" width="2.28828" height="52.6304" fill="#2C2395"/>
<rect x="278.712" y="4.57642" width="2.28828" height="52.6304" fill="white"/>
<rect x="4.57715" y="46.6807" width="2.28828" height="2.28828" fill="#4E5DC6"/>
<rect x="4.57715" y="57.2068" width="2.28828" height="2.28828" fill="#2C2395"/>
<rect x="2.28809" y="57.2068" width="2.28828" height="2.28828" fill="white"/>
<rect x="4.57715" y="59.4951" width="2.28828" height="2.28828" fill="white"/>
<rect x="4.57715" y="48.9692" width="2.28828" height="8.2378" fill="#192051"/>
<rect x="274.136" y="46.6807" width="2.28828" height="2.28828" fill="#4E5DC6"/>
<rect x="274.136" y="57.2068" width="2.28828" height="2.28828" fill="#2C2395"/>
<rect x="276.424" y="57.2068" width="2.28828" height="2.28828" fill="white"/>
<rect x="274.136" y="59.4951" width="2.28828" height="2.28828" fill="white"/>
<rect x="274.136" y="48.9692" width="2.28828" height="8.2378" fill="#192051"/>
<rect x="2.28809" y="2.28833" width="2.28828" height="2.28828" fill="white"/>
<rect x="276.424" y="2.28833" width="2.28828" height="2.28828" fill="white"/>
<path d="M104.433 19.2773H106.193V21.0205V22.7637H104.433H102.689V21.0205H100.946H99.186H97.4429H95.6997V22.7637V24.5239H97.4429H99.186H100.946H102.689H104.433V26.2671H106.193V28.0103V29.7705V31.5137V33.2568H104.433V35.0171H102.689H100.946H99.186H97.4429H95.6997H93.9395V33.2568H92.1963V31.5137V29.7705H93.9395H95.6997V31.5137H97.4429H99.186H100.946H102.689V29.7705V28.0103H100.946H99.186H97.4429H95.6997V26.2671H93.9395V24.5239H92.1963V22.7637V21.0205V19.2773H93.9395V17.5171H95.6997H97.4429H99.186H100.946H102.689H104.433V19.2773ZM120.839 17.5171H122.599V19.2773V21.0205V22.7637V24.5239V26.2671V28.0103V29.7705V31.5137V33.2739H120.839V35.0171H119.096H117.335H115.592H113.849H112.089H110.346V33.2739H108.603V31.5137V29.7705V28.0103V26.2671V24.5239V22.7637V21.0205V19.2773V17.5171H110.346H112.089V19.2773V21.0205V22.7637V24.5239V26.2671V28.0103V29.7705V31.5137H113.849H115.592H117.335H119.096V29.7705V28.0103V26.2671V24.5239V22.7637V21.0205V19.2773V17.5171H120.839ZM137.262 19.2603H139.005V21.0034V22.7637V24.5068H137.262V26.25H139.005V28.0103V29.7534V31.4966V33.2568H137.262V35H135.519H133.759H132.016H130.255H128.512H126.769H125.009V33.2568V31.4966V29.7534V28.0103V26.25V24.5068V22.7637V21.0034V19.2603V17.5H126.769H128.512H130.255H132.016H133.759H135.519H137.262V19.2603ZM135.519 29.7534V28.0103H133.759H132.016H130.255H128.512V29.7534V31.4966H130.255H132.016H133.759H135.519V29.7534ZM133.759 24.5068H135.519V22.7637V21.0034H133.759H132.016H130.255H128.512V22.7637V24.5068H130.255H132.016H133.759ZM153.651 17.5171H155.395V19.2773V21.0205V22.7637V24.5239V26.2671V28.0103V29.7705V31.5137V33.2739V35.0171H153.651H151.908V33.2739V31.5137V29.7705V28.0103V26.2671V24.5239V22.7637H150.148V24.5239V26.2671V28.0103V29.7705V31.5137V33.2739H148.405H146.662V31.5137V29.7705V28.0103V26.2671V24.5239V22.7637H144.901V24.5239V26.2671V28.0103V29.7705V31.5137V33.2739V35.0171H143.158H141.415V33.2739V31.5137V29.7705V28.0103V26.2671V24.5239V22.7637V21.0205V19.2773V17.5171H143.158H144.901V19.2773H146.662V21.0205H148.405H150.148V19.2773H151.908V17.5171H153.651ZM170.041 17.5V19.5679V21.0034H168.28H166.537V22.7637V24.5068V26.25V28.0103V29.7534V31.4966H168.28H170.041V35H168.28H166.537H164.794H163.034H161.291H159.53V31.4966H161.291H163.034V29.7534V28.0103V26.25V24.5068V22.7637V21.0034H161.291H159.53V17.5H161.291H163.034H164.794H166.537H168.28H170.041ZM170.041 17.5H171.784V19.2603V21.0034H170.041H168.28H166.537H164.794H163.034H161.291H159.547H157.787V19.2603V17.5H159.547H161.291H163.034H164.794H166.537H168.28H170.041ZM170.041 31.5137H171.784V33.2568V35H170.041H168.28H166.537H164.794H163.034H161.291H159.547H157.787V33.2568V31.5137H159.547H161.291H163.034H164.794H166.537H168.28H170.041ZM186.43 17.5171H188.19V19.2773V21.0205V22.7637H186.43V21.0205H184.687H182.943V22.7637V24.5239V26.2671V28.0103V29.7705V31.5137V33.2568V35.0171H181.183H179.44V33.2568V31.5137V29.7705V28.0103V26.2671V24.5239V22.7637V21.0205H177.68H175.937V22.7637H174.193V21.0205V19.2773V17.5171H175.937H177.68H179.44H181.183H182.943H184.687H186.43Z" fill="#192051"/>
</svg>
