<svg width="126" height="29" viewBox="0 0 126 29" fill="none" xmlns="http://www.w3.org/2000/svg">
<path d="M0 29V22.04H4.35V21.17H6.09V20.3H5.22V18.57H4.35V17.7H3.48V16.83H2.61V15.09H1.74V14.22H0.87V13.35H1.74V11.61H2.61V9.87H3.48V9H4.35V7.26H5.22V5.52H6.09V4.65H12.17V3.78H18.26V8.13H19.13V12.48H13.04V13.35H13.91V15.09H14.78V15.96H15.65V16.83H16.52V17.7H17.39V19.43H18.26V20.3H19.13V21.17H18.26V22.91H17.39V24.65H16.52V26.39H15.65V28.13H14.78V29H0ZM26.52 29V28.13H25.65V27.26H24.78V26.39H23.91V25.52H23.04V24.65H22.17V23.78H21.3V22.91H20.43V22.04H19.56V1.17H29.13V9.87H28.26V17.7H29.99V16.83H32.6V3.78H35.21V2.91H38.69V2.04H41.3V22.91H40.43V24.65H39.56V25.52H38.69V26.39H37.82V28.13H36.95V29H26.52ZM53.0177 22.91V22.04H55.6277V19.43H54.7577V18.57H52.1477V19.43H50.4177V22.04H51.2877V22.91H53.0177ZM50.4177 15.09V14.22H52.1477V13.35H53.8877V10.74H48.6777V12.48H49.5477V15.09H50.4177ZM46.0677 29V26.39H45.1977V22.04H44.3277V17.7H43.4577V12.48H42.5877V8.13H41.7177V5.52H45.1977V4.65H50.4177V3.78H53.8877V4.65H55.6277V5.52H57.3677V6.39H58.2377V7.26H59.9777V8.13H61.7177V9H62.5877V11.61H61.7177V15.09H60.8477V16.83H61.7177V17.7H62.5877V19.43H63.4577V20.3H64.3277V21.17H65.1977V22.04H64.3277V22.91H63.4577V23.78H62.5877V24.65H61.7177V25.52H60.8477V26.39H59.9777V27.26H59.1077V28.13H58.2377V29H46.0677ZM65.6136 29V22.04H66.4836V16.83H67.3536V11.61H68.2236V6.39H69.0936V2.91H76.0436V4.65H76.9136V7.26H77.7836V4.65H78.6536V2.91H82.1336V3.78H86.4836V7.26H87.3536V10.74H88.2236V14.22H89.0936V18.57H89.9636V22.04H90.8336V23.78H91.7036V24.65H90.8336V25.52H89.9636V26.39H88.2236V27.26H86.4836V28.13H84.7436V25.52H83.8736V22.04H83.0036V18.57H82.1336V15.09H81.2636V17.7H80.3936V20.3H79.5236V22.91H78.6536V25.52H77.7836V26.39H76.9136V25.52H76.0436V22.91H75.1836V20.3H74.3136V29H65.6136ZM92.1267 29V3.78H98.2167V9.87H99.0867V16.83H99.9567V23.78H100.827V29H92.1267ZM109.938 29V8.13H101.238V0.299999H122.108V1.17H122.978V2.04H123.848V2.91H124.718V3.78H125.588V8.13H118.628V11.61H117.758V18.57H116.888V25.52H116.018V29H109.938Z" fill="white"/>
<path d="M0 29H-5V34H0V29ZM0 22.04V17.04H-5V22.04H0ZM4.35 22.04V27.04H9.35V22.04H4.35ZM4.35 21.17V16.17H-0.65V21.17H4.35ZM6.09 21.17V26.17H11.09V21.17H6.09ZM6.09 20.3H11.09V15.3H6.09V20.3ZM5.22 20.3H0.22V25.3H5.22V20.3ZM5.22 18.57H10.22V13.57H5.22V18.57ZM4.35 18.57H-0.65V23.57H4.35V18.57ZM4.35 17.7H9.35V12.7H4.35V17.7ZM3.48 17.7H-1.52V22.7H3.48V17.7ZM3.48 16.83H8.48V11.83H3.48V16.83ZM2.61 16.83H-2.39V21.83H2.61V16.83ZM2.61 15.09H7.61V10.09H2.61V15.09ZM1.74 15.09H-3.26V20.09H1.74V15.09ZM1.74 14.22H6.74V9.22H1.74V14.22ZM0.87 14.22H-4.13V19.22H0.87V14.22ZM0.87 13.35V8.35H-4.13V13.35H0.87ZM1.74 13.35V18.35H6.74V13.35H1.74ZM1.74 11.61V6.61H-3.26V11.61H1.74ZM2.61 11.61V16.61H7.61V11.61H2.61ZM2.61 9.87V4.87H-2.39V9.87H2.61ZM3.48 9.87V14.87H8.48V9.87H3.48ZM3.48 9V4H-1.52V9H3.48ZM4.35 9V14H9.35V9H4.35ZM4.35 7.26V2.26H-0.65V7.26H4.35ZM5.22 7.26V12.26H10.22V7.26H5.22ZM5.22 5.52V0.52H0.22V5.52H5.22ZM6.09 5.52V10.52H11.09V5.52H6.09ZM6.09 4.65V-0.350002H1.09V4.65H6.09ZM12.17 4.65V9.65H17.17V4.65H12.17ZM12.17 3.78V-1.22H7.17V3.78H12.17ZM18.26 3.78H23.26V-1.22H18.26V3.78ZM18.26 8.13H13.26V13.13H18.26V8.13ZM19.13 8.13H24.13V3.13H19.13V8.13ZM19.13 12.48V17.48H24.13V12.48H19.13ZM13.04 12.48V7.48H8.04V12.48H13.04ZM13.04 13.35H8.04V18.35H13.04V13.35ZM13.91 13.35H18.91V8.35H13.91V13.35ZM13.91 15.09H8.91V20.09H13.91V15.09ZM14.78 15.09H19.78V10.09H14.78V15.09ZM14.78 15.96H9.78V20.96H14.78V15.96ZM15.65 15.96H20.65V10.96H15.65V15.96ZM15.65 16.83H10.65V21.83H15.65V16.83ZM16.52 16.83H21.52V11.83H16.52V16.83ZM16.52 17.7H11.52V22.7H16.52V17.7ZM17.39 17.7H22.39V12.7H17.39V17.7ZM17.39 19.43H12.39V24.43H17.39V19.43ZM18.26 19.43H23.26V14.43H18.26V19.43ZM18.26 20.3H13.26V25.3H18.26V20.3ZM19.13 20.3H24.13V15.3H19.13V20.3ZM19.13 21.17V26.17H24.13V21.17H19.13ZM18.26 21.17V16.17H13.26V21.17H18.26ZM18.26 22.91V27.91H23.26V22.91H18.26ZM17.39 22.91V17.91H12.39V22.91H17.39ZM17.39 24.65V29.65H22.39V24.65H17.39ZM16.52 24.65V19.65H11.52V24.65H16.52ZM16.52 26.39V31.39H21.52V26.39H16.52ZM15.65 26.39V21.39H10.65V26.39H15.65ZM15.65 28.13V33.13H20.65V28.13H15.65ZM14.78 28.13V23.13H9.78V28.13H14.78ZM14.78 29V34H19.78V29H14.78ZM5 29V22.04H-5V29H5ZM0 27.04H4.35V17.04H0V27.04ZM9.35 22.04V21.17H-0.65V22.04H9.35ZM4.35 26.17H6.09V16.17H4.35V26.17ZM11.09 21.17V20.3H1.09V21.17H11.09ZM6.09 15.3H5.22V25.3H6.09V15.3ZM10.22 20.3V18.57H0.22V20.3H10.22ZM5.22 13.57H4.35V23.57H5.22V13.57ZM9.35 18.57V17.7H-0.65V18.57H9.35ZM4.35 12.7H3.48V22.7H4.35V12.7ZM8.48 17.7V16.83H-1.52V17.7H8.48ZM3.48 11.83H2.61V21.83H3.48V11.83ZM7.61 16.83V15.09H-2.39V16.83H7.61ZM2.61 10.09H1.74V20.09H2.61V10.09ZM6.74 15.09V14.22H-3.26V15.09H6.74ZM1.74 9.22H0.87V19.22H1.74V9.22ZM5.87 14.22V13.35H-4.13V14.22H5.87ZM0.87 18.35H1.74V8.35H0.87V18.35ZM6.74 13.35V11.61H-3.26V13.35H6.74ZM1.74 16.61H2.61V6.61H1.74V16.61ZM7.61 11.61V9.87H-2.39V11.61H7.61ZM2.61 14.87H3.48V4.87H2.61V14.87ZM8.48 9.87V9H-1.52V9.87H8.48ZM3.48 14H4.35V4H3.48V14ZM9.35 9V7.26H-0.65V9H9.35ZM4.35 12.26H5.22V2.26H4.35V12.26ZM10.22 7.26V5.52H0.22V7.26H10.22ZM5.22 10.52H6.09V0.52H5.22V10.52ZM11.09 5.52V4.65H1.09V5.52H11.09ZM6.09 9.65H12.17V-0.350002H6.09V9.65ZM17.17 4.65V3.78H7.17V4.65H17.17ZM12.17 8.78H18.26V-1.22H12.17V8.78ZM13.26 3.78V8.13H23.26V3.78H13.26ZM18.26 13.13H19.13V3.13H18.26V13.13ZM14.13 8.13V12.48H24.13V8.13H14.13ZM19.13 7.48H13.04V17.48H19.13V7.48ZM8.04 12.48V13.35H18.04V12.48H8.04ZM13.04 18.35H13.91V8.35H13.04V18.35ZM8.91 13.35V15.09H18.91V13.35H8.91ZM13.91 20.09H14.78V10.09H13.91V20.09ZM9.78 15.09V15.96H19.78V15.09H9.78ZM14.78 20.96H15.65V10.96H14.78V20.96ZM10.65 15.96V16.83H20.65V15.96H10.65ZM15.65 21.83H16.52V11.83H15.65V21.83ZM11.52 16.83V17.7H21.52V16.83H11.52ZM16.52 22.7H17.39V12.7H16.52V22.7ZM12.39 17.7V19.43H22.39V17.7H12.39ZM17.39 24.43H18.26V14.43H17.39V24.43ZM13.26 19.43V20.3H23.26V19.43H13.26ZM18.26 25.3H19.13V15.3H18.26V25.3ZM14.13 20.3V21.17H24.13V20.3H14.13ZM19.13 16.17H18.26V26.17H19.13V16.17ZM13.26 21.17V22.91H23.26V21.17H13.26ZM18.26 17.91H17.39V27.91H18.26V17.91ZM12.39 22.91V24.65H22.39V22.91H12.39ZM17.39 19.65H16.52V29.65H17.39V19.65ZM11.52 24.65V26.39H21.52V24.65H11.52ZM16.52 21.39H15.65V31.39H16.52V21.39ZM10.65 26.39V28.13H20.65V26.39H10.65ZM15.65 23.13H14.78V33.13H15.65V23.13ZM9.78 28.13V29H19.78V28.13H9.78ZM14.78 24H0V34H14.78V24ZM26.52 29H21.52V34H26.52V29ZM26.52 28.13H31.52V23.13H26.52V28.13ZM25.65 28.13H20.65V33.13H25.65V28.13ZM25.65 27.26H30.65V22.26H25.65V27.26ZM24.78 27.26H19.78V32.26H24.78V27.26ZM24.78 26.39H29.78V21.39H24.78V26.39ZM23.91 26.39H18.91V31.39H23.91V26.39ZM23.91 25.52H28.91V20.52H23.91V25.52ZM23.04 25.52H18.04V30.52H23.04V25.52ZM23.04 24.65H28.04V19.65H23.04V24.65ZM22.17 24.65H17.17V29.65H22.17V24.65ZM22.17 23.78H27.17V18.78H22.17V23.78ZM21.3 23.78H16.3V28.78H21.3V23.78ZM21.3 22.91H26.3V17.91H21.3V22.91ZM20.43 22.91H15.43V27.91H20.43V22.91ZM20.43 22.04H25.43V17.04H20.43V22.04ZM19.56 22.04H14.56V27.04H19.56V22.04ZM19.56 1.17V-3.83H14.56V1.17H19.56ZM29.13 1.17H34.13V-3.83H29.13V1.17ZM29.13 9.87V14.87H34.13V9.87H29.13ZM28.26 9.87V4.87H23.26V9.87H28.26ZM28.26 17.7H23.26V22.7H28.26V17.7ZM29.99 17.7V22.7H34.99V17.7H29.99ZM29.99 16.83V11.83H24.99V16.83H29.99ZM32.6 16.83V21.83H37.6V16.83H32.6ZM32.6 3.78V-1.22H27.6V3.78H32.6ZM35.21 3.78V8.78H40.21V3.78H35.21ZM35.21 2.91V-2.09H30.21V2.91H35.21ZM38.69 2.91V7.91H43.69V2.91H38.69ZM38.69 2.04V-2.96H33.69V2.04H38.69ZM41.3 2.04H46.3V-2.96H41.3V2.04ZM41.3 22.91V27.91H46.3V22.91H41.3ZM40.43 22.91V17.91H35.43V22.91H40.43ZM40.43 24.65V29.65H45.43V24.65H40.43ZM39.56 24.65V19.65H34.56V24.65H39.56ZM39.56 25.52V30.52H44.56V25.52H39.56ZM38.69 25.52V20.52H33.69V25.52H38.69ZM38.69 26.39V31.39H43.69V26.39H38.69ZM37.82 26.39V21.39H32.82V26.39H37.82ZM37.82 28.13V33.13H42.82V28.13H37.82ZM36.95 28.13V23.13H31.95V28.13H36.95ZM36.95 29V34H41.95V29H36.95ZM31.52 29V28.13H21.52V29H31.52ZM26.52 23.13H25.65V33.13H26.52V23.13ZM30.65 28.13V27.26H20.65V28.13H30.65ZM25.65 22.26H24.78V32.26H25.65V22.26ZM29.78 27.26V26.39H19.78V27.26H29.78ZM24.78 21.39H23.91V31.39H24.78V21.39ZM28.91 26.39V25.52H18.91V26.39H28.91ZM23.91 20.52H23.04V30.52H23.91V20.52ZM28.04 25.52V24.65H18.04V25.52H28.04ZM23.04 19.65H22.17V29.65H23.04V19.65ZM27.17 24.65V23.78H17.17V24.65H27.17ZM22.17 18.78H21.3V28.78H22.17V18.78ZM26.3 23.78V22.91H16.3V23.78H26.3ZM21.3 17.91H20.43V27.91H21.3V17.91ZM25.43 22.91V22.04H15.43V22.91H25.43ZM20.43 17.04H19.56V27.04H20.43V17.04ZM24.56 22.04V1.17H14.56V22.04H24.56ZM19.56 6.17H29.13V-3.83H19.56V6.17ZM24.13 1.17V9.87H34.13V1.17H24.13ZM29.13 4.87H28.26V14.87H29.13V4.87ZM23.26 9.87V17.7H33.26V9.87H23.26ZM28.26 22.7H29.99V12.7H28.26V22.7ZM34.99 17.7V16.83H24.99V17.7H34.99ZM29.99 21.83H32.6V11.83H29.99V21.83ZM37.6 16.83V3.78H27.6V16.83H37.6ZM32.6 8.78H35.21V-1.22H32.6V8.78ZM40.21 3.78V2.91H30.21V3.78H40.21ZM35.21 7.91H38.69V-2.09H35.21V7.91ZM43.69 2.91V2.04H33.69V2.91H43.69ZM38.69 7.04H41.3V-2.96H38.69V7.04ZM36.3 2.04V22.91H46.3V2.04H36.3ZM41.3 17.91H40.43V27.91H41.3V17.91ZM35.43 22.91V24.65H45.43V22.91H35.43ZM40.43 19.65H39.56V29.65H40.43V19.65ZM34.56 24.65V25.52H44.56V24.65H34.56ZM39.56 20.52H38.69V30.52H39.56V20.52ZM33.69 25.52V26.39H43.69V25.52H33.69ZM38.69 21.39H37.82V31.39H38.69V21.39ZM32.82 26.39V28.13H42.82V26.39H32.82ZM37.82 23.13H36.95V33.13H37.82V23.13ZM31.95 28.13V29H41.95V28.13H31.95ZM36.95 24H26.52V34H36.95V24ZM53.0177 22.91V27.91H58.0177V22.91H53.0177ZM53.0177 22.04V17.04H48.0177V22.04H53.0177ZM55.6277 22.04V27.04H60.6277V22.04H55.6277ZM55.6277 19.43H60.6277V14.43H55.6277V19.43ZM54.7577 19.43H49.7577V24.43H54.7577V19.43ZM54.7577 18.57H59.7577V13.57H54.7577V18.57ZM52.1477 18.57V13.57H47.1477V18.57H52.1477ZM52.1477 19.43V24.43H57.1477V19.43H52.1477ZM50.4177 19.43V14.43H45.4177V19.43H50.4177ZM50.4177 22.04H45.4177V27.04H50.4177V22.04ZM51.2877 22.04H56.2877V17.04H51.2877V22.04ZM51.2877 22.91H46.2877V27.91H51.2877V22.91ZM50.4177 15.09V20.09H55.4177V15.09H50.4177ZM50.4177 14.22V9.22H45.4177V14.22H50.4177ZM52.1477 14.22V19.22H57.1477V14.22H52.1477ZM52.1477 13.35V8.35H47.1477V13.35H52.1477ZM53.8877 13.35V18.35H58.8877V13.35H53.8877ZM53.8877 10.74H58.8877V5.74H53.8877V10.74ZM48.6777 10.74V5.74H43.6777V10.74H48.6777ZM48.6777 12.48H43.6777V17.48H48.6777V12.48ZM49.5477 12.48H54.5477V7.48H49.5477V12.48ZM49.5477 15.09H44.5477V20.09H49.5477V15.09ZM46.0677 29H41.0677V34H46.0677V29ZM46.0677 26.39H51.0677V21.39H46.0677V26.39ZM45.1977 26.39H40.1977V31.39H45.1977V26.39ZM45.1977 22.04H50.1977V17.04H45.1977V22.04ZM44.3277 22.04H39.3277V27.04H44.3277V22.04ZM44.3277 17.7H49.3277V12.7H44.3277V17.7ZM43.4577 17.7H38.4577V22.7H43.4577V17.7ZM43.4577 12.48H48.4577V7.48H43.4577V12.48ZM42.5877 12.48H37.5877V17.48H42.5877V12.48ZM42.5877 8.13H47.5877V3.13H42.5877V8.13ZM41.7177 8.13H36.7177V13.13H41.7177V8.13ZM41.7177 5.52V0.52H36.7177V5.52H41.7177ZM45.1977 5.52V10.52H50.1977V5.52H45.1977ZM45.1977 4.65V-0.350002H40.1977V4.65H45.1977ZM50.4177 4.65V9.65H55.4177V4.65H50.4177ZM50.4177 3.78V-1.22H45.4177V3.78H50.4177ZM53.8877 3.78H58.8877V-1.22H53.8877V3.78ZM53.8877 4.65H48.8877V9.65H53.8877V4.65ZM55.6277 4.65H60.6277V-0.350002H55.6277V4.65ZM55.6277 5.52H50.6277V10.52H55.6277V5.52ZM57.3677 5.52H62.3677V0.52H57.3677V5.52ZM57.3677 6.39H52.3677V11.39H57.3677V6.39ZM58.2377 6.39H63.2377V1.39H58.2377V6.39ZM58.2377 7.26H53.2377V12.26H58.2377V7.26ZM59.9777 7.26H64.9777V2.26H59.9777V7.26ZM59.9777 8.13H54.9777V13.13H59.9777V8.13ZM61.7177 8.13H66.7177V3.13H61.7177V8.13ZM61.7177 9H56.7177V14H61.7177V9ZM62.5877 9H67.5877V4H62.5877V9ZM62.5877 11.61V16.61H67.5877V11.61H62.5877ZM61.7177 11.61V6.61H56.7177V11.61H61.7177ZM61.7177 15.09V20.09H66.7177V15.09H61.7177ZM60.8477 15.09V10.09H55.8477V15.09H60.8477ZM60.8477 16.83H55.8477V21.83H60.8477V16.83ZM61.7177 16.83H66.7177V11.83H61.7177V16.83ZM61.7177 17.7H56.7177V22.7H61.7177V17.7ZM62.5877 17.7H67.5877V12.7H62.5877V17.7ZM62.5877 19.43H57.5877V24.43H62.5877V19.43ZM63.4577 19.43H68.4577V14.43H63.4577V19.43ZM63.4577 20.3H58.4577V25.3H63.4577V20.3ZM64.3277 20.3H69.3277V15.3H64.3277V20.3ZM64.3277 21.17H59.3277V26.17H64.3277V21.17ZM65.1977 21.17H70.1977V16.17H65.1977V21.17ZM65.1977 22.04V27.04H70.1977V22.04H65.1977ZM64.3277 22.04V17.04H59.3277V22.04H64.3277ZM64.3277 22.91V27.91H69.3277V22.91H64.3277ZM63.4577 22.91V17.91H58.4577V22.91H63.4577ZM63.4577 23.78V28.78H68.4577V23.78H63.4577ZM62.5877 23.78V18.78H57.5877V23.78H62.5877ZM62.5877 24.65V29.65H67.5877V24.65H62.5877ZM61.7177 24.65V19.65H56.7177V24.65H61.7177ZM61.7177 25.52V30.52H66.7177V25.52H61.7177ZM60.8477 25.52V20.52H55.8477V25.52H60.8477ZM60.8477 26.39V31.39H65.8477V26.39H60.8477ZM59.9777 26.39V21.39H54.9777V26.39H59.9777ZM59.9777 27.26V32.26H64.9777V27.26H59.9777ZM59.1077 27.26V22.26H54.1077V27.26H59.1077ZM59.1077 28.13V33.13H64.1077V28.13H59.1077ZM58.2377 28.13V23.13H53.2377V28.13H58.2377ZM58.2377 29V34H63.2377V29H58.2377ZM58.0177 22.91V22.04H48.0177V22.91H58.0177ZM53.0177 27.04H55.6277V17.04H53.0177V27.04ZM60.6277 22.04V19.43H50.6277V22.04H60.6277ZM55.6277 14.43H54.7577V24.43H55.6277V14.43ZM59.7577 19.43V18.57H49.7577V19.43H59.7577ZM54.7577 13.57H52.1477V23.57H54.7577V13.57ZM47.1477 18.57V19.43H57.1477V18.57H47.1477ZM52.1477 14.43H50.4177V24.43H52.1477V14.43ZM45.4177 19.43V22.04H55.4177V19.43H45.4177ZM50.4177 27.04H51.2877V17.04H50.4177V27.04ZM46.2877 22.04V22.91H56.2877V22.04H46.2877ZM51.2877 27.91H53.0177V17.91H51.2877V27.91ZM55.4177 15.09V14.22H45.4177V15.09H55.4177ZM50.4177 19.22H52.1477V9.22H50.4177V19.22ZM57.1477 14.22V13.35H47.1477V14.22H57.1477ZM52.1477 18.35H53.8877V8.35H52.1477V18.35ZM58.8877 13.35V10.74H48.8877V13.35H58.8877ZM53.8877 5.74H48.6777V15.74H53.8877V5.74ZM43.6777 10.74V12.48H53.6777V10.74H43.6777ZM48.6777 17.48H49.5477V7.48H48.6777V17.48ZM44.5477 12.48V15.09H54.5477V12.48H44.5477ZM49.5477 20.09H50.4177V10.09H49.5477V20.09ZM51.0677 29V26.39H41.0677V29H51.0677ZM46.0677 21.39H45.1977V31.39H46.0677V21.39ZM50.1977 26.39V22.04H40.1977V26.39H50.1977ZM45.1977 17.04H44.3277V27.04H45.1977V17.04ZM49.3277 22.04V17.7H39.3277V22.04H49.3277ZM44.3277 12.7H43.4577V22.7H44.3277V12.7ZM48.4577 17.7V12.48H38.4577V17.7H48.4577ZM43.4577 7.48H42.5877V17.48H43.4577V7.48ZM47.5877 12.48V8.13H37.5877V12.48H47.5877ZM42.5877 3.13H41.7177V13.13H42.5877V3.13ZM46.7177 8.13V5.52H36.7177V8.13H46.7177ZM41.7177 10.52H45.1977V0.52H41.7177V10.52ZM50.1977 5.52V4.65H40.1977V5.52H50.1977ZM45.1977 9.65H50.4177V-0.350002H45.1977V9.65ZM55.4177 4.65V3.78H45.4177V4.65H55.4177ZM50.4177 8.78H53.8877V-1.22H50.4177V8.78ZM48.8877 3.78V4.65H58.8877V3.78H48.8877ZM53.8877 9.65H55.6277V-0.350002H53.8877V9.65ZM50.6277 4.65V5.52H60.6277V4.65H50.6277ZM55.6277 10.52H57.3677V0.52H55.6277V10.52ZM52.3677 5.52V6.39H62.3677V5.52H52.3677ZM57.3677 11.39H58.2377V1.39H57.3677V11.39ZM53.2377 6.39V7.26H63.2377V6.39H53.2377ZM58.2377 12.26H59.9777V2.26H58.2377V12.26ZM54.9777 7.26V8.13H64.9777V7.26H54.9777ZM59.9777 13.13H61.7177V3.13H59.9777V13.13ZM56.7177 8.13V9H66.7177V8.13H56.7177ZM61.7177 14H62.5877V4H61.7177V14ZM57.5877 9V11.61H67.5877V9H57.5877ZM62.5877 6.61H61.7177V16.61H62.5877V6.61ZM56.7177 11.61V15.09H66.7177V11.61H56.7177ZM61.7177 10.09H60.8477V20.09H61.7177V10.09ZM55.8477 15.09V16.83H65.8477V15.09H55.8477ZM60.8477 21.83H61.7177V11.83H60.8477V21.83ZM56.7177 16.83V17.7H66.7177V16.83H56.7177ZM61.7177 22.7H62.5877V12.7H61.7177V22.7ZM57.5877 17.7V19.43H67.5877V17.7H57.5877ZM62.5877 24.43H63.4577V14.43H62.5877V24.43ZM58.4577 19.43V20.3H68.4577V19.43H58.4577ZM63.4577 25.3H64.3277V15.3H63.4577V25.3ZM59.3277 20.3V21.17H69.3277V20.3H59.3277ZM64.3277 26.17H65.1977V16.17H64.3277V26.17ZM60.1977 21.17V22.04H70.1977V21.17H60.1977ZM65.1977 17.04H64.3277V27.04H65.1977V17.04ZM59.3277 22.04V22.91H69.3277V22.04H59.3277ZM64.3277 17.91H63.4577V27.91H64.3277V17.91ZM58.4577 22.91V23.78H68.4577V22.91H58.4577ZM63.4577 18.78H62.5877V28.78H63.4577V18.78ZM57.5877 23.78V24.65H67.5877V23.78H57.5877ZM62.5877 19.65H61.7177V29.65H62.5877V19.65ZM56.7177 24.65V25.52H66.7177V24.65H56.7177ZM61.7177 20.52H60.8477V30.52H61.7177V20.52ZM55.8477 25.52V26.39H65.8477V25.52H55.8477ZM60.8477 21.39H59.9777V31.39H60.8477V21.39ZM54.9777 26.39V27.26H64.9777V26.39H54.9777ZM59.9777 22.26H59.1077V32.26H59.9777V22.26ZM54.1077 27.26V28.13H64.1077V27.26H54.1077ZM59.1077 23.13H58.2377V33.13H59.1077V23.13ZM53.2377 28.13V29H63.2377V28.13H53.2377ZM58.2377 24H46.0677V34H58.2377V24ZM65.6136 29H60.6136V34H65.6136V29ZM65.6136 22.04V17.04H60.6136V22.04H65.6136ZM66.4836 22.04V27.04H71.4836V22.04H66.4836ZM66.4836 16.83V11.83H61.4836V16.83H66.4836ZM67.3536 16.83V21.83H72.3536V16.83H67.3536ZM67.3536 11.61V6.61H62.3536V11.61H67.3536ZM68.2236 11.61V16.61H73.2236V11.61H68.2236ZM68.2236 6.39V1.39H63.2236V6.39H68.2236ZM69.0936 6.39V11.39H74.0936V6.39H69.0936ZM69.0936 2.91V-2.09H64.0936V2.91H69.0936ZM76.0436 2.91H81.0436V-2.09H76.0436V2.91ZM76.0436 4.65H71.0436V9.65H76.0436V4.65ZM76.9136 4.65H81.9136V-0.350002H76.9136V4.65ZM76.9136 7.26H71.9136V12.26H76.9136V7.26ZM77.7836 7.26V12.26H82.7836V7.26H77.7836ZM77.7836 4.65V-0.350002H72.7836V4.65H77.7836ZM78.6536 4.65V9.65H83.6536V4.65H78.6536ZM78.6536 2.91V-2.09H73.6536V2.91H78.6536ZM82.1336 2.91H87.1336V-2.09H82.1336V2.91ZM82.1336 3.78H77.1336V8.78H82.1336V3.78ZM86.4836 3.78H91.4836V-1.22H86.4836V3.78ZM86.4836 7.26H81.4836V12.26H86.4836V7.26ZM87.3536 7.26H92.3536V2.26H87.3536V7.26ZM87.3536 10.74H82.3536V15.74H87.3536V10.74ZM88.2236 10.74H93.2236V5.74H88.2236V10.74ZM88.2236 14.22H83.2236V19.22H88.2236V14.22ZM89.0936 14.22H94.0936V9.22H89.0936V14.22ZM89.0936 18.57H84.0936V23.57H89.0936V18.57ZM89.9636 18.57H94.9636V13.57H89.9636V18.57ZM89.9636 22.04H84.9636V27.04H89.9636V22.04ZM90.8336 22.04H95.8336V17.04H90.8336V22.04ZM90.8336 23.78H85.8336V28.78H90.8336V23.78ZM91.7036 23.78H96.7036V18.78H91.7036V23.78ZM91.7036 24.65V29.65H96.7036V24.65H91.7036ZM90.8336 24.65V19.65H85.8336V24.65H90.8336ZM90.8336 25.52V30.52H95.8336V25.52H90.8336ZM89.9636 25.52V20.52H84.9636V25.52H89.9636ZM89.9636 26.39V31.39H94.9636V26.39H89.9636ZM88.2236 26.39V21.39H83.2236V26.39H88.2236ZM88.2236 27.26V32.26H93.2236V27.26H88.2236ZM86.4836 27.26V22.26H81.4836V27.26H86.4836ZM86.4836 28.13V33.13H91.4836V28.13H86.4836ZM84.7436 28.13H79.7436V33.13H84.7436V28.13ZM84.7436 25.52H89.7436V20.52H84.7436V25.52ZM83.8736 25.52H78.8736V30.52H83.8736V25.52ZM83.8736 22.04H88.8736V17.04H83.8736V22.04ZM83.0036 22.04H78.0036V27.04H83.0036V22.04ZM83.0036 18.57H88.0036V13.57H83.0036V18.57ZM82.1336 18.57H77.1336V23.57H82.1336V18.57ZM82.1336 15.09H87.1336V10.09H82.1336V15.09ZM81.2636 15.09V10.09H76.2636V15.09H81.2636ZM81.2636 17.7V22.7H86.2636V17.7H81.2636ZM80.3936 17.7V12.7H75.3936V17.7H80.3936ZM80.3936 20.3V25.3H85.3936V20.3H80.3936ZM79.5236 20.3V15.3H74.5236V20.3H79.5236ZM79.5236 22.91V27.91H84.5236V22.91H79.5236ZM78.6536 22.91V17.91H73.6536V22.91H78.6536ZM78.6536 25.52V30.52H83.6536V25.52H78.6536ZM77.7836 25.52V20.52H72.7836V25.52H77.7836ZM77.7836 26.39V31.39H82.7836V26.39H77.7836ZM76.9136 26.39H71.9136V31.39H76.9136V26.39ZM76.9136 25.52H81.9136V20.52H76.9136V25.52ZM76.0436 25.52H71.0436V30.52H76.0436V25.52ZM76.0436 22.91H81.0436V17.91H76.0436V22.91ZM75.1836 22.91H70.1836V27.91H75.1836V22.91ZM75.1836 20.3H80.1836V15.3H75.1836V20.3ZM74.3136 20.3V15.3H69.3136V20.3H74.3136ZM74.3136 29V34H79.3136V29H74.3136ZM70.6136 29V22.04H60.6136V29H70.6136ZM65.6136 27.04H66.4836V17.04H65.6136V27.04ZM71.4836 22.04V16.83H61.4836V22.04H71.4836ZM66.4836 21.83H67.3536V11.83H66.4836V21.83ZM72.3536 16.83V11.61H62.3536V16.83H72.3536ZM67.3536 16.61H68.2236V6.61H67.3536V16.61ZM73.2236 11.61V6.39H63.2236V11.61H73.2236ZM68.2236 11.39H69.0936V1.39H68.2236V11.39ZM74.0936 6.39V2.91H64.0936V6.39H74.0936ZM69.0936 7.91H76.0436V-2.09H69.0936V7.91ZM71.0436 2.91V4.65H81.0436V2.91H71.0436ZM76.0436 9.65H76.9136V-0.350002H76.0436V9.65ZM71.9136 4.65V7.26H81.9136V4.65H71.9136ZM76.9136 12.26H77.7836V2.26H76.9136V12.26ZM82.7836 7.26V4.65H72.7836V7.26H82.7836ZM77.7836 9.65H78.6536V-0.350002H77.7836V9.65ZM83.6536 4.65V2.91H73.6536V4.65H83.6536ZM78.6536 7.91H82.1336V-2.09H78.6536V7.91ZM77.1336 2.91V3.78H87.1336V2.91H77.1336ZM82.1336 8.78H86.4836V-1.22H82.1336V8.78ZM81.4836 3.78V7.26H91.4836V3.78H81.4836ZM86.4836 12.26H87.3536V2.26H86.4836V12.26ZM82.3536 7.26V10.74H92.3536V7.26H82.3536ZM87.3536 15.74H88.2236V5.74H87.3536V15.74ZM83.2236 10.74V14.22H93.2236V10.74H83.2236ZM88.2236 19.22H89.0936V9.22H88.2236V19.22ZM84.0936 14.22V18.57H94.0936V14.22H84.0936ZM89.0936 23.57H89.9636V13.57H89.0936V23.57ZM84.9636 18.57V22.04H94.9636V18.57H84.9636ZM89.9636 27.04H90.8336V17.04H89.9636V27.04ZM85.8336 22.04V23.78H95.8336V22.04H85.8336ZM90.8336 28.78H91.7036V18.78H90.8336V28.78ZM86.7036 23.78V24.65H96.7036V23.78H86.7036ZM91.7036 19.65H90.8336V29.65H91.7036V19.65ZM85.8336 24.65V25.52H95.8336V24.65H85.8336ZM90.8336 20.52H89.9636V30.52H90.8336V20.52ZM84.9636 25.52V26.39H94.9636V25.52H84.9636ZM89.9636 21.39H88.2236V31.39H89.9636V21.39ZM83.2236 26.39V27.26H93.2236V26.39H83.2236ZM88.2236 22.26H86.4836V32.26H88.2236V22.26ZM81.4836 27.26V28.13H91.4836V27.26H81.4836ZM86.4836 23.13H84.7436V33.13H86.4836V23.13ZM89.7436 28.13V25.52H79.7436V28.13H89.7436ZM84.7436 20.52H83.8736V30.52H84.7436V20.52ZM88.8736 25.52V22.04H78.8736V25.52H88.8736ZM83.8736 17.04H83.0036V27.04H83.8736V17.04ZM88.0036 22.04V18.57H78.0036V22.04H88.0036ZM83.0036 13.57H82.1336V23.57H83.0036V13.57ZM87.1336 18.57V15.09H77.1336V18.57H87.1336ZM82.1336 10.09H81.2636V20.09H82.1336V10.09ZM76.2636 15.09V17.7H86.2636V15.09H76.2636ZM81.2636 12.7H80.3936V22.7H81.2636V12.7ZM75.3936 17.7V20.3H85.3936V17.7H75.3936ZM80.3936 15.3H79.5236V25.3H80.3936V15.3ZM74.5236 20.3V22.91H84.5236V20.3H74.5236ZM79.5236 17.91H78.6536V27.91H79.5236V17.91ZM73.6536 22.91V25.52H83.6536V22.91H73.6536ZM78.6536 20.52H77.7836V30.52H78.6536V20.52ZM72.7836 25.52V26.39H82.7836V25.52H72.7836ZM77.7836 21.39H76.9136V31.39H77.7836V21.39ZM81.9136 26.39V25.52H71.9136V26.39H81.9136ZM76.9136 20.52H76.0436V30.52H76.9136V20.52ZM81.0436 25.52V22.91H71.0436V25.52H81.0436ZM76.0436 17.91H75.1836V27.91H76.0436V17.91ZM80.1836 22.91V20.3H70.1836V22.91H80.1836ZM75.1836 15.3H74.3136V25.3H75.1836V15.3ZM69.3136 20.3V29H79.3136V20.3H69.3136ZM74.3136 24H65.6136V34H74.3136V24ZM92.1267 29H87.1267V34H92.1267V29ZM92.1267 3.78V-1.22H87.1267V3.78H92.1267ZM98.2167 3.78H103.217V-1.22H98.2167V3.78ZM98.2167 9.87H93.2167V14.87H98.2167V9.87ZM99.0867 9.87H104.087V4.87H99.0867V9.87ZM99.0867 16.83H94.0867V21.83H99.0867V16.83ZM99.9567 16.83H104.957V11.83H99.9567V16.83ZM99.9567 23.78H94.9567V28.78H99.9567V23.78ZM100.827 23.78H105.827V18.78H100.827V23.78ZM100.827 29V34H105.827V29H100.827ZM97.1267 29V3.78H87.1267V29H97.1267ZM92.1267 8.78H98.2167V-1.22H92.1267V8.78ZM93.2167 3.78V9.87H103.217V3.78H93.2167ZM98.2167 14.87H99.0867V4.87H98.2167V14.87ZM94.0867 9.87V16.83H104.087V9.87H94.0867ZM99.0867 21.83H99.9567V11.83H99.0867V21.83ZM94.9567 16.83V23.78H104.957V16.83H94.9567ZM99.9567 28.78H100.827V18.78H99.9567V28.78ZM95.8267 23.78V29H105.827V23.78H95.8267ZM100.827 24H92.1267V34H100.827V24ZM109.938 29H104.938V34H109.938V29ZM109.938 8.13H114.938V3.13H109.938V8.13ZM101.238 8.13H96.2375V13.13H101.238V8.13ZM101.238 0.299999V-4.7H96.2375V0.299999H101.238ZM122.108 0.299999H127.108V-4.7H122.108V0.299999ZM122.108 1.17H117.108V6.17H122.108V1.17ZM122.978 1.17H127.978V-3.83H122.978V1.17ZM122.978 2.04H117.978V7.04H122.978V2.04ZM123.848 2.04H128.848V-2.96H123.848V2.04ZM123.848 2.91H118.848V7.91H123.848V2.91ZM124.718 2.91H129.717V-2.09H124.718V2.91ZM124.718 3.78H119.718V8.78H124.718V3.78ZM125.588 3.78H130.588V-1.22H125.588V3.78ZM125.588 8.13V13.13H130.588V8.13H125.588ZM118.628 8.13V3.13H113.628V8.13H118.628ZM118.628 11.61V16.61H123.628V11.61H118.628ZM117.758 11.61V6.61H112.758V11.61H117.758ZM117.758 18.57V23.57H122.758V18.57H117.758ZM116.888 18.57V13.57H111.888V18.57H116.888ZM116.888 25.52V30.52H121.888V25.52H116.888ZM116.018 25.52V20.52H111.018V25.52H116.018ZM116.018 29V34H121.018V29H116.018ZM114.938 29V8.13H104.938V29H114.938ZM109.938 3.13H101.238V13.13H109.938V3.13ZM106.238 8.13V0.299999H96.2375V8.13H106.238ZM101.238 5.3H122.108V-4.7H101.238V5.3ZM117.108 0.299999V1.17H127.108V0.299999H117.108ZM122.108 6.17H122.978V-3.83H122.108V6.17ZM117.978 1.17V2.04H127.978V1.17H117.978ZM122.978 7.04H123.848V-2.96H122.978V7.04ZM118.848 2.04V2.91H128.848V2.04H118.848ZM123.848 7.91H124.718V-2.09H123.848V7.91ZM119.718 2.91V3.78H129.717V2.91H119.718ZM124.718 8.78H125.588V-1.22H124.718V8.78ZM120.588 3.78V8.13H130.588V3.78H120.588ZM125.588 3.13H118.628V13.13H125.588V3.13ZM113.628 8.13V11.61H123.628V8.13H113.628ZM118.628 6.61H117.758V16.61H118.628V6.61ZM112.758 11.61V18.57H122.758V11.61H112.758ZM117.758 13.57H116.888V23.57H117.758V13.57ZM111.888 18.57V25.52H121.888V18.57H111.888ZM116.888 20.52H116.018V30.52H116.888V20.52ZM111.018 25.52V29H121.018V25.52H111.018ZM116.018 24H109.938V34H116.018V24Z" fill="black"/>
</svg>
