<svg width="1920" height="173" viewBox="0 0 1920 173" fill="none" xmlns="http://www.w3.org/2000/svg">
<path d="M236.832 70.4598C236.801 75.0209 234.567 77.3014 230.131 77.3014C225.867 77.3014 221.649 77.3014 217.385 77.3014C214.386 77.3014 210.965 76.4579 211.153 81.5657C211.199 83.487 209.044 83.159 207.638 83.2058C205.201 83.2995 201.406 82.3623 200.562 83.5338C198.172 86.9078 195.408 89.3914 192.221 91.9687C190.675 93.1871 191.424 97.9199 192.034 100.919C192.69 104.106 197.844 100.732 198.407 104.199C198.875 107.198 199.391 109.026 202.999 108.745C206.56 108.464 210.169 108.745 213.777 108.651C216.214 108.651 217.994 109.026 217.573 112.165C217.198 115.071 219.494 115.352 221.368 115.399C227.554 115.539 233.786 115.399 239.972 115.493C242.127 115.493 242.783 114.321 242.736 112.4C242.69 110.057 243.627 108.651 246.157 108.651C248.36 108.651 249.531 109.682 249.578 111.884C249.578 115.071 251.593 115.493 254.17 115.493C261.996 115.446 269.822 115.493 277.647 115.493C279.522 115.493 281.959 115.024 281.865 118.07C281.771 121.163 283.599 121.444 285.989 121.35C288.753 121.256 291.518 121.35 294.33 121.35C297.516 121.35 301.359 120.46 300.703 125.849C300.703 125.989 300.703 126.317 300.796 126.317C305.529 127.114 306.701 132.597 310.778 134.002C312.465 134.565 313.261 135.174 313.261 136.908C313.261 141.453 313.214 146.046 313.261 150.591C313.261 152.981 312.043 153.637 309.887 153.637C303.702 153.59 297.469 153.637 291.284 153.637C290.956 153.637 290.628 153.637 290.3 153.637C286.035 153.449 288.941 149.138 286.879 147.639C285.286 146.514 281.349 149.279 281.912 144.64C282.287 141.453 280.553 140.703 277.788 140.891C276.148 141.031 274.508 140.75 272.915 140.938C270.197 141.266 268.557 139.86 268.697 137.517C268.885 133.862 266.776 134.049 264.339 134.049C258.482 134.049 252.577 134.049 246.72 134.049C245.173 134.049 242.971 134.518 242.924 132.175C242.736 125.708 237.91 128.801 235.005 128.285C232.24 127.77 229.803 128.098 229.897 132.081C229.944 134.471 227.788 134.096 226.195 134.096C221.134 134.096 216.073 134.143 211.012 134.096C207.966 134.096 204.077 135.268 204.358 129.832C204.405 128.707 203.28 128.332 202.202 128.285C199.766 128.145 197.329 127.864 194.892 127.957C193.486 127.957 191.706 128.379 191.846 130.394C192.127 134.002 190.019 134.237 187.254 134.19C181.724 134.096 176.148 134.19 170.618 134.19C169.962 134.19 168.791 134.33 168.744 134.143C167.291 129.41 161.153 129.082 159.747 124.912C158.903 122.381 158.294 121.491 155.717 121.444C151.827 121.35 146.813 123.271 146.251 116.43C146.157 115.399 144.283 115.633 143.158 115.633C140.066 115.633 136.973 115.633 133.88 115.633C130.693 115.586 129.194 116.195 127.226 119.71C125.726 122.334 121.977 125.193 119.26 128.004C117.854 129.457 113.636 128.332 110.731 128.285C109.325 128.285 108.529 127.395 108.716 126.083C109.372 121.163 106.186 121.491 102.905 121.491C99.5782 121.491 95.267 122.896 95.6888 116.805C95.7825 115.493 94.4704 115.352 93.1115 115.399C89.3626 115.633 85.6138 115.633 81.865 115.586C78.8659 115.586 76.1949 115.586 76.1949 119.663C76.1949 121.444 74.6016 121.491 73.2896 121.491C66.9165 121.491 60.5435 121.491 54.2174 121.491C52.3898 121.491 50.8435 121.21 50.9372 118.913C51.0778 115.867 49.3439 115.493 46.9072 115.539C43.2989 115.633 39.7376 115.539 36.1293 115.539C33.7863 115.539 32.4273 115.211 31.6307 118.96C30.9747 122.053 24.7423 123.225 24.2736 128.145C20.6654 127.911 18.3692 128.801 19.0722 133.206C19.2127 134.143 17.5726 134.143 16.5886 134.143C14.2924 134.143 12.0431 134.143 9.74695 134.143C8.34114 134.143 6.79475 134.377 6.98219 136.111C7.63823 142.203 3.4208 140.938 0 140.985V0.0287268C3.09278 0.169308 6.79475 -1.04905 7.02905 4.24616C7.12277 6.54232 9.51265 5.79255 11.0122 5.88627C14.9016 6.16743 20.0094 4.24615 19.8688 11.3689C19.8688 13.009 21.8369 12.7279 23.0553 12.7279C31.0215 12.7279 39.0347 12.7279 47.0009 12.7747C49.5314 12.7747 51.0309 12.2593 50.9372 9.30709C50.8435 6.54233 52.2961 5.55826 55.1077 6.4486C56.3261 6.82349 57.7319 7.0578 58.9503 6.8235C62.418 6.07373 64.9016 5.65199 64.3392 10.8535C64.0112 13.6651 67.1977 12.5404 68.9315 12.7747C72.3055 13.1496 76.7572 11.1346 77.0852 17.3671C77.179 19.1946 79.8031 18.5386 81.3495 18.6792C85.0046 19.0072 89.5032 17.9294 89.7844 23.8338C89.7844 24.3024 90.6279 25.1927 91.0027 25.1927C95.0796 25.0053 96.298 27.114 96.0637 30.816C95.9699 31.9875 97.1415 32.0812 98.2192 32.0812C102.905 32.0812 107.544 32.2686 112.23 32.3155C114.386 32.3155 115.745 32.6904 114.995 35.4083C114.386 37.7513 116.167 38.173 117.901 38.173C124.602 38.2199 131.256 38.173 137.957 38.173C138.285 38.173 138.613 38.1731 138.941 38.1262C142.596 37.3764 139.503 33.2059 141.659 32.2687C143.58 31.472 146.767 33.3933 146.954 29.3164C146.954 28.3792 147.188 26.6454 147.563 26.5985C153.889 25.3802 156.045 15.2584 164.527 18.5386C165.651 18.9603 167.151 18.7729 168.416 18.5386C171.462 18.07 172.446 19.8975 173.008 22.3343C173.008 22.4748 173.102 22.6623 173.102 22.8028C172.352 28.0043 178.491 23.412 178.96 26.8797C179.288 29.457 178.444 32.8778 183.036 32.2687C183.505 32.2218 184.021 32.2687 184.489 32.4092C187.722 33.1121 183.739 37.7044 187.348 37.9856C189.972 38.2199 192.315 38.2199 191.94 41.875C191.799 43.2808 192.549 44.7803 194.002 44.7335C200.047 44.3586 198.032 48.9041 198.735 51.95C199.156 53.8244 196.767 57.1046 199.812 57.3389C203.608 57.6201 208.06 59.7757 211.434 55.7925C215.089 53.0746 219.306 54.3399 223.243 54.293C235.426 54.1524 235.426 54.2461 237.02 66.1955C237.207 67.6951 237.207 69.1009 236.832 70.5067V70.4598Z" fill="#0D0D1A"/>
<path d="M1401.97 141.922C1407.73 139.813 1413.73 141.453 1419.59 140.938C1419.21 143 1419.73 144.921 1420.57 146.795C1420.99 147.545 1421.74 147.732 1422.54 147.779C1426.05 146.467 1429.8 148.154 1433.32 146.795C1432.52 142.109 1434.44 140.235 1439.17 140.844C1441.56 141.172 1444.05 140.844 1446.48 140.938C1449.86 141.078 1452.67 141.078 1452.34 136.252C1452.15 133.721 1454.73 134.096 1456.47 134.096C1462.51 134.096 1468.56 134.096 1474.55 134.096C1476.38 134.096 1478.4 134.19 1478.3 131.519C1478.16 128.473 1479.94 128.192 1482.38 128.192C1503.23 128.192 1524.13 128.192 1544.98 128.192C1547.14 128.192 1548.97 128.332 1548.83 131.191C1548.69 133.674 1550.23 134.143 1552.29 134.096C1555.25 134.049 1558.15 134.143 1561.1 134.096C1564.67 133.956 1568.23 133.534 1567.57 139.017C1567.38 140.75 1568.98 140.938 1570.38 140.938C1573.33 140.938 1576.24 140.938 1579.19 140.938C1580.74 141.734 1580.74 143.187 1580.65 144.593C1580.55 146.186 1580.93 147.405 1582.61 147.873C1583.08 148.061 1583.6 148.201 1584.11 148.248C1589.45 148.435 1594.8 148.248 1600.14 148.342C1602.06 148.342 1604.08 148.201 1605.62 149.748C1607.45 150.685 1604.73 152.747 1606.61 153.684C1613.07 154.808 1619.54 154.012 1626.01 154.152C1631.77 154.293 1631.77 154.152 1631.07 159.541C1635.24 160.947 1639.64 159.12 1643.81 160.525C1644.14 160.853 1644.42 161.181 1644.75 161.509C1643.16 164.696 1640.06 165.118 1637.06 165.165C1621.88 165.352 1606.75 165.352 1591.56 165.399C1588.75 165.399 1586.83 164.93 1588.94 161.509C1589.55 160.525 1589.27 160.385 1586.03 159.541C1585.47 160.338 1584.63 160.666 1583.74 160.807C1580.55 160.807 1577.27 161.603 1574.23 159.963C1572.82 156.308 1570.24 154.855 1566.31 155.136C1563.59 155.324 1561.06 154.621 1560.12 151.528C1559.37 149.091 1557.5 148.435 1555.2 148.389C1552.44 148.389 1549.67 148.389 1546.91 148.295C1544.19 148.201 1541.61 147.92 1540.86 144.593C1540.39 142.484 1538.66 142.484 1537.02 142.484C1519.59 142.484 1502.15 142.437 1484.72 142.531C1483.13 142.531 1481.11 142.344 1480.41 144.124C1478.86 147.826 1475.77 148.482 1472.44 148.529C1469.12 148.529 1466.96 149.982 1465.65 152.981C1463.73 154.106 1461.85 154.152 1460.21 152.465C1460.07 152.184 1459.98 151.95 1459.89 151.669C1458.71 150.404 1456.98 149.841 1455.48 149.888C1444.98 150.263 1434.49 148.763 1423.99 149.419C1418.51 149.794 1413.03 149.748 1407.54 149.701C1404.12 149.701 1400.61 149.138 1399.76 154.106C1399.25 151.997 1398.73 149.888 1398.22 147.779C1402.48 147.779 1401.26 144.124 1402.15 141.922H1401.97Z" fill="#0D0D1A"/>
<path d="M1811.24 109.588C1808.2 108.276 1804.22 109.12 1803.42 103.59C1803.14 101.622 1797.19 102.887 1793.81 102.84C1791.38 102.84 1791.75 104.855 1791.56 106.449C1791.47 107.526 1791 108.557 1789.92 108.51C1785.28 108.182 1785.71 111.228 1785.71 114.274C1785.71 121.35 1785.71 121.397 1778.68 121.397C1775.72 121.397 1772.59 120.741 1772.87 125.521C1773.01 127.817 1770.99 128.239 1769.02 128.239C1752.2 128.239 1735.42 128.239 1718.6 128.239C1716.45 128.239 1714.99 127.676 1715.27 125.24C1715.65 121.678 1713.63 121.303 1710.78 121.35C1700.65 121.444 1690.53 121.35 1680.41 121.397C1677.88 121.397 1675.77 121.256 1676.01 117.882C1676.1 116.617 1675.49 115.586 1674.08 115.539C1671.79 115.446 1669.54 115.539 1667.24 115.446C1663.78 115.399 1664.06 117.882 1663.92 120.179C1663.87 121.163 1662.89 121.444 1662.04 121.303C1657.12 120.554 1657.31 123.74 1657.45 127.067C1657.5 128.379 1657.4 129.691 1657.45 131.003C1657.54 133.346 1656.42 134.143 1654.17 134.143C1645.5 134.096 1636.88 134.143 1628.21 134.143C1626.62 134.143 1625.07 133.909 1625.16 131.894C1625.4 128.145 1623.01 128.192 1620.38 128.285C1617.62 128.379 1614.85 128.285 1612.04 128.285C1608.67 128.285 1605.29 128.473 1605.39 123.459C1605.39 121.397 1603.61 121.584 1602.15 121.397C1598.55 120.882 1593.2 123.693 1593.02 116.336C1593.02 114.837 1590.16 115.586 1588.61 115.539C1578.91 115.305 1580.79 116.664 1580.08 107.198C1579.94 105.23 1580.04 103.262 1580.08 101.341C1580.08 98.5292 1580.6 95.5301 1576.15 95.8581C1574.74 95.9518 1574.27 94.8272 1574.23 93.5619C1574.13 92.1561 1574.37 90.2817 1572.3 90.2349C1568.93 90.0943 1565.56 90.1411 1562.23 90.3754C1561.95 90.3754 1561.53 92.1093 1561.53 92.9996C1561.57 95.4364 1560.35 96.0924 1558.15 96.0455C1556.14 96.0455 1554.5 95.7644 1554.64 93.1871C1554.73 91.2658 1554.03 90.188 1551.87 90.0474C1549.39 89.9068 1547.98 88.7822 1548.59 85.8769C1549.06 83.5807 1547.42 83.2058 1545.55 83.2527C1541.28 83.2527 1537.07 83.2058 1532.8 83.2527C1530.5 83.2527 1528.91 82.8309 1529.1 80.0662C1529.29 77.3951 1528.02 76.786 1525.44 77.2077C1523.57 77.5357 1521.55 77.114 1519.63 77.0203C1518.98 77.0203 1517.76 76.8328 1517.81 76.786C1518.18 70.8816 1510.4 71.2564 1509.7 66.3361C1509.14 62.3998 1506.04 63.7119 1503.93 63.8056C1501.73 63.8994 1498.26 62.0718 1497.7 66.3361C1497.19 70.1786 1494.8 70.741 1491.47 70.6004C1486.08 70.3661 1480.69 70.5535 1475.3 70.5535C1473.38 70.5535 1471.18 70.9284 1471.51 73.2246C1472.02 76.5985 1469.96 76.3642 1467.95 76.6922C1461.81 77.7232 1455.62 77.2546 1449.48 77.3483C1447.42 77.3483 1445.87 76.5516 1445.92 74.3023C1445.97 71.6782 1445.17 70.3192 1442.31 70.4598C1440.2 70.5535 1439.22 69.7569 1439.5 67.1327C1439.78 64.696 1440.67 61.1815 1438.89 59.7757C1435.89 57.3858 1433.46 54.9959 1431.3 51.6688C1430.27 50.0756 1426.19 50.3099 1426.47 46.2799C1426.57 45.1084 1424.41 45.1084 1423.1 45.1084C1419.49 45.1084 1415.93 45.1084 1412.32 45.1084C1410.12 45.1084 1407.92 45.1553 1407.68 42.1093C1407.5 39.3914 1408.76 38.2199 1411.43 38.2199C1412.84 38.2199 1414.48 37.6576 1414.06 36.0643C1412.84 31.8001 1415.65 32.3624 1418.09 32.3624C1419.87 32.3624 1421.69 32.3624 1423.48 32.3624C1425.68 32.3155 1427.51 31.8938 1426.57 28.9416C1425.72 26.1768 1427.22 25.3802 1429.61 25.5676C1432.1 25.7551 1433.22 24.771 1433.13 22.1937C1433.08 20.2256 1433.55 18.4449 1436.27 19.2883C1439.31 20.2255 1439.74 18.3043 1439.41 16.1018C1438.94 13.1028 1440.67 12.8216 1442.83 12.7748C1446.44 12.7748 1450.05 13.0091 1453.61 12.681C1457.03 12.3999 1458.01 13.8057 1459.28 16.8516C1460.68 20.1787 1466.02 20.6942 1467.01 25.3802C1467.15 25.9425 1472.21 25.5208 1474.98 25.4739C1476.85 25.4739 1478.26 25.9425 1478.11 28.1449C1477.93 31.8469 1480.13 32.3624 1483.13 32.3155C1490.95 32.2218 1498.78 32.3155 1506.61 32.3155C1508.43 32.3155 1510.5 32.1749 1510.35 34.846C1510.21 38.3605 1512.46 38.2199 1514.9 38.2199C1526.47 38.2199 1538.05 38.2199 1549.67 38.2199C1552.58 38.2199 1554.97 38.2668 1554.59 42.203C1554.54 42.9059 1555.39 44.3118 1555.48 44.2649C1561.57 42.4842 1560.17 52.4186 1566.07 51.0128C1567.76 50.5911 1569.63 50.9659 1571.46 50.9191C1572.68 50.9191 1573.99 50.591 1573.9 49.1384C1573.57 44.4055 1576.8 45.0615 1579.75 45.0615C1585.28 45.0615 1590.86 45.2021 1596.39 44.8741C1598.59 44.7335 1599.62 45.2958 1599.48 47.3108C1599.25 50.591 1601.03 50.9659 1603.7 51.0128C1607.64 51.0128 1612.7 49.3258 1612.56 56.4486C1612.56 58.0887 1614.53 57.7607 1615.79 57.8075C1620.05 57.8075 1624.27 57.8075 1628.54 57.8075C1630.04 57.8075 1631.82 57.8075 1631.72 59.8694C1631.54 63.8994 1634.07 63.7119 1636.83 63.7119C1645.69 63.7119 1644.56 62.7747 1644.56 71.5845C1644.56 74.4898 1644.61 76.8797 1648.59 76.458C1650.51 76.2705 1651.26 77.5826 1650.94 79.2696C1650.33 82.4561 1651.87 83.2995 1654.73 83.2527C1660.59 83.159 1666.49 83.2527 1672.35 83.2527C1673.99 83.2527 1675.96 83.4401 1675.91 81.0502C1675.82 76.3642 1679 76.3642 1682.24 76.458C1685.42 76.5517 1689.78 74.8178 1689.03 81.1908C1688.8 83.3933 1691.52 83.2527 1693.3 83.2527C1699.34 83.2527 1705.39 83.2527 1711.39 83.2527C1712.98 83.2527 1715.09 82.9715 1714.99 85.4083C1714.85 89.0165 1716.96 89.0634 1719.68 89.2039C1723.33 89.3914 1727.93 88.3605 1728.07 94.4992C1728.11 96.1861 1729.94 95.9518 1731.25 95.9518C1733.88 95.9518 1738.52 96.5141 1738.75 95.7175C1740.06 91.4532 1744.14 89.7194 1746.11 86.5798C1747.51 84.3305 1748.17 83.1121 1750.75 83.2058C1753.7 83.2995 1756.61 83.2058 1759.56 83.2058C1762.88 83.2527 1766.31 83.7213 1766.26 78.6135C1766.26 76.5517 1768.27 76.3642 1770.01 76.3642C1782.43 76.3642 1794.8 76.3642 1807.21 76.3642C1809.18 76.3642 1811.1 76.8797 1810.96 79.1758C1810.73 83.0184 1812.89 83.4401 1815.88 83.2058C1817.66 83.0652 1819.49 83.1121 1821.27 83.2058C1824.32 83.3933 1824.37 84.9865 1822.87 87.0952C1818.46 88.0793 1818.37 88.1262 1818.65 92.2967C1818.79 94.2649 1818.46 96.1861 1818.32 98.1074C1817.81 104.574 1817.24 104.949 1810.96 103.356C1813.31 105.324 1812.42 107.433 1811.06 109.588H1811.24Z" fill="#0D0D1A"/>
<path d="M1385.19 102.747C1377.04 102.747 1368.88 102.747 1360.73 102.747C1358.9 102.747 1356.84 102.934 1356.89 100.263C1357.03 95.4832 1353.84 95.8113 1350.61 95.8581C1347.52 95.905 1343.72 96.9828 1343.95 91.5938C1344 90.188 1342.5 90.0943 1341.33 90.0474C1336.78 89.86 1332.29 89.3914 1327.79 89.5788C1325.54 89.6726 1324.6 88.876 1324.69 87.0015C1324.93 83.3933 1322.91 83.159 1320.1 83.159C1310.31 83.2527 1300.52 83.2527 1290.72 83.159C1288.14 83.159 1286.18 83.3464 1286.36 86.7204C1286.5 89.6257 1284.44 90.0474 1282.05 90.0474C1276.34 90.0474 1270.62 90.0474 1264.9 90.0474C1263.35 90.0474 1261.06 89.5788 1261.11 91.9219C1261.2 96.2799 1258.48 95.9518 1255.62 95.905C1252.01 95.8581 1248.45 95.9987 1244.84 95.905C1242.41 95.8112 1241.05 96.6547 1241.38 99.232C1241.71 101.903 1240.39 102.512 1238 102.512C1231.96 102.512 1225.96 102.7 1219.92 102.747C1217.53 102.747 1215.65 102.981 1215.84 106.074C1215.98 108.323 1214.43 108.651 1212.6 108.651C1193.2 108.651 1173.76 108.651 1154.36 108.651C1153.05 108.651 1151.36 108.604 1151.45 106.87C1151.69 102.137 1148.5 102.793 1145.59 102.793C1140.39 102.793 1135.14 102.793 1129.94 102.793C1127.6 102.793 1125.73 102.606 1126.48 99.1852C1127.18 95.9987 1124.6 95.9518 1122.4 95.9518C1116.35 95.9518 1110.31 95.9518 1104.31 95.9518C1102.2 95.9518 1100.37 95.9519 1100.37 92.9997C1100.37 90.3286 1101.45 89.0634 1104.17 89.1102C1109.89 89.1102 1115.6 89.1102 1121.32 89.1102C1123.66 89.1102 1125.96 89.3914 1126.01 85.8769C1126.01 83.5338 1127.98 83.2058 1129.94 83.2527C1133.69 83.2527 1137.44 83.2527 1141.19 83.2527C1142.31 83.2527 1143.44 83.0184 1144.52 82.8778C1143.35 77.114 1152.06 77.8637 1151.5 72.3342C1151.31 70.6004 1153.09 70.5536 1154.4 70.5536C1165.32 70.5536 1176.29 70.5536 1187.21 70.5536C1188.71 70.5536 1190.49 70.5535 1190.35 72.6623C1190.11 76.7391 1192.74 76.5048 1195.45 76.458C1199.25 76.458 1203.75 75.2864 1203.42 81.7532C1203.33 83.3933 1205.29 83.2527 1206.56 83.2527C1214.71 83.2527 1222.87 83.2527 1231.02 83.2527C1231.49 83.2527 1232.33 83.3933 1232.43 83.2058C1234.3 79.0353 1239.03 77.2546 1241.05 73.5995C1242.31 71.3033 1243.16 70.413 1245.45 70.5067C1246.91 70.5535 1248.41 70.413 1249.86 70.5067C1252.53 70.6941 1254.45 70.1787 1254.08 66.8985C1253.8 64.1806 1255.34 63.6182 1257.68 63.6651C1261.9 63.7588 1266.17 63.6651 1270.43 63.6651C1272.16 63.6651 1273.95 63.6651 1273.29 61.0877C1272.49 57.995 1274.55 57.8075 1276.62 57.8075C1289.36 57.8075 1302.06 57.8075 1314.81 57.8075C1316.92 57.8075 1318.88 58.0887 1318.09 61.1346C1317.43 63.7588 1319.31 63.6651 1320.99 63.7119C1325.26 63.7119 1329.47 63.7119 1333.74 63.7119C1335.71 63.7119 1337.53 63.8994 1337.25 66.4767C1336.83 70.3192 1339.03 70.7878 1342.03 70.5536C1343.81 70.413 1345.64 70.5536 1347.42 70.5536C1348.64 70.5536 1349.95 70.8816 1349.91 72.3342C1349.58 77.0671 1352.81 76.5048 1355.76 76.458C1358.2 76.458 1360.68 76.5517 1363.12 76.458C1366.59 76.2705 1369.68 76.2705 1369.68 81.0503C1369.68 83.815 1371.98 83.2058 1373.71 83.2996C1377.65 83.487 1382.61 81.7063 1382.85 88.5948C1382.85 89.86 1384.39 89.6726 1385.66 89.6257C1391.33 89.3445 1397.05 89.2977 1402.76 89.2039C1405.62 89.2039 1408.06 89.7663 1407.92 93.4683C1407.83 95.3427 1408.95 96.233 1410.68 95.9987C1414.2 95.5301 1414.2 97.92 1414.29 100.216C1414.43 103.309 1412.04 102.84 1410.22 102.84C1401.87 102.84 1393.58 102.84 1385.24 102.84L1385.19 102.747Z" fill="#0D0D1A"/>
<path d="M1718.13 153.637C1715.84 153.637 1713.54 153.637 1711.29 153.637C1710.31 153.637 1708.9 153.637 1708.86 152.559C1708.67 148.717 1707.4 146.28 1702.95 147.311C1702.44 143.89 1701.26 140.516 1701.83 137.048C1702.2 134.705 1703.84 133.956 1706.14 134.096C1708.25 134.237 1710.4 134.143 1712.51 134.096C1714.29 134.096 1715.46 134.799 1715.28 136.673C1714.81 140.797 1717.2 140.985 1720.34 140.985C1742.69 140.891 1765.04 140.985 1787.39 140.985C1804.22 140.985 1820.99 140.985 1837.82 140.985C1840.49 140.985 1843.58 141.781 1842.78 136.955C1842.36 134.33 1844.89 134.19 1846.91 134.143C1850.7 134.049 1855.2 135.596 1856.33 129.551C1856.65 127.864 1858.76 128.239 1860.17 128.239C1878.44 128.239 1896.72 128.285 1914.99 128.192C1918.51 128.192 1920.29 129.27 1919.96 132.972C1919.87 134.284 1919.96 135.596 1919.96 136.908C1919.96 146.092 1919.96 146.139 1911.01 146.889C1909.28 147.03 1907.4 147.264 1907.4 149.326C1907.4 154.106 1904.26 153.824 1901.03 153.778C1897.7 153.731 1893.91 152.793 1894.24 158.464C1894.33 160.104 1892.69 160.479 1890.96 160.338C1886.83 160.057 1882.71 159.541 1878.49 160.057C1875.87 160.385 1874.83 160.853 1874.98 163.243C1875.12 166.383 1873.24 166.523 1870.85 166.523C1864.99 166.477 1859.09 166.523 1853.23 166.523C1851.4 166.523 1849.39 166.43 1849.53 169.101C1849.67 172.194 1847.84 172.428 1845.45 172.428C1826.85 172.428 1808.25 172.428 1789.64 172.428C1787.82 172.428 1785.75 172.522 1785.89 169.851C1786.03 166.336 1783.74 166.523 1781.35 166.523C1773.52 166.523 1765.7 166.523 1757.87 166.523C1755.29 166.523 1753.37 166.336 1753.47 162.962C1753.56 159.682 1751.12 159.073 1748.73 159.869C1742.36 161.931 1736.13 158.792 1729.85 159.541C1728.87 159.682 1727.55 159.166 1727.74 158.042C1728.63 152.325 1724.55 153.871 1721.65 153.731C1720.52 153.684 1719.35 153.731 1718.23 153.731L1718.13 153.637Z" fill="#0D0D1A"/>
<path d="M940.909 114.321C940.487 114.696 940.065 115.118 939.643 115.493C937.816 116.102 935.988 116.242 934.114 115.68C934.489 114.837 935.192 114.415 936.035 114.509C939.643 114.93 939.878 112.822 939.878 110.01C939.878 102.747 939.971 102.747 932.614 102.747C930.505 102.747 928.35 102.653 926.241 102.747C923.289 102.887 920.993 102.372 921.18 98.6229C921.321 95.9987 919.54 95.8581 917.572 95.8581C911.715 95.8581 905.81 95.8113 899.953 95.8581C897.328 95.905 895.454 95.5301 895.688 92.2499C895.829 90.2349 894.845 89.7194 892.642 89.7663C879.756 89.9537 866.869 89.9537 853.983 89.7663C851.968 89.7663 850.609 89.8132 850.749 92.0156C851.03 95.6238 848.922 95.9987 846.157 95.8113C844.517 95.7176 842.877 95.7644 841.284 95.8113C840.487 95.8113 838.987 96.0924 838.987 96.1862C839.503 102.465 829.428 103.262 831.63 110.525C832.661 113.899 831.537 115.961 827.413 115.118C825.538 114.743 825.304 116.242 825.257 117.601C825.163 119.897 825.257 122.147 825.257 124.443C825.257 126.224 824.742 127.957 822.727 127.957C818.837 127.957 819.447 130.628 819.4 133.065C819.353 136.814 820.571 141.453 814.104 141.031C813.683 141.031 812.792 141.828 812.792 142.203C812.933 149.185 806.982 146.795 803.936 147.17C801.077 147.545 799.672 147.686 799.812 150.685C799.906 153.215 798.359 153.59 796.344 153.543C783.598 153.543 770.899 153.543 758.153 153.543C755.998 153.543 754.732 152.981 754.779 150.544C754.826 148.295 755.482 146.374 758.06 146.842C761.246 147.451 761.715 145.905 761.621 143.375C761.574 141.406 761.527 139.438 761.621 137.517C761.762 135.127 760.965 133.768 758.341 133.956C756.935 134.049 754.873 134.237 754.967 132.175C755.107 128.426 753.092 127.583 750.093 128.145C747.047 128.754 741.94 125.521 741.893 132.315C741.893 134.049 740.159 133.956 738.847 133.956C737.347 133.956 736.176 133.487 736.27 131.8C736.41 129.129 735.332 127.817 732.568 128.098C732.427 128.098 732.146 128.098 732.099 128.098C730.224 123.459 724.133 122.287 723.055 117.226C722.633 115.165 721.508 115.446 720.337 115.446C716.26 115.399 712.183 115.399 708.106 115.446C705.67 115.446 703.795 114.79 703.936 111.978C704.076 108.979 702.39 108.557 699.953 108.604C690.487 108.698 681.021 108.604 671.555 108.604C670.431 108.604 669.259 108.604 668.135 108.604C663.87 108.323 667.244 103.543 664.948 102.747C662.792 101.95 659.278 103.918 658.997 99.7475C658.809 97.2171 658.341 95.6238 655.389 95.8581C654.358 95.9519 653.374 95.577 653.139 94.4054C652.811 92.7185 653.092 90.4223 650.703 90.188C647.797 89.9069 643.299 88.9697 642.221 90.3755C639.831 93.5151 636.035 95.0615 634.114 97.4983C632.286 99.8413 629.147 101.856 628.491 103.449C624.789 112.259 617.666 107.292 612.23 108.51C610.496 108.885 608.669 108.651 606.841 108.51C603.702 108.37 601.452 108.557 600.796 112.822C600.093 117.273 595.735 114.883 592.971 115.305C590.815 115.633 588.425 115.352 588.425 112.353C588.425 109.776 587.675 108.276 584.817 108.51C583.786 108.604 582.943 108.182 582.615 107.011C582.193 105.558 583.177 103.168 580.927 102.934C577.694 102.559 574.414 102.793 571.181 102.934C570.759 102.934 570.15 103.684 569.962 104.199C569.353 105.699 570.478 108.229 567.76 108.417C564.339 108.651 560.918 108.51 557.497 108.417C556.513 108.417 556.373 107.479 556.56 106.542C557.45 102.465 554.826 102.559 552.015 102.653C546.485 102.747 540.909 102.7 535.379 102.653C532.896 102.653 530.131 102.981 531.256 98.8103C531.818 96.7485 530.178 95.905 528.303 95.8581C525.867 95.8113 523.43 95.8581 520.946 95.8113C518.697 95.7644 517.807 94.4523 517.807 92.2968C517.807 90.2349 518.603 89.4383 520.806 89.5788C522.727 89.7194 524.648 89.0165 526.57 89.0165C529.1 89.0165 531.068 88.8759 530.927 85.4083C530.834 82.7841 533.224 83.159 534.958 83.1121C540.487 83.0653 546.063 83.0653 551.593 83.1121C554.405 83.1121 556.935 83.1121 556.513 79.0821C556.232 76.458 558.528 76.458 560.168 76.3642C563.261 76.1768 566.354 76.3643 569.447 76.2705C572.399 76.2705 575.96 77.2077 575.726 72.1C575.632 70.413 577.413 70.413 578.725 70.413C583.13 70.413 587.535 70.413 591.94 70.413C593.486 70.413 595.032 70.5535 595.032 72.6154C595.032 78.5198 599.531 75.8488 602.202 76.1768C604.733 76.5048 608.153 77.3014 607.919 72.6154C607.872 71.5376 608.388 70.4598 609.512 70.5536C615.042 70.8816 613.636 66.8516 613.73 63.8525C613.823 60.6192 612.933 56.9172 618.322 57.4795C619.353 57.5732 620.384 56.6361 620.337 55.6988C619.962 49.3727 624.508 50.6379 627.928 50.9191C631.537 51.2471 634.067 51.0597 633.364 46.4205C633.13 44.8741 634.067 44.6398 635.52 44.7804C637.628 45.0147 639.737 44.8741 641.893 44.921C644.33 45.0147 646.204 44.2649 646.016 41.4064C645.876 38.3605 647.61 37.9388 650.046 38.0325C652.999 38.1262 655.904 38.0325 658.856 38.0325C662.277 38.0325 666.588 36.861 665.792 42.9997C665.651 44.0775 666.588 44.7804 667.666 44.7804C670.431 44.7804 673.195 44.8741 675.96 44.6866C677.46 44.5929 678.256 43.4683 678.303 42.0156C678.303 39.4851 679.287 37.9856 682.005 37.9388C684.395 37.9388 684.255 36.0644 684.255 34.4243C684.255 32.7841 684.395 31.144 684.255 29.5508C683.973 26.458 685.051 25.1928 688.378 25.2396C696.532 25.4271 704.686 25.2865 712.839 25.2865C714.667 25.2865 716.869 25.1928 716.494 27.8638C715.932 31.8001 718.556 31.8469 721.134 32.0344C722.914 32.1749 724.742 32.0812 726.523 32.1281C727.694 32.1281 729.194 32.2687 729.147 33.7213C728.959 39.6257 733.27 37.7982 736.316 37.9856C739.456 38.1731 743.392 37.0953 742.314 42.7185C742.221 43.234 743.205 44.4524 743.673 44.4524C747.282 44.4992 748.359 46.2799 749.625 49.6539C750.656 52.3249 755.248 50.4036 758.247 50.6848C760.121 50.8722 761.387 49.935 761.574 47.92C761.574 47.7794 761.621 47.592 761.574 47.4514C761.34 43.0934 767.104 46.5142 767.291 43.0934C767.478 40.0943 767.432 37.4702 771.649 37.8919C772.867 38.0325 774.086 37.1422 774.086 35.9238C773.992 31.5189 777.038 32.0812 779.756 32.1281C782.521 32.1281 785.285 32.1749 788.097 32.1281C790.721 32.0344 793.392 32.1281 793.064 28.145C792.877 26.13 794.423 25.3802 796.298 25.3333C802.999 25.3333 809.7 25.3333 816.354 25.3333C818.791 25.3333 819.728 26.5517 819.212 28.6604C818.416 31.9406 820.243 32.2218 822.68 32.1749C824.648 32.1281 826.616 32.1749 828.537 32.1749C830.506 32.1281 832.239 31.6595 831.443 28.9884C830.787 26.6923 831.865 25.3333 834.067 25.427C837.628 25.6145 837.956 23.6932 837.956 20.8816C837.956 12.6342 838.05 12.6342 846.297 12.6342C852.811 12.6342 859.372 12.6342 865.885 12.6342C867.525 12.6342 869.962 12.681 869.868 10.7598C869.587 4.48049 874.414 6.30806 877.225 6.30806C880.459 6.30806 883.598 6.96409 886.832 6.07374C888.706 5.55828 889.456 6.68294 889.034 8.65107C888.472 11.3221 889.784 12.7279 892.502 12.6342C895.173 12.4936 895.969 13.8057 895.641 16.2424C895.548 16.9922 895.173 17.6951 896.016 18.4449C898.5 20.6473 907.825 18.3043 908.387 15.1178C908.903 12.0719 911.012 12.7279 912.839 12.7279C922.446 12.7279 932.099 12.7279 941.705 12.7279C943.626 14.7429 942.97 17.3202 943.111 19.6632C943.298 23.6932 942.736 27.7701 944.189 31.6595C944.845 33.159 945.032 34.6586 944.517 36.2518C943.017 37.7045 941.096 38.876 941.143 41.3596C941.143 50.6848 941.002 59.9631 941.237 69.2883C941.237 69.9444 941.049 69.2415 941.377 69.7101C941.846 70.3661 942.033 69.7101 942.174 69.2415C942.314 61.5564 942.174 53.9181 942.267 46.2799C942.267 44.3586 942.033 42.3436 942.97 40.5161C943.345 39.9538 943.814 39.6726 944.47 39.5789C945.126 39.5789 945.688 39.8132 946.11 40.3286C947.328 42.2499 947 44.4055 947 46.4674C947 54.7148 947.094 62.9622 947 71.2096C947 74.5835 945.923 77.0203 941.799 76.1299C941.705 76.1299 941.611 76.1299 941.518 76.1768C941.518 76.3174 941.611 76.5048 941.658 76.6923C941.799 77.2546 941.799 77.8169 941.658 78.3792C940.955 87.7044 940.908 97.0296 941.471 106.355C941.658 109.166 941.096 111.697 940.815 114.368L940.909 114.321Z" fill="#0D0D1A"/>
<path d="M477.413 121.35C473.149 121.35 468.932 121.35 464.667 121.35C462.746 121.35 460.965 121.444 461.059 124.068C461.2 127.255 459.794 127.817 456.561 127.957C440.113 128.567 423.618 127.957 407.17 128.239C404.639 128.239 403.093 127.77 403.233 124.818C403.374 121.959 401.453 121.35 399.016 121.397C395.923 121.444 392.83 121.397 389.738 121.397C386.739 121.397 383.318 122.287 383.505 117.18C383.599 115.211 381.397 115.539 379.991 115.539C374.461 115.539 368.885 115.446 363.355 115.539C360.403 115.586 358.154 115.211 358.154 111.463C358.154 109.12 356.326 108.651 354.358 108.651C350.422 108.651 346.486 108.417 342.643 108.792C340.113 109.026 338.801 108.37 338.754 105.933C338.754 103.215 337.301 102.653 335.005 102.747C332.24 102.84 329.475 102.747 326.711 102.747C323.149 102.84 319.635 103.168 319.916 97.7794C320.01 95.7175 318.041 95.8113 316.589 95.905C313.543 96.1393 313.168 94.4055 313.168 91.9219C313.168 88.9697 314.949 88.6885 317.057 89.2039C319.447 89.7194 320.103 88.5479 319.963 86.6267C319.728 83.2058 321.837 83.0652 324.368 83.159C327.976 83.2527 331.537 83.2058 335.145 83.159C337.488 83.159 339.972 83.2996 338.941 79.457C338.332 77.0672 340.113 76.4111 342.174 76.3174C343.627 76.2705 345.502 76.4579 345.361 74.3024C345.22 71.725 345.361 69.382 348.688 70.5067C351.921 71.5845 356.233 67.4608 358.763 73.9275C359.935 76.9266 364.714 79.457 367.245 82.9715C367.854 83.815 370.666 83.159 372.446 83.1121C375.211 83.0653 377.788 83.0653 377.882 86.9078C377.929 89.3445 379.991 88.9697 381.537 88.9697C387.067 88.9697 392.643 89.0634 398.173 88.9697C401.125 88.9228 403.468 89.2977 403.28 93.0465C403.14 95.2021 404.405 95.8581 406.373 95.8113C408.341 95.7644 410.309 95.8581 412.231 95.8113C414.433 95.7176 416.214 96.0456 415.979 98.904C415.792 101.481 417.01 101.763 419.494 102.044C422.727 102.419 425.961 102.606 429.194 102.653C432.287 102.7 435.942 101.622 435.895 107.011C435.895 109.12 438.472 108.51 439.972 108.51C451.734 108.557 463.449 108.51 475.211 108.51C477.788 108.51 480.74 107.854 479.803 112.353C479.428 114.274 480.928 115.305 482.849 115.305C485.145 115.305 487.441 115.399 489.691 115.118C492.737 114.696 492.456 116.477 492.83 118.585C493.252 121.256 491.94 121.256 490.159 121.256C485.942 121.256 481.678 121.256 477.413 121.256V121.35Z" fill="#0D0D1A"/>
<path d="M236.832 70.4598C234.349 67.6482 234.676 64.1805 234.958 60.9003C235.286 56.8703 233.88 55.5114 229.803 55.6988C223.664 56.0269 217.526 55.7925 211.387 55.7925C211.387 54.4805 211.387 53.1684 211.387 51.8563C218.603 50.7785 225.867 51.5751 233.13 51.4345C235.52 51.3877 237.816 51.622 237.347 48.0606C236.879 44.4055 240.347 46.1862 241.705 45.0147C243.346 45.0147 244.986 45.0147 246.579 45.0147C248.266 45.0147 249.672 45.4833 249.437 47.4045C248.969 50.9659 250.703 51.3877 253.655 50.9191C255.576 50.6379 257.544 50.9191 259.512 50.8254C260.496 50.8254 261.902 50.7316 261.902 49.6539C261.855 42.906 266.823 45.2021 270.243 45.0147C273.008 44.8741 275.07 44.4992 275.07 41.0784C275.07 39.1103 276.288 38.1731 278.21 38.1262C280.506 38.1262 282.755 38.1262 285.051 38.1262C286.504 38.1262 287.769 38.5948 287.675 40.2818C287.488 43.562 288.847 45.1552 292.174 45.0615C293.439 45.0615 294.611 46.0456 294.33 47.2171C293.627 50.0756 294.611 51.4345 297.376 50.7316C300.703 49.8881 305.623 53.5901 307.216 47.6389C307.638 45.9987 308.013 44.7804 309.887 44.921C312.98 45.1553 313.355 43.2808 313.214 40.891C313.121 39.1571 313.777 38.0793 315.698 38.0793C317.526 38.0793 319.775 38.0793 319.822 40.3755C319.869 45.0615 322.821 44.8741 326.101 44.9678C328.21 45.0147 331.302 43.6557 332.333 46.1393C333.505 49.0915 333.317 52.6529 332.427 55.7457C331.584 58.651 328.491 57.1515 326.429 57.4795C323.43 57.995 319.775 56.4954 319.728 61.9312C319.728 64.3211 316.869 63.4308 315.229 63.4776C299.25 63.5245 283.317 63.4776 267.338 63.5245C265.604 63.5245 263.73 62.9153 262.23 64.4617C262.324 69.0072 260.215 70.2255 255.717 69.9912C249.437 69.6632 243.064 69.2415 236.785 70.3661L236.832 70.4598Z" fill="#0D0D1A"/>
</svg>
