<svg width="1920" height="252" viewBox="0 0 1920 252" fill="none" xmlns="http://www.w3.org/2000/svg">
<path d="M1042.61 6.89165C1042.55 2.38913 1044.77 0.137891 1049.27 0.137891C1052.94 0.137891 1056.62 0.137891 1060.3 0.137891C1063.65 0.137891 1067.19 -0.597219 1066.77 4.87012C1066.59 7.48892 1069.21 6.79976 1070.82 6.79976C1080.88 6.8457 1090.99 6.79976 1101.05 6.79976C1103.21 6.79976 1105.23 6.47816 1104.54 10.0618C1103.99 13.0022 1106.75 12.5428 1108.58 12.5428C1119.79 12.5428 1130.96 12.5887 1142.17 12.5428C1145.34 12.5428 1148.51 12.2671 1148.28 16.9534C1148.28 17.0912 1148.28 17.3669 1148.37 17.4128C1152.09 18.883 1154.16 22.0072 1156.82 24.672C1158.25 26.0962 1160.55 26.6016 1161.01 29.3123C1161.37 31.4257 1163.07 31.8392 1165.05 31.7933C1170.47 31.7014 1175.94 31.7474 1181.36 31.7933C1183.7 31.7933 1185.59 31.3798 1185.59 28.5313C1185.59 25.3611 1187.65 25.0395 1190.13 25.0855C1197.67 25.0855 1205.16 25.1774 1212.69 25.0855C1215.49 25.0855 1217.42 25.7287 1217.29 29.0367C1217.15 31.9311 1219.17 31.8393 1221.19 31.8393C1228.86 31.8393 1236.54 31.8393 1244.21 31.8393C1246.09 31.8393 1248.57 31.5636 1248.71 34.1824C1248.9 37.812 1251.1 37.6741 1253.58 37.6282C1256.48 37.5822 1259.33 37.5822 1262.22 37.6282C1264.88 37.6741 1267.37 37.9039 1267.32 33.9067C1267.27 31.242 1269.71 31.8852 1271.32 31.8393C1278.99 31.7933 1286.66 31.7474 1294.33 31.8393C1297 31.8393 1299.07 31.7474 1298.93 28.1637C1298.79 25.2233 1301.13 25.1314 1303.29 25.1314C1311.15 25.1314 1318.96 25.0395 1326.82 25.2693C1329.11 25.3612 1330.63 25.4071 1330.49 22.6045C1330.4 20.4911 1331.09 19.2965 1333.48 19.3884C1335.59 19.4344 1336.37 20.4451 1336.24 22.3748C1335.91 27.3367 1342.9 23.3396 1342.71 27.4746C1342.53 32.2527 1345.38 32.023 1348.59 31.9311C1351.49 31.8392 1354.34 31.9311 1357.23 31.9311C1359.76 31.9311 1362.38 32.1609 1361.28 28.2097C1361.14 27.7962 1361.41 26.8773 1361.5 26.8773C1366.56 26.6476 1367.2 20.583 1371.43 19.4803C1372.94 19.0668 1373.63 18.4695 1373.68 16.9534C1373.77 13.3238 1375.98 12.6347 1379.15 12.6806C1388.57 12.8184 1398.03 12.7725 1407.45 12.6806C1410.25 12.6806 1412.18 13.2779 1412.04 16.5858C1412 17.9642 1412.27 19.3425 1413.97 19.2965C1416.87 19.1587 1418.02 20.3992 1417.92 23.2477C1417.88 24.9476 1419.3 25.1314 1420.68 25.1774C1427.39 25.4071 1434.1 24.7179 1440.8 25.5449C1442.09 25.6827 1443.33 24.7639 1443.1 23.6612C1442.41 20.2614 1444.02 19.3884 1446.96 19.2965C1448.98 19.2046 1449.49 17.6426 1449.53 15.8967C1449.53 13.7373 1450.73 12.7265 1452.84 12.7265C1455.18 12.7265 1455.32 14.2886 1455.28 15.9886C1455.28 18.7911 1456.98 19.4803 1459.37 19.4344C1462.58 19.3884 1465.75 19.2965 1468.97 19.4344C1472.37 19.6181 1475.12 19.4803 1474.57 14.84C1474.34 12.8184 1476.09 12.7265 1477.61 12.7265C1479.35 12.7265 1481.14 13.186 1481.05 15.2075C1480.78 19.6641 1483.53 19.4803 1486.56 19.4344C1493.78 19.3425 1500.94 19.4344 1508.16 19.4344C1509.95 19.4344 1511.97 19.2506 1511.88 21.8694C1511.74 25.7287 1514.41 25.1774 1516.8 25.1774C1536.46 25.1774 1556.12 25.1774 1575.83 25.1774C1578.5 25.1774 1581.16 24.9936 1581.07 28.8988C1581.07 30.8285 1580.43 31.9311 1578.31 31.8852C1576.38 31.8852 1574.46 31.9311 1572.57 31.8852C1570.23 31.7933 1568.48 32.1149 1568.53 35.1013C1568.53 38.4552 1565.82 37.6282 1563.93 37.6282C1550.66 37.6741 1537.38 37.6282 1524.1 37.6282C1519.18 37.6282 1514.22 37.6282 1509.31 37.6282C1507.33 37.6282 1505.36 37.5822 1505.59 40.6145C1505.86 43.8766 1503.79 44.4738 1500.99 44.3819C1495.25 44.2441 1489.46 44.336 1483.72 44.3819C1482.34 44.3819 1480.68 43.9685 1481.01 46.4035C1481.56 50.6763 1479.17 51.5492 1475.58 51.1357C1474.48 50.9979 1473.33 51.0898 1472.23 51.0438C1470.81 51.0438 1468.51 49.0682 1468.55 52.4681C1468.55 54.9031 1468.74 57.0625 1472.46 56.9706C1483.35 56.7409 1494.19 56.8787 1505.08 56.8787C1512.43 56.8787 1519.78 56.8787 1527.13 56.8787C1529.34 56.8787 1531.64 56.8787 1531.08 60.0029C1530.44 63.5865 1532.88 63.5406 1535.13 63.5406C1542.66 63.5865 1550.15 63.5406 1557.69 63.5865C1559.94 63.5865 1562.74 62.7595 1562.19 66.9864C1561.91 69.0079 1563.98 69.3295 1565.68 69.3295C1568.71 69.3295 1571.74 69.3295 1574.78 69.3295C1578.13 69.2836 1581.62 68.6404 1581.44 73.9699C1581.35 75.9455 1583.55 76.0373 1585.16 76.0373C1589.02 76.0373 1592.83 76.0373 1596.69 76.0373C1598.07 76.0373 1600.18 75.7617 1600.14 77.6454C1599.95 82.6533 1603.35 81.7344 1606.29 81.7803C1609.74 81.7803 1613.83 80.8615 1612.96 86.7423C1612.82 87.799 1613.83 88.4422 1614.89 88.3963C1617.46 88.2585 1618.65 89.2233 1618.75 91.934C1618.84 93.9555 1620.63 94.2312 1622.33 94.2312C1625.87 94.2312 1629.36 94.1393 1632.9 94.2312C1635.65 94.3231 1638.09 94.369 1637.9 90.4638C1637.81 88.4422 1639.6 88.4882 1641.03 88.4882C1649.53 88.4882 1657.98 88.4882 1666.48 88.4882C1666.94 88.4882 1667.86 88.4882 1667.86 88.5801C1668 93.4961 1674.38 93.4501 1675.16 97.6311C1675.67 100.296 1676.63 100.847 1679.35 100.571C1682.93 100.204 1686.65 100.801 1690.28 100.939C1692.67 101.031 1694.51 100.342 1694.37 97.5391C1694.23 94.5987 1695.89 94.0934 1698.27 94.1852C1700.98 94.2771 1703.7 94.2771 1706.45 94.1852C1709.9 94.0934 1713.21 93.542 1712.88 99.0093C1712.7 101.812 1715.78 100.847 1717.48 100.847C1742.93 100.893 1768.34 100.847 1793.79 100.847C1799.21 100.847 1804.68 100.847 1810.1 100.847C1811.8 100.847 1813.46 100.801 1813.41 98.458C1813.36 96.4365 1812.95 94.5068 1810.47 94.2312C1808.72 94.0474 1806.93 94.0934 1805.19 94.1852C1802.66 94.3231 1800.82 94.0015 1800.87 90.7394C1800.87 87.7071 1798.34 88.4422 1796.59 88.4422C1783.18 88.3963 1769.72 88.3504 1756.3 88.4422C1753.13 88.4422 1750.56 88.4423 1750.97 84.0316C1751.25 81.3669 1748.9 81.6885 1747.2 81.6885C1741.28 81.6885 1735.35 81.6425 1729.47 81.6885C1726.99 81.6885 1724.97 81.5506 1725.15 78.2427C1725.24 76.313 1723.96 75.8536 1722.3 75.8995C1720.56 75.8995 1718.77 75.8076 1717.02 75.8995C1713.99 76.0833 1712.61 74.7969 1712.7 71.6727C1712.84 67.8593 1712.75 64 1712.7 60.1407C1712.7 58.2111 1712.93 56.649 1715.46 56.649C1717.8 56.649 1719.64 56.7868 1719.45 59.8651C1719.32 62.6217 1721.02 63.4028 1723.45 63.3568C1726.81 63.3109 1730.16 63.3568 1733.51 63.3568C1736.13 63.3568 1738.52 63.0352 1737.79 59.3597C1737.79 59.2219 1737.74 58.9003 1737.79 58.9003C1742.06 57.476 1743.76 52.9735 1747.2 50.7222C1749 49.5736 1751.62 49.8033 1750.83 46.4035C1750.33 44.2441 1752.17 44.1982 1753.59 44.1982C1756.81 44.1522 1759.98 44.1982 1763.19 44.1982C1766.32 44.1982 1769.99 43.2333 1769.49 48.6088C1769.35 50.2628 1770.87 50.1709 1772.29 50.1249C1776.7 49.9871 1781.16 50.1249 1785.57 50.1249C1787.68 50.1249 1788.55 51.2736 1788.42 53.1113C1788.19 56.3274 1789.98 56.7409 1792.6 56.6949C1800.59 56.6031 1808.59 56.6949 1816.58 56.6949C1818.37 56.6949 1820.12 57.0166 1819.61 53.9843C1819.29 52.0087 1820.81 50.86 1822.97 50.906C1826 50.9519 1829.03 50.906 1832.06 50.906C1835.1 50.906 1838.91 49.8493 1838.54 55.1329C1838.54 55.5004 1839 56.2355 1839.28 56.2355C1843.59 56.1896 1845.39 58.0273 1845.2 62.5298C1845.16 63.9541 1862.66 63.5865 1863.4 61.9785C1863.67 61.3353 1863.4 60.4624 1863.4 59.6813C1863.26 57.7517 1863.9 56.5571 1866.06 56.6949C1868.91 56.8787 1870.2 55.5923 1870.15 52.7438C1870.15 51.5952 1870.7 50.125 1871.99 50.4006C1876.81 51.3195 1875.8 47.8737 1875.85 45.3927C1875.94 40.4308 1875.85 35.4688 1875.85 30.5069C1875.85 29.4042 1875.66 27.4286 1876.03 27.2908C1880.26 25.8206 1882.05 21.5018 1885.59 19.3884C1886.6 18.7911 1888.25 19.0209 1888.25 17.3209C1888.25 12.2212 1891.7 12.5887 1895.19 12.5428C1897.95 12.4968 1902.22 14.1508 1901.12 8.22403C1900.84 6.57004 1902.95 6.84571 1904.15 6.84571C1909.43 6.84571 1914.72 6.84571 1920 6.84571V214.191C1916.92 214.375 1912.79 212.767 1913.11 218.464C1913.11 218.739 1912.83 219.245 1912.69 219.245C1908.61 219.337 1907.09 221.726 1906.86 225.493C1906.81 226.228 1905.67 226.458 1904.84 226.228C1901.21 225.218 1897.53 225.861 1893.86 225.769C1891.01 225.723 1888.21 225.907 1888.25 221.818C1888.25 220.991 1887.75 220.072 1886.87 220.164C1883.15 220.439 1883.57 216.856 1882.1 215.569C1879.29 213.042 1875.99 211.434 1873.78 207.851C1872.95 206.518 1868.08 207.621 1865.05 207.667C1864.91 207.667 1864.59 207.759 1864.59 207.759C1865.37 213.594 1856.05 212.169 1857.06 218.326C1857.47 220.761 1855.13 219.934 1853.98 219.98C1848.05 220.072 1842.12 220.072 1836.24 219.98C1833.76 219.98 1831.79 220.302 1831.7 223.472C1831.6 226.228 1829.44 226.09 1827.51 226.045C1821.45 225.953 1815.39 225.631 1809.32 225.861C1805.69 225.999 1801.05 224.896 1800.68 231.144C1800.55 233.166 1798.06 232.293 1796.59 232.431C1795.26 232.523 1794.76 231.925 1794.66 230.409C1794.53 228.25 1794.89 225.309 1790.9 226.228C1790.02 226.412 1788.6 225.493 1788.65 224.161C1788.74 219.842 1785.89 219.888 1782.81 219.934C1779.27 220.026 1775.78 219.934 1772.24 219.934C1770.96 219.934 1768.89 219.934 1769.12 221.312C1769.85 225.493 1768.2 226.917 1764.3 226.78C1763.42 226.78 1762.92 227.469 1762.73 228.342C1762.37 229.766 1763.24 232.017 1760.99 232.247C1758.14 232.523 1755.24 232.339 1752.4 232.201C1751.52 232.201 1751.16 231.19 1751.2 230.363C1751.34 226.136 1749.09 226.136 1745.6 226.504C1738.15 227.377 1738.11 227.101 1737.69 235.095C1737.69 235.555 1737.79 236.428 1737.65 236.474C1733.19 237.714 1732.64 243.182 1728.92 244.744C1726.71 245.663 1725.11 246.076 1725.24 248.695C1725.34 251.038 1724.09 251.727 1721.98 251.635C1718.77 251.543 1715.59 251.543 1712.38 251.635C1709.3 251.727 1706.36 251.865 1706.91 247.408C1706.91 247.133 1706.82 246.581 1706.68 246.536C1702.55 245.617 1700.98 241.298 1698.04 239.552C1695.2 237.898 1694.6 236.566 1694.55 233.901C1694.32 224.482 1696.07 226.596 1686.65 225.907C1679.85 225.401 1672.91 224.988 1666.11 226.412C1664.09 226.826 1663.13 225.723 1662.94 223.839C1662.85 222.874 1662.71 221.955 1662.58 220.991C1656.6 221.818 1657.02 214.788 1652.65 212.905C1649.71 211.618 1648.42 206.932 1644.01 206.105C1642.77 205.875 1645.12 201.143 1641.58 200.959C1636.66 200.683 1631.7 200.959 1626.74 201.097C1625.87 201.097 1625.59 202.108 1625.54 202.935C1625.41 204.635 1625.73 206.886 1623.52 207.299C1620.4 207.851 1617.09 208.126 1614.06 207.116C1612.31 206.518 1613.23 204.267 1613 202.751C1612.36 202.383 1611.62 202.383 1610.93 202.291C1607.26 201.786 1603.49 202.889 1599.91 201.419C1599.45 201.143 1599.17 200.729 1599.08 200.224C1599.17 196.962 1597.15 196.411 1594.44 196.411C1588.47 196.411 1582.45 196.686 1576.48 196.227C1574.09 195.721 1573.9 193.792 1573.63 191.908C1573.49 191.495 1573.35 191.081 1573.17 190.668C1572.85 190.346 1572.48 190.07 1572.07 189.887C1567.93 189.473 1563.8 189.519 1559.71 189.749C1554.56 190.07 1550.1 189.427 1547.26 184.557C1545.19 184.052 1543.12 184.235 1541.05 184.052C1538.66 183.868 1536.55 183.225 1535.91 180.606C1535.17 177.803 1533.11 177.482 1530.76 177.436C1528.19 177.436 1525.66 177.528 1523.09 177.344C1521.16 177.206 1519 177.022 1518.17 175.001C1516.84 171.785 1514.27 171.693 1511.47 171.693C1493.41 171.693 1475.35 171.693 1457.3 171.693C1454.68 171.693 1452.24 171.785 1450.91 174.725C1449.85 177.114 1447.42 177.252 1445.12 177.344C1440.34 177.528 1435.52 177.344 1430.74 177.436C1428.58 177.482 1426.56 177.803 1425.69 180.238C1424.59 183.317 1422.06 184.006 1419.16 184.098C1417.23 184.144 1415.31 184.281 1413.42 184.098C1410.07 183.868 1407.45 184.787 1406.25 188.233C1402.99 190.438 1399.04 188.324 1395.64 189.841C1394.54 189.933 1393.57 189.749 1392.79 188.922C1391.55 187.543 1392.65 185.108 1390.63 184.098C1385.95 184.098 1381.31 183.454 1376.71 184.557C1374.64 185.66 1375.24 189.519 1371.89 189.289C1371.66 189.289 1371.43 189.243 1371.2 189.197C1369.18 188.095 1368.26 188.692 1368.3 191.035C1368.35 192.689 1368.17 194.803 1366.19 194.711C1361.18 194.481 1361.55 197.605 1361.6 200.913C1361.69 207.437 1361.6 207.437 1355.16 207.437C1344.28 207.437 1333.39 207.391 1322.54 207.437C1319.97 207.437 1318.32 207.07 1318.32 203.9C1318.32 199.856 1315.01 200.867 1312.62 200.729C1309.54 200.546 1305.54 202.016 1305.64 196.411C1305.64 194.757 1303.8 195.032 1302.56 194.986C1299.99 194.894 1296.17 195.905 1295.16 194.665C1292.68 191.587 1288.73 188.922 1287.49 186.349C1285.61 182.536 1283.81 182.49 1280.87 182.49C1278.3 182.49 1275.77 182.49 1273.2 182.49C1270.4 182.49 1267.37 181.754 1267.41 186.441C1267.46 190.07 1260.7 186.027 1261.21 191.632C1261.71 197.375 1256.8 194.343 1254.27 194.894C1252.11 195.354 1249.81 195.032 1247.56 194.986C1244.94 194.94 1243.57 195.216 1242.14 198.478C1240.86 201.419 1235.94 202.751 1235.62 207.207C1231.85 206.886 1229.78 208.31 1229.6 212.399C1229.6 213.502 1227.62 213.042 1226.66 213.594C1225.42 214.237 1223.44 214.558 1223.81 216.304C1224.68 220.485 1221.84 219.842 1219.54 219.934C1216.64 220.026 1213.79 219.98 1210.9 219.934C1207.78 219.888 1204.56 219.383 1205.02 224.299C1205.16 225.723 1204.01 226.412 1202.4 226.228C1194.13 225.126 1185.81 225.999 1177.5 225.723C1175.39 225.677 1173 225.999 1173.92 222.553C1174.01 222.139 1173.73 221.266 1173.55 221.266C1169.18 220.715 1168.54 216.213 1165.92 214.283C1163.62 212.583 1161.46 211.802 1160.64 208.586C1160.09 206.472 1157.24 207.713 1155.45 207.529C1152.18 207.207 1147.86 208.815 1148.78 202.521C1149.11 200.316 1146.53 200.821 1145.06 200.821C1137.39 200.775 1129.72 200.775 1122.04 200.821C1119.89 200.821 1117.82 200.959 1117.82 197.789C1117.82 195.492 1116.07 195.032 1114.1 195.032C1112.49 195.032 1110.88 195.032 1109.32 195.032C1108.35 195.032 1106.61 195.032 1106.56 194.849C1106.06 189.887 1100.54 188.968 1098.84 185.2C1098.06 183.454 1097.6 182.398 1095.67 182.536C1093.1 182.765 1091.68 181.846 1091.95 179.044C1092.23 176.471 1090.85 175.736 1088.46 175.782C1084.78 175.874 1081.11 175.782 1077.43 175.782C1075.32 175.782 1073.53 175.598 1073.71 172.795C1073.9 169.625 1072.29 169.487 1069.48 169.625C1062 170.039 1054.51 169.763 1046.97 170.039C1043.2 170.177 1041.64 168.706 1042.01 164.985C1042.15 163.561 1042.01 162.09 1042.01 160.666C1042.01 160.023 1042.01 158.828 1041.92 158.828C1036.73 158.461 1037.05 151.661 1032.36 150.788C1031.03 150.559 1029.51 150.559 1029.65 148.813C1029.93 144.448 1026.99 144.953 1024.28 144.953C1018.53 144.953 1012.74 144.953 1007 144.953C1005.48 144.953 1003.46 144.586 1004.29 147.388C1004.93 149.594 1004.15 150.696 1001.72 150.742C999.328 150.742 998.777 149.502 998.777 147.434C998.823 138.016 998.777 128.551 998.777 119.133C992.207 119.271 991.564 118.811 991.656 112.012C991.747 104.293 991.012 96.5284 992.115 88.8557C993.401 86.9261 994.826 85.7316 996.985 87.799C994.918 91.3827 996.158 95.2879 995.928 99.0093C995.745 101.95 995.836 104.936 995.928 106.774C996.526 101.444 994.918 94.9203 996.755 88.4882C997.031 88.2584 997.536 88.1206 997.582 88.2585C999.374 93.3583 1003.6 92.715 1007.69 92.6231C1012.28 92.5312 1017.15 91.934 1019.22 97.8607C1019.73 99.331 1021.61 99.1931 1023.04 99.285C1025.75 99.4229 1028.46 99.285 1031.17 99.4229C1032.96 99.5147 1035.12 99.5607 1035.85 101.261C1037.65 105.487 1041.14 105.212 1044.67 105.12C1048.4 105.028 1052.49 105.947 1054.23 101.031C1054.64 99.8363 1056.34 99.6985 1057.45 99.1012C1060.16 97.677 1059.74 95.196 1059.56 92.8069C1059.38 90.5097 1057.63 90.0503 1055.79 89.9584C1051.61 89.7746 1047.34 90.1881 1046.19 84.3992C1045.87 82.6992 1043.43 83.2046 1041.92 83.1587C1038.61 83.0668 1035.53 82.883 1034.11 79.0237C1033.33 76.9562 1031.17 77.3697 1029.51 77.3697C1026.11 77.3697 1023.17 76.9103 1022.02 72.9132C1021.43 70.8457 1019.5 70.6619 1017.71 70.6619C1011.18 70.57 1004.61 70.6619 998.088 70.616C995.423 70.616 993.355 71.1213 992.896 74.2455C992.758 75.2104 992.023 75.8995 991.058 76.359C990.185 76.5427 989.404 76.359 988.761 75.7157C986.877 69.1458 988.302 62.392 987.888 55.7301C987.704 52.8816 988.256 49.9412 986.831 47.2764C986.648 45.8522 987.107 44.7955 988.623 44.4739C991.012 43.9685 991.885 45.8062 992.942 47.3224C994.596 49.0682 996.755 48.7007 998.823 48.6088C1004.57 48.425 1010.31 48.2872 1016.01 49.1142C1019.82 49.6655 1023.68 49.6196 1025.75 53.8464C1026.44 55.2707 1028.23 55.1328 1029.65 55.1788C1037.78 55.2707 1045.92 55.2707 1054.05 55.1788C1055.98 55.1788 1057.91 55.041 1058.83 52.7897C1060.16 49.4817 1062.96 48.6547 1066.18 48.5169C1068.43 48.425 1070.63 48.471 1072.88 48.471C1075.23 48.471 1077.34 48.1494 1078.35 45.5765C1079 43.9685 1080.56 43.3712 1081.94 42.5901C1084.88 40.9821 1084.74 38.1336 1084.28 35.4688C1083.82 32.85 1081.38 33.4473 1079.59 33.3095C1076.88 33.1716 1074.17 33.3094 1071.46 33.2176C1068.75 33.1257 1066.36 32.5284 1065.53 29.4501C1064.84 26.7854 1062.68 26.9692 1060.57 26.6935C1055.38 26.0503 1050 27.4746 1044.95 25.499C1043.07 23.6612 1044.17 21.364 1043.94 19.2506C1043.53 15.1156 1044.95 10.7969 1043.02 6.75382L1042.61 6.89165Z" fill="#131327"/>
<path d="M0.091888 0.18378C7.12132 0.18378 14.1508 0.229724 21.2261 0.18378C23.6612 0.18378 25.3611 0.643218 25.0854 3.53769C25.0854 3.67552 25.0854 3.85931 25.0854 3.99714C24.8098 8.45371 34.458 5.09978 31.3338 11.8995C31.1041 12.4049 41.2118 13.094 42.7739 12.4968C43.6468 12.1752 44.1981 11.5779 44.1522 10.7509C43.8306 6.4781 46.6791 6.84566 49.4817 6.84566C57.0165 6.84566 64.5054 6.84566 72.0402 6.84566C74.1996 6.84566 76.3589 6.57 75.486 10.1077C74.9347 12.3589 76.9562 12.5887 78.6102 12.5887C82.4695 12.6346 86.2828 12.5887 90.1421 12.5887C92.2555 12.5887 94.1392 12.9562 94.1392 15.575C94.1392 18.9749 96.2527 19.2965 98.9174 19.3424C102.317 19.4343 106.82 17.5506 107.141 23.9828C107.233 25.8205 110.174 24.9935 111.828 25.0395C115.411 25.1773 119.592 24.0287 119.317 30.0933C119.225 32.0689 121.338 31.7473 122.716 31.7473C128.643 31.7473 134.57 31.7932 140.497 31.7473C142.978 31.7473 145.045 32.0689 145.091 35.1931C145.091 37.4903 146.791 37.5363 148.491 37.5363C158.736 37.5363 168.982 37.5363 179.228 37.5363C180.606 37.5363 182.719 37.766 182.26 35.6525C181.203 31.1041 184.327 31.8392 186.762 31.8392C196.181 31.7933 205.645 31.7473 215.064 31.8392C218.004 31.8392 220.21 31.4257 220.026 27.7502C219.888 25.5908 221.22 24.9935 223.104 25.0854C228.525 25.3152 233.947 24.7179 239.368 25.4989C241.895 25.8665 245.433 26.5097 245.065 21.6856C244.881 19.3884 246.673 19.2965 248.373 19.2965C253.795 19.2965 259.262 19.2046 264.683 19.2965C267.716 19.3424 270.151 19.0668 270.105 15.1156C270.105 13.4616 271.207 12.7265 272.999 12.7265C283.015 12.7265 293.077 12.7265 303.093 12.4968C305.941 12.4508 307.825 12.9562 307.457 16.3561C307.182 18.7911 308.744 19.2505 310.765 19.2505C314.946 19.2046 319.081 19.2505 323.262 19.2505C325.329 19.2505 326.616 19.71 326.616 22.145C326.616 24.58 325.329 25.1314 323.262 25.0395C321.332 24.9935 319.403 25.0395 317.519 25.0395C315.681 25.0395 314.211 25.7287 314.211 27.7042C314.211 31.7933 311.638 31.7473 308.698 31.7473C295.42 31.7014 282.142 31.7473 268.864 31.7473C266.337 31.7473 263.948 31.5176 264.132 35.2391C264.224 37.5822 262.386 37.4903 260.732 37.5363C256.873 37.5363 253.06 37.5363 249.2 37.5363C246.857 37.5363 245.157 38.0416 244.973 40.8901C244.836 43.3711 245.846 44.4279 248.327 44.29C249.522 44.2441 250.67 44.6576 250.67 46.0818C250.67 50.1709 253.381 50.2168 256.276 50.033C259.997 49.8033 263.397 49.8033 264.086 54.7193C264.454 57.2003 266.567 56.7408 268.267 56.7408C275.94 56.7408 283.612 56.7408 291.285 56.7408C293.123 56.7408 295.236 56.7408 294.777 59.3137C294.088 63.3108 296.477 63.4487 299.233 63.4487C311.225 63.4487 323.216 63.4487 335.207 63.4487C351.839 63.3568 368.471 63.2189 385.057 63.0811C387.4 63.0811 389.238 63.219 388.916 66.2972C388.686 68.6404 390.019 69.3295 392.178 69.2835C396.037 69.1917 399.851 69.3755 403.71 69.2376C406.788 69.0998 408.902 69.6511 407.891 73.4645C407.431 75.1644 408.258 75.8535 409.866 75.8535C416.39 75.8995 422.869 75.8535 429.393 76.0373C432.011 76.0833 433.344 75.2563 433.068 72.4996C433.068 72.178 433.068 71.8564 433.068 71.5348C432.93 67.1242 439.638 71.7186 439.271 66.6188C438.903 61.2434 442.9 63.3568 445.657 63.3568C457.418 63.3568 469.226 63.2649 480.988 63.1271C482.366 63.1271 482.917 61.9785 482.871 60.7839C482.779 57.1084 484.985 56.603 487.879 56.7868C489.166 56.8787 490.452 56.7868 491.739 56.7868C501.341 56.7868 501.708 56.7868 501.984 47.5061C502.122 42.9117 506.487 45.4846 507.589 43.1873C508.554 41.1658 506.762 37.9957 511.724 37.9497C517.421 37.9038 523.21 37.8578 528.907 37.6281C529.872 37.6281 531.618 37.5362 531.664 37.8119C532.675 42.3604 537.729 43.6468 539.428 47.3223C540.347 49.2979 540.945 50.079 542.966 50.1249C551.558 50.4006 560.195 49.4357 568.833 50.6303C570.808 50.906 571.314 49.3439 571.222 47.8277C570.992 44.5657 572.876 44.2441 575.449 44.29C581.192 44.3819 586.98 44.29 592.723 44.29C594.653 44.29 596.537 44.1062 596.169 41.5793C595.618 37.9957 597.869 37.766 600.35 37.6741C602.096 37.5822 603.888 37.5363 605.634 37.5822C607.517 37.5822 608.712 37.0768 608.712 34.9174C608.712 33.0337 608.253 31.7473 606.093 31.8392C603.291 31.977 601.866 30.7366 602.004 27.888C602.096 25.8205 600.993 25.0395 599.018 25.1314C596.95 25.2233 594.883 25.1773 592.769 25.2233C591.988 25.2233 590.518 25.2692 590.518 25.2692C590.334 20.9505 587.256 19.4343 583.994 17.6884C583.397 17.3668 582.202 13.2319 586.291 13.14C587.394 13.14 589.278 12.8643 589.324 11.3022C589.507 5.42141 593.78 6.8916 597.088 6.8916C599.799 6.8916 602.418 7.07539 601.958 3.07826C601.683 0.689169 603.107 0.137844 605.22 0.137844C621.852 0.137844 638.484 0.137844 655.115 0.137844C657.137 0.137844 658.653 0.505399 658.515 2.94043C658.331 6.70784 660.766 6.89161 663.569 6.84566C667.061 6.84566 671.15 5.65112 671.839 11.2103C671.977 12.4508 673.447 12.5887 674.596 12.6346C676.204 12.6805 677.582 13.3697 677.582 15.1156C677.536 19.0208 679.833 19.3884 682.912 19.3424C692.192 19.2505 701.473 19.2505 710.754 19.3424C713.556 19.3424 715.486 19.0208 715.21 15.5291C715.072 13.921 715.945 12.7724 717.783 12.7724C723.802 12.7265 729.866 12.6806 735.885 12.5887C737.952 12.5887 740.02 12.7724 740.02 15.3913C740.02 19.1127 742.363 19.2505 745.166 19.3424C748.428 19.4343 752.976 17.5506 752.93 23.8449C752.93 25.3611 754.952 25.0395 756.146 25.0395C759.822 25.0854 763.497 24.9935 767.173 25.0854C769.792 25.1773 770.619 24.1206 772.135 21.6856C774.064 18.6073 777.786 16.6317 779.716 12.9103C780.221 11.8995 784.264 12.3589 786.607 12.7265C789.41 13.14 791.018 12.6346 790.926 9.51041C790.834 6.93754 792.534 6.79971 794.464 6.79971C799.747 6.79971 805.031 6.8916 810.314 6.79971C813.117 6.75377 815.644 6.61595 815.782 10.4752C815.782 11.3941 816.333 12.5427 817.481 12.4508C820.835 12.2671 822.122 13.7832 821.708 16.9993C821.708 17.3209 821.8 17.9182 821.846 17.9182C826.808 17.9182 827.451 23.6152 831.173 24.9476C832.873 25.5449 834.021 25.7286 834.159 27.7961C834.619 34.5039 839.81 31.15 842.98 31.6554C846.38 32.2068 846.518 29.4961 846.656 26.9232C846.794 24.4882 845.278 21.1802 848.08 19.8938C851.25 18.4236 854.972 19.2965 858.464 19.4803C859.382 19.5262 859.934 20.3073 859.888 21.1343C859.52 25.3611 862.369 25.1773 865.171 25.0854C865.631 25.0854 866.136 25.0854 866.596 25.0854C873.303 25.0854 876.872 28.4087 877.301 35.0553C877.392 36.2958 877.117 38.4092 878.587 38.1795C883.549 37.4903 883.779 41.3036 885.019 44.1981C888.419 43.1414 889.384 40.0632 890.624 37.2606C894.346 36.6174 896 33.631 897.975 30.9663C904.132 30.1852 910.334 28.5312 916.215 32.1608C917.18 33.7229 916.996 35.5147 917.18 37.2606C917.731 42.5901 917.685 42.5901 923.245 42.682C925.312 42.682 927.38 42.682 929.447 42.7279C931.193 42.8198 932.939 42.9117 934.363 44.1981C935.787 52.6059 936.201 60.9677 934.133 69.3295C933.444 69.9268 932.617 70.2484 931.744 70.3403C930.917 70.3862 930.136 70.2943 929.355 69.9727C926.415 68.1809 927.104 65.1945 926.828 62.4379C926.644 60.8299 927.931 58.4408 924.807 58.1191C924.072 58.1191 923.336 58.1191 922.601 58.1191C914.423 58.3489 906.291 58.1651 898.113 58.2111C895.311 58.2111 893.197 58.6245 891.405 61.5649C888.603 66.1134 879.138 65.0567 876.382 60.6001C874.452 57.4759 871.42 54.6274 868.617 52.8356C865.861 51.0897 861.22 52.0546 857.361 52.3302C856.166 52.4221 855.247 53.0653 854.742 54.168C853.18 57.7057 850.148 58.2111 846.794 58.2111C840.729 58.2111 834.619 58.3029 828.554 58.2111C824.787 58.1192 822.811 59.3596 823.087 63.4027C823.316 66.8026 822.673 69.8349 818.768 70.9375C817.987 71.1673 817.527 71.8105 817.114 72.5456C814.495 77.14 809.763 78.748 804.801 76.9562C803.698 76.5427 802.458 75.9914 802.32 74.9347C801.677 70.3403 798.277 70.7537 795.061 70.7537C792.029 70.7537 788.996 70.7537 785.964 70.7537C782.702 70.7537 779.486 70.6159 778.383 74.7968C777.924 76.5427 776.086 76.8643 774.478 77.14C772.089 77.5075 769.7 77.5075 767.311 77.4156C764.141 77.3238 762.027 78.4724 759.454 80.7236C754.906 84.7667 751.322 89.6827 746.912 93.7717C743.604 96.804 735.609 96.2527 733.174 92.6231C731.015 89.3611 726.65 88.2584 725.226 84.0775C724.767 82.6992 722.01 83.2046 720.264 83.1586C717.415 83.0668 714.843 82.6533 713.602 79.575C712.5 76.9103 709.881 77.5075 707.767 77.2778C704.781 77.0022 701.932 76.7265 701.059 73.1429C700.508 70.9375 698.716 70.7538 696.878 70.7078C690.171 70.6159 683.463 70.7078 676.709 70.7078C673.631 70.7078 672.344 72.1321 672.436 75.1184C672.574 78.794 672.161 82.1938 668.026 83.7559C667.291 84.0316 667.061 84.9964 666.647 85.6396C662.788 91.7502 654.748 91.6583 651.026 85.318C650.153 83.8478 649.051 83.3424 647.581 83.2505C644.548 83.1127 641.516 83.1127 638.484 83.2505C636.968 83.3424 635.589 83.7559 635.038 85.3639C633.706 89.3151 630.535 90.0043 626.952 89.8205C624.471 89.6827 622.633 90.0962 621.944 92.9447C621.255 95.7013 618.82 95.7933 616.477 95.6554C613.306 95.4716 611.469 96.804 608.988 99.1471C604.945 102.915 603.658 106.82 602.51 111.874C601.223 117.663 591.851 121.752 585.878 120.281C584.591 119.96 583.581 119.363 582.754 118.306C578.894 113.344 568.924 113.206 565.341 118.122C564.054 119.914 562.354 120.373 560.379 120.511C557.806 120.695 555.279 120.649 552.706 120.603C549.904 120.557 547.744 121.154 546.642 124.141C545.677 126.851 543.196 127.173 540.669 127.265C536.212 127.403 531.71 127.265 527.253 127.357C525.691 127.357 523.532 126.989 522.843 128.505C520.821 132.778 517.1 133.054 513.194 133.375C512 133.467 510.254 133.605 510.438 135.305C510.576 136.637 512.138 136.637 513.194 136.637C517.559 136.637 521.464 137.051 523.118 142.197C523.624 143.851 525.875 143.437 527.437 143.483C532.077 143.575 536.718 143.437 541.358 143.575C543.839 143.667 545.861 144.126 547.193 146.791C548.939 150.283 554.82 150.237 557.163 147.067C560.93 141.921 568.787 142.151 572.83 147.296C574.897 149.961 577.975 151.661 579.675 154.969C580.824 157.22 586.521 156.118 587.853 153.499C589.461 150.237 591.942 149.272 595.25 149.318C597.318 149.318 599.431 149.042 601.499 149.318C610.412 150.65 615.236 145.597 620.703 139.44C623.965 135.719 627.641 129.7 634.854 130.986C637.657 131.492 639.54 132.824 641.792 134.386C645.789 137.143 646.937 142.886 652.405 143.851C652.726 143.897 653.048 144.172 653.14 144.448C654.932 150.834 660.123 149.134 664.534 149.226C671.426 149.364 678.271 149.226 685.163 149.272C688.241 149.272 690.906 149.915 691.917 153.361C692.514 155.475 694.214 155.796 696.052 155.888C698.624 156.026 701.151 155.934 703.724 155.98C706.894 155.98 708.778 157.174 711.121 159.839C713.878 162.963 716.175 167.144 720.448 168.798C722.607 169.625 722.929 172.014 725.226 173.668C726.972 167.925 731.566 168.293 736.069 168.523C738.458 168.615 740.479 169.258 741.49 171.693C741.904 172.749 742.639 173.485 743.695 174.036C750.311 177.665 750.449 186.303 743.971 190.116C743.282 190.53 742.455 190.759 742.501 191.77C742.593 193.057 743.695 193.103 744.614 193.286C745.258 193.424 745.901 193.424 746.544 193.424C756.927 193.424 767.357 193.424 777.74 193.424C780.359 193.424 782.38 192.919 783.391 190.116C784.218 187.865 786.24 187.36 788.445 187.222C791.661 187.038 794.923 186.854 796.255 182.995C796.485 182.26 797.266 181.709 798.047 181.525C801.677 180.652 802.09 177.987 802.044 174.909C802.044 172.244 802.55 169.809 805.352 168.523C808.155 167.236 807.65 164.571 807.787 162.274C807.925 159.196 808.477 156.531 812.06 155.658C814.311 155.107 814.219 153.085 814.311 151.385C814.541 147.94 816.333 145.734 818.354 142.932C821.708 138.337 825.062 136.27 830.392 136.592C831.403 136.637 832.23 135.948 832.551 134.938C833.838 130.986 836.916 130.986 840.27 131.032C851.158 131.17 862.001 131.17 872.89 131.032C875.968 131.032 878.679 131.17 879.919 134.616C880.746 136.913 882.86 136.821 884.744 136.867C889.384 136.959 894.024 136.867 898.665 136.959C901.375 137.005 903.856 137.51 904.729 140.543C905.464 143.024 907.348 143.529 909.553 143.575C912.586 143.667 915.618 143.621 918.65 143.575C921.407 143.529 922.785 144.815 922.877 147.572C923.153 156.072 922.877 157.266 918.145 158.415C917.823 158.737 917.548 159.104 917.318 159.518C916.95 160.85 917.042 162.412 915.756 163.377C914.469 163.377 913.229 163.377 911.942 163.377C911.299 163.928 910.702 163.928 910.059 163.377C903.029 163.377 896 163.285 888.97 163.377C886.535 163.377 884.881 163.009 885.065 160.023C885.203 157.726 884.146 157.312 881.803 157.358C877.392 157.496 872.936 156.853 868.479 156.623C867.009 156.531 865.952 156.118 865.952 154.464C865.952 151.018 863.609 150.788 861.036 150.88C858.142 150.926 855.293 150.972 852.399 150.88C849.321 150.788 846.84 150.88 846.518 155.107C846.288 158.599 842.935 157.496 840.729 157.542C834.297 157.634 834.297 157.542 834.251 164.066C834.251 166.915 834.848 170.085 830.346 170.177C828.324 170.223 828.554 172.014 828.462 173.439C828.232 177.574 828.922 181.709 827.957 185.843C827.543 187.635 828.37 188.784 830.713 188.416C833.975 187.911 834.894 189.657 834.343 192.689C834.067 194.067 834.343 195.584 834.251 197.008C834.251 197.973 833.929 199.719 833.883 199.719C828.095 199.075 829.565 206.289 825.66 207.345C823.73 207.897 821.479 207.713 819.457 207.437C815.46 206.932 814.909 208.999 815.46 212.169C815.598 212.95 815.828 213.731 815.919 214.513C816.011 215.156 815.873 215.799 815.919 216.442C816.792 222.139 810.452 218.326 809.533 221.266C808.706 223.839 810.222 227.331 804.663 226.09C799.839 225.034 794.51 225.172 789.456 226.412C786.607 227.101 784.172 226.78 784.264 223.012C784.356 220.21 782.656 219.98 780.543 220.026C768.23 220.026 755.917 220.072 743.604 220.026C741.26 220.026 739.974 220.669 740.066 223.242C740.158 226.09 738.779 226.274 736.069 226.09C730.372 225.631 724.537 225.723 718.84 226.136C716.267 226.32 715.164 225.907 715.164 223.426C715.164 221.404 714.751 219.934 712.27 220.072C710.294 220.164 709.375 219.337 709.329 217.269C709.283 215.248 710.202 214.053 711.994 214.007C715.67 213.915 715.256 211.526 715.118 209.137C714.889 205.783 712.499 207.805 711.167 207.667C707.308 207.299 702.346 209.183 702.254 202.429C702.254 202.016 701.473 201.464 700.922 201.189C699.635 200.592 697.338 202.246 697.062 199.719C696.695 196.411 696.695 193.057 696.695 189.703C696.695 188.876 697.705 188.462 698.532 188.508C701.565 188.738 703.403 187.543 702.576 184.419C701.794 181.387 705.7 176.057 698.67 175.828C697.797 175.828 696.97 175.184 697.062 174.357C697.66 168.155 693.387 170.131 690.217 170.131C669.404 170.131 648.637 170.131 627.825 170.131C626.4 170.131 624.93 170.131 623.506 170.131C622.266 170.131 621.071 170.59 621.163 171.968C621.438 176.241 618.636 175.92 615.833 175.874C608.482 175.828 601.131 175.874 593.78 175.874C591.207 175.874 589.232 176.425 589.415 179.503C589.553 182.214 588.037 182.627 585.786 182.627C579.859 182.581 573.932 182.581 568.052 182.627C565.8 182.627 564.192 182.168 564.468 179.503C564.79 176.333 563.044 175.782 560.379 175.874C557.484 176.011 554.636 175.966 551.741 175.874C548.204 175.782 544.712 175.552 545.125 180.744C545.217 181.846 544.299 182.536 543.242 182.49C540.301 182.306 539.337 183.684 539.337 186.441C539.337 188.462 537.545 188.324 536.075 188.324C534.007 188.324 531.894 188.324 529.826 188.37C528.632 188.37 527.253 189.014 527.299 190.116C527.575 196.594 522.935 194.894 519.443 194.986C515.767 195.078 512.092 194.986 508.416 194.986C505.384 194.986 502.076 193.976 501.525 199.075C501.249 201.556 484.158 201.74 483.377 199.213C482.55 196.503 481.952 194.527 478.599 194.803C477.45 194.894 477.036 193.746 477.128 192.735C477.358 189.381 475.75 188.095 472.534 188.233C470.512 188.324 470.329 186.762 470.375 185.246C470.466 182.673 469.364 182.122 466.837 182.398C463.529 182.811 460.129 182.627 456.775 182.49C453.927 182.352 451.446 182.352 451.308 186.165C451.308 187.084 450.757 188.233 449.608 188.141C446.208 187.911 445.381 189.519 445.289 192.689C445.197 196.87 440.695 193.608 439.362 195.63C438.306 197.284 440.511 200.775 436.33 200.775C430.082 200.729 423.833 200.729 417.631 200.775C415.655 200.775 414.599 199.994 414.69 197.973C414.828 195.17 413.082 194.986 410.923 194.986C403.067 194.986 395.256 194.894 387.4 195.032C384.597 195.078 382.668 194.573 382.668 191.357C382.668 188.738 381.197 188.233 378.946 188.279C375.133 188.37 371.273 188.279 367.414 188.279C365.163 188.324 363.647 187.911 363.739 185.2C363.83 182.673 362.452 182.03 360.017 182.26C357.031 182.581 353.953 182.536 350.92 182.49C347.842 182.444 344.672 182.03 344.534 186.579C344.534 187.406 343.937 188.049 343.018 188.187C341.272 188.416 339.113 188.187 338.975 190.576C338.745 193.884 338.883 197.284 339.067 200.592C339.113 201.602 340.307 201.235 341.088 201.235C343.753 201.097 345.912 201.373 344.672 205.002C344.58 205.232 344.764 205.875 344.902 205.875C349.772 206.243 350.553 212.078 354.32 213.272C360.109 215.11 357.352 219.429 357.95 222.737C358.593 226.182 356.066 226.182 353.815 226.182C351.518 226.182 351.15 227.561 351.242 229.307C351.426 231.971 349.955 232.477 347.658 232.477C329.097 232.477 310.535 232.431 292.02 232.477C289.493 232.477 287.839 231.879 288.39 228.985C288.896 226.09 287.563 225.769 285.128 225.999C283.245 226.182 281.315 225.815 279.431 225.723C279.294 225.723 279.11 225.723 278.972 225.723C274.929 225.953 277.502 221.174 274.837 220.301C272.724 219.612 269.094 220.899 269.691 216.58C270.38 211.756 263.673 215.477 263.994 211.756C264.362 207.116 261.559 207.437 258.573 207.529C255.678 207.575 252.784 207.713 249.935 207.529C246.765 207.299 243.825 206.886 244.606 211.71C244.836 213.226 243.641 214.099 242.079 213.456C240.792 212.95 238.357 214.329 238.449 211.618C238.587 207.575 236.198 207.437 233.166 207.483C225.953 207.575 218.785 207.483 211.572 207.529C209.137 207.529 207.07 207.529 207.253 204.129C207.391 200.913 205.002 200.775 202.613 200.821C194.94 200.821 187.268 200.821 179.595 200.821C177.252 200.821 175.414 200.592 175.598 197.559C175.736 195.354 174.22 195.032 172.428 195.032C166.179 195.032 159.931 195.032 153.729 195.032C153.591 195.032 153.315 194.986 153.269 195.032C151.11 198.892 146.791 200.546 144.034 203.808C143.805 204.083 143.943 204.726 143.943 205.232C143.851 209.045 137.694 206.013 137.786 211.434C137.832 215.431 133.1 214.145 129.976 213.594C128.092 213.272 126.162 213.272 124.233 213.272C121.43 213.272 120.189 212.675 118.444 209.642C116.836 206.84 113.757 203.808 111.139 201.373C109.393 199.764 106.59 199.948 105.993 196.227C105.579 193.792 102.088 195.17 100.02 195.078C97.1256 194.894 93.7717 194.113 93.8176 199.121C93.8176 201.281 91.4286 200.775 89.9583 200.775C82.4235 200.821 74.9347 200.821 67.3998 200.775C64.5513 200.775 62.0703 201.005 62.3919 204.726C62.7595 209.183 57.5678 206.059 56.7408 208.999C56.1895 210.929 58.1192 214.88 53.2031 213.502C52.514 213.318 50.7222 214.375 50.7681 214.558C52.2383 220.393 44.1062 218.602 44.1062 223.012C44.1062 225.631 42.682 225.723 40.7523 225.815C34.5499 226.09 28.3015 225.08 22.145 226.504C20.6748 226.871 19.71 225.999 19.3424 224.528C19.2505 224.069 19.4343 223.38 19.1586 223.15C16.0804 219.98 12.4508 217.407 9.60229 213.961C8.68341 212.859 6.20244 213.594 6.34027 215.799C6.66188 221.083 2.98636 219.98 0 220.026V182.581C2.57286 181.111 5.19167 179.871 6.20244 176.517C6.8916 174.266 9.60229 174.449 11.6698 174.403C14.2886 174.357 15.9426 173.301 18.056 171.417C21.5018 168.431 23.799 164.388 27.6123 161.861C28.0258 161.585 28.5312 161.447 28.8069 161.08C30.0474 159.15 30.4609 156.439 33.5391 156.301C38.5011 156.118 43.463 155.704 48.379 156.623C49.3438 156.807 50.3087 157.358 50.6303 158.277C51.9627 161.999 54.995 161.953 58.1192 161.861C61.0136 161.815 63.8622 161.815 66.7566 161.861C69.8808 161.953 72.7753 161.861 74.5212 158.461C75.3941 156.807 77.2778 156.347 79.0696 156.21C83.0667 155.934 87.0639 156.072 91.061 156.072C92.8069 156.072 94.369 156.669 94.9203 158.369C95.9311 161.447 98.1364 161.999 100.939 161.861C104.385 161.723 107.004 162.504 108.428 166.317C109.622 169.533 115.549 169.35 117.571 166.363C123.497 157.45 131.124 154.234 141.37 156.256C142.656 156.531 144.172 156.761 144.632 158.001C146.102 161.907 149.318 161.815 152.58 161.907C153.683 161.907 155.337 161.907 155.75 162.688C157.772 166.593 162.182 168.063 164.434 171.509C165.812 173.622 167.328 174.266 169.487 174.266C173.163 174.266 176.838 174.266 180.514 174.266C183.5 174.266 185.843 173.99 187.635 170.774C189.749 167.006 199.305 167.282 201.556 171.095C203.21 173.852 205.278 174.22 207.897 174.22C211.113 174.22 214.283 174.174 217.499 174.22C220.623 174.266 223.15 174.036 225.126 170.682C227.285 167.006 236.887 167.466 239.093 171.187C240.609 173.76 242.492 174.174 245.019 174.174C249.66 174.174 254.3 174.082 258.94 174.22C261.467 174.312 263.856 174.771 264.775 177.528C265.74 180.33 267.808 180.927 270.426 180.882C273.918 180.836 276.123 181.984 278.604 185.154C282.05 189.611 285.818 195.354 293.49 193.424C296.063 192.781 298.912 193.424 301.622 193.286C302.863 193.24 304.195 193.286 305.114 192.046C307.136 189.335 304.884 179.182 302.909 176.609C300.06 172.979 295.42 171.279 293.352 167.006C292.388 165.031 290.78 164.847 288.988 164.755C286.277 164.663 283.566 164.755 280.81 164.617C278.88 164.48 276.675 164.388 275.848 162.32C274.423 158.828 271.621 158.92 268.68 158.92C262.754 158.92 256.827 158.92 250.946 158.92C247.73 158.92 245.019 158.139 243.457 154.877C242.125 152.075 240.609 152.58 239.69 155.199C238.633 158.185 236.382 158.828 233.671 158.92C229.352 159.012 225.034 158.92 220.715 158.92C216.902 158.92 213.272 158.507 211.802 154.096C211.25 152.396 209.642 152.396 208.218 152.304C205.507 152.167 202.797 152.258 200.04 152.212C197.146 152.167 194.619 151.615 193.47 148.491C193.103 147.572 192.413 146.975 191.541 146.469C185.062 142.61 185.384 135.443 190.759 130.435C194.757 126.714 198.111 123.36 203.899 123.865C204.68 123.957 205.416 123.268 205.691 122.487C207.207 118.49 210.607 118.444 214.053 118.444C217.729 118.444 221.404 118.306 225.08 118.444C228.709 118.627 230.869 117.249 231.604 113.711C231.879 113.206 232.247 112.838 232.706 112.563C238.541 111.139 244.468 112.011 250.349 111.966C253.703 111.966 256 111.139 256.459 107.463C258.205 104.569 261.146 105.074 263.764 105.028C277.686 104.936 291.607 105.028 305.528 105.028C308.744 105.028 311.822 105.304 313.476 101.352C314.533 98.8255 317.611 99.3309 319.954 99.1931C323.17 99.0093 324.916 97.8607 324.962 94.2771C324.962 90.4178 322.848 89.7746 319.77 89.8205C316.738 89.8205 314.119 89.1314 312.649 86.0072C311.317 83.1587 310.168 83.1586 308.606 86.0991C304.976 93.0366 298.59 96.3905 291.652 95.4716C289.861 95.2419 288.115 94.9203 287.334 92.9447C285.864 89.1314 281.407 87.9828 279.661 84.0775C278.696 81.8722 272.678 82.9289 271.483 85.5018C269.829 88.9935 267.118 89.9124 263.673 89.8205C261.284 89.7746 259.675 90.5097 258.251 92.8069C255.54 97.2635 245.708 96.85 243.411 92.2096C241.895 89.2233 239.46 90.0962 237.209 89.8205C235.831 89.7286 234.452 90.1881 234.039 91.4745C232.752 95.4716 229.582 95.2879 226.32 95.4716C220.807 95.7933 215.248 94.369 209.826 96.3446C208.907 97.1716 208.724 98.3661 208.402 99.4688C205.737 102.317 197.559 103.236 194.803 101.031C193.195 99.7444 193.286 97.9526 193.378 96.2067C193.516 92.9906 192.735 90.7854 189.611 88.7638C186.487 86.7423 184.419 83.1127 181.479 80.5398C180.009 79.2994 179.228 77.3238 176.976 76.7724C175.598 76.4508 174.863 75.3482 174.541 74.0158C174.082 71.9024 172.933 70.6619 170.774 70.2024C169.625 69.9268 168.936 69.1917 168.385 68.089C165.352 62.2082 155.98 62.4379 151.615 67.4917C148.675 70.8916 145.734 74.659 141.691 77.0481C141.002 77.4616 140.083 77.6913 139.899 78.5183C138.889 83.2965 135.213 83.0208 131.63 83.0667C127.632 83.0667 123.635 83.0667 119.638 83.0667C116.055 83.0667 112.471 83.2505 111.001 78.8399C110.495 77.3697 108.979 77.4156 107.739 77.3697C105.166 77.2778 102.639 77.14 100.066 77.0481C96.4364 76.9103 94.4149 75.6698 91.7961 72.4996C88.7638 68.8241 85.7315 62.6676 78.7939 63.7243C77.7372 63.9081 76.1751 63.5865 75.7157 62.6676C73.5104 58.0273 69.3295 58.1192 65.1945 57.7516C63.8622 57.6597 62.5298 56.9246 62.2082 55.6382C61.4271 52.2843 58.9921 52.3762 56.3273 52.1465C53.2491 51.8708 51.5951 52.8816 50.6303 55.776C49.9871 57.7057 47.9655 57.9813 46.2197 58.0273C38.3632 58.2111 30.5528 58.2111 22.6963 58.0273C20.4451 57.9813 18.5154 57.2003 17.9641 54.7653C17.3209 52.0086 15.3912 51.3654 12.9562 51.4113C9.46446 51.5032 6.29433 51.1816 4.73223 47.1845C3.99713 45.3008 1.28643 45.6684 0 44.1522V0L0.091888 0.18378Z" fill="#131327"/>
</svg>
