<svg width="1920" height="497" viewBox="0 0 1920 497" fill="none" xmlns="http://www.w3.org/2000/svg">
<path d="M1919.91 95.1789C1919.91 227.449 1919.91 359.718 1920 491.988C1920 495.434 1919.45 496.49 1915.68 496.49C1278.55 496.398 641.409 496.398 4.31863 496.49C0.551315 496.49 0 495.479 0 491.988C0.0918858 361.648 0.0918858 231.308 0.0918858 100.922C2.02149 99.4057 4.36458 98.5787 5.51315 95.8221C6.79955 92.698 11.3938 92.3764 12.864 95.4546C14.8396 99.5895 20.1689 100.141 21.5932 104.597C21.8688 105.47 23.2931 105.332 24.2119 105.286C28.8521 105.057 33.4924 105.194 38.1326 105.103C40.1541 105.103 41.3027 104.092 42.8188 102.622C46.1726 99.4057 49.113 95.8221 52.8343 92.9277C55.9585 90.4928 58.8988 87.5065 61.0122 84.1986C62.8499 81.3501 64.9633 80.2934 68.0414 80.2475C74.1059 80.1556 80.2163 80.2475 86.2808 80.2475C89.2211 80.2475 91.6102 80.0178 93.4938 76.8937C95.791 72.9885 104.888 73.9074 107.874 77.399C110.906 80.8907 114.536 83.831 117.614 87.3227C118.027 87.7821 118.946 87.874 119.13 88.4253C120.83 93.1115 124.827 92.5602 128.64 93.0196C132.729 93.525 135.118 92.8818 138.196 89.1604C140.815 85.9444 144.766 82.7284 147.523 79.5584C155.333 70.5076 164.705 75.9748 173.297 74.8262C174.721 74.6424 176.145 75.6072 176.696 77.1234C177.753 79.9259 179.958 80.2934 182.485 80.2475C188.733 80.2475 194.982 80.2475 201.184 80.2475C204.584 80.2475 207.57 80.8447 208.902 84.5661C209.821 87.1389 212.072 86.9092 214.14 86.9092C220.204 87.0011 226.315 86.9092 232.379 86.9092C235.549 86.9092 238.306 87.3686 240.006 90.6765C241.2 93.0656 242.808 92.6521 243.451 90.1252C244.141 87.3686 245.978 86.7714 248.505 86.8633C251.537 86.9551 254.57 86.9092 257.602 86.9092C261.231 86.9092 263.62 87.7821 266.147 91.3197C268.261 94.306 270.696 98.0733 274.555 99.8192C275.612 100.279 276.668 100.876 277.128 101.887C278.506 104.919 281.125 105.24 283.927 105.286C286.868 105.378 289.257 106.113 290.129 109.421C290.681 111.581 292.518 111.764 294.356 111.764C311.493 111.856 328.584 111.81 345.72 111.764C347.788 111.764 349.442 111.121 350.223 108.962C350.82 107.4 352.06 106.481 353.531 105.654C357.666 103.403 357.666 98.6247 353.898 95.7762C350.039 92.8818 346.685 89.4361 343.469 85.8525C343.056 85.3931 342.872 84.5661 342.275 84.3823C336.256 82.5446 337.497 77.6747 337.588 73.3101C337.588 71.1049 338.553 69.2671 340.529 68.1645C340.942 67.9348 341.54 67.7969 341.723 67.4294C345.95 59.9407 353.209 62.146 359.641 61.7784C361.846 61.6406 363.96 62.1919 364.833 64.4431C365.935 67.2457 368.049 67.6591 370.575 67.6591C373.286 67.6591 375.997 67.5672 378.707 67.751C380.913 67.9348 382.934 68.578 383.715 70.7832C384.864 74.0911 387.345 74.3668 390.239 74.3208C396.487 74.3208 402.736 74.3208 408.938 74.3208C412.108 74.3208 415.048 74.5965 416.427 78.1801C417.116 80.0178 418.907 79.9718 420.515 80.0178C423.869 80.1556 427.223 80.0637 430.577 80.0178C433.885 80.0178 436.09 79.1449 438.939 76.4342C442.109 73.448 445.738 70.0941 448.081 66.8781C453.548 59.3435 460.669 62.6514 467.193 61.7784C468.112 61.6406 469.536 61.6866 469.858 62.4676C471.512 66.7403 476.428 67.751 478.587 71.5643C482.309 78.226 489.935 81.3501 497.424 79.834C498.756 79.5583 499.905 79.1908 500.502 77.8585C501.926 74.6425 504.683 74.2749 507.715 74.2749C512.172 74.2749 516.674 74.2749 521.13 74.2749C523.106 74.2749 524.99 73.9992 525.771 71.748C526.873 68.4861 529.538 67.6132 532.616 67.6591C535.327 67.6591 537.21 67.0159 538.91 64.3972C540.748 61.5947 544.056 59.8948 545.756 56.7247C546.445 55.4843 548.237 55.3464 549.661 55.2546C553.336 55.0248 557.012 55.0708 560.687 55.2546C563.076 55.3464 565.144 56.0815 565.833 58.7003C566.476 61.2271 568.222 61.8244 570.519 61.8244C573.873 61.8244 577.227 61.7785 580.581 61.8244C584.21 61.9163 587.518 61.9622 589.126 57.5976C589.999 55.2545 592.709 55.2086 595.007 55.1627C601.255 55.0248 607.503 55.1167 613.705 55.1627C616.508 55.1627 618.989 55.0708 620.413 51.8548C621.654 49.0522 624.686 49.4198 627.213 49.4198C640.031 49.3279 652.803 49.4198 665.621 49.4198C674.58 49.4198 683.539 49.6954 692.497 49.236C695.162 49.0982 697.23 49.6495 698.332 52.3601C698.7 53.233 698.975 54.2897 699.894 54.7032C705.545 56.9544 704.259 61.7784 704.167 66.189C704.121 67.8429 703.386 69.1293 701.916 70.186C697.367 73.402 697.276 77.8125 701.594 81.1204C702.1 81.4879 702.835 81.8095 703.018 82.3608C704.534 86.7254 707.934 87.2308 711.885 86.9551C713.861 86.8173 715.882 86.9551 716.388 89.482C716.847 91.917 717.077 94.4439 714.412 95.7762C711.334 97.3383 711.242 98.5787 714.412 100.049C714.964 100.325 714.55 99.7732 714.78 100.325C717.49 106.848 723.187 105.103 728.195 105.194C730.263 105.194 732.376 105.194 734.443 105.286C736.511 105.378 738.257 105.057 739.038 102.76C739.911 100.233 742.024 99.5435 744.367 99.5435C756.358 99.4057 768.349 99.4057 780.34 99.5435C782.959 99.5435 785.072 100.462 785.899 103.219C786.589 105.562 788.242 105.93 790.402 105.654C794.858 105.057 799.361 105.194 803.817 105.378C805.93 105.47 807.63 105.194 808.228 102.76C808.365 102.162 808.641 101.289 809.147 101.106C814.384 99.4976 814.797 95.6384 814.292 90.9981C814.016 88.4713 815.946 87.1849 818.289 87.1849C822.746 87.1849 826.421 86.8633 828.764 81.8095C829.775 79.6502 833.221 78.5935 832.899 75.0559C832.715 72.9885 832.531 71.2886 830.05 70.8292C827.57 70.3698 826.697 68.4861 826.835 66.189C827.064 62.3757 826.972 58.5165 827.202 54.7032C827.294 53.0952 827.478 51.1656 829.086 50.5224C832.899 48.9603 832.853 45.7903 832.899 42.5284C832.945 38.5773 834.875 36.6017 838.918 36.9693C842.179 37.2449 845.028 36.6477 846.13 33.0182C846.222 32.7425 846.498 32.4669 846.682 32.2371C849.668 29.159 863.956 29.2968 866.437 32.8344C868.183 35.2694 870.159 36.0045 872.823 36.1882C875.856 36.372 878.842 37.0611 881.874 36.9693C883.804 36.9233 885.504 37.6125 886.101 39.4961C887.112 42.7121 889.638 42.6203 892.257 42.804C898.138 43.1256 904.065 41.8392 909.853 43.6769C912.105 45.8362 910.405 48.6847 911.094 50.6603C911.645 48.6847 909.899 45.8362 912.38 43.6769C913.805 43.1716 915.137 43.2634 916.285 44.3201C918.766 51.3953 917.02 58.5624 916.791 65.7295C916.239 67.1078 915.183 68.3942 913.804 68.6239C909.348 69.2212 909.486 72.2993 909.44 75.6532C909.394 80.0637 910.083 84.5202 908.935 88.9307C906.27 91.9629 903.513 90.4928 900.527 88.9766C900.757 91.6873 901.676 94.7195 898.276 95.96C895.106 97.1085 893.773 94.8114 892.992 92.0089C892.073 93.1115 892.303 93.9385 892.165 94.7195C891.89 96.7869 893.222 97.7977 894.784 98.6706C895.106 98.9922 895.381 99.4057 895.565 99.8192C896.53 106.619 896.438 106.711 887.984 108.502C885.136 109.329 886.285 112.637 884.493 114.107C882.425 115.164 880.174 114.888 878.015 114.842C874.339 114.751 872.731 116.221 873.558 119.942C873.558 120.631 873.421 121.275 873.053 121.872C871.445 123.158 869.883 121.275 868.275 121.872C866.483 122.928 867.356 125.547 865.518 126.604C863.497 127.707 861.246 127.477 859.086 127.477C856.468 127.431 854.952 128.533 854.4 131.06C853.573 133.128 851.69 133.771 849.806 134.46C847.784 138.687 842.133 139.973 841.352 145.165C841.031 145.532 840.709 145.808 840.296 146.038C839.101 146.589 837.677 146.589 836.528 147.37C834.553 151.827 829.407 153.664 827.707 158.305C825.594 159.177 823.159 159.545 822.608 162.439C822.194 164.645 819.622 164.461 818.335 165.747C817.095 167.126 817.37 169.193 815.992 170.525C813.511 171.72 810.433 171.995 809.698 175.579C809.376 177.049 807.447 177.141 806.206 177.784C805.655 178.106 805.104 178.473 804.644 178.979C804.047 179.76 803.725 180.679 803.909 181.643C804.598 186.054 803.036 189.224 798.809 190.97C797.936 192.348 798.028 194.186 796.834 195.426C794.261 196.529 792.194 197.907 792.01 201.123C791.964 202.088 791.458 203.374 789.85 202.823C789.345 201.307 789.759 199.745 789.621 198.55C788.518 201.399 791.688 204.753 789.345 207.969C785.991 209.485 785.762 212.425 785.808 215.549C785.853 218.995 784.613 221.798 780.708 221.43C776.022 221.017 773.219 222.762 771.795 227.127C769.682 228.597 767.247 228.367 764.858 228.367C757.047 228.413 749.283 228.367 741.473 228.367C739.038 228.367 736.649 228.551 735.316 231.032C734.995 231.446 734.581 231.721 734.076 231.905C730.079 230.527 725.99 231.032 721.901 230.986C714.78 230.986 707.659 231.492 700.629 229.378C701.732 230.389 703.202 230.205 704.351 230.986C704.764 231.308 705.04 231.675 705.086 232.227C704.58 234.662 704.213 237.142 703.432 239.532C703.018 240.221 702.375 240.68 701.594 240.818C695.851 240.818 690.108 240.726 684.32 240.772C681.977 240.772 679.771 240.956 678.944 243.712C678.485 244.677 677.842 245.458 676.739 245.734C676.234 245.826 675.728 245.826 675.223 245.734C670.721 245.32 666.218 244.953 661.762 245.964C659.694 247.066 659.97 249.18 659.648 251.063C659.556 251.523 659.373 251.982 659.143 252.396C658.867 252.809 658.454 253.085 657.948 253.177C654.503 253.406 651.011 253.268 647.565 253.085C644.12 252.901 641.731 253.912 640.858 257.449C639.342 259.103 637.228 259.838 635.253 259.379C631.072 258.46 629.004 260.16 628.269 264.065C627.948 264.433 627.58 264.754 627.167 264.938C622.526 264.662 622.71 269.578 620.183 271.508C616.83 272.197 615.543 274.264 615.865 277.572C616.003 279.134 616.003 280.742 615.865 282.258C615.543 285.566 616.784 287.68 620.183 288.369C622.71 290.574 622.802 295.077 627.121 295.49C629.05 299.028 631.899 300.682 636.034 300.222C637.779 300.038 639.525 300.59 640.72 302.06C641.179 302.657 641.455 303.346 641.593 304.081C641.685 306.333 643.063 306.884 645.084 306.93C647.565 306.93 650.138 306.516 652.527 307.573C652.987 307.849 653.308 308.17 653.584 308.63C654.365 311.524 656.203 312.673 659.189 312.581C663.002 312.489 666.815 312.397 670.675 312.627C671.18 312.627 671.731 312.719 672.237 312.81C673.018 313.04 673.661 313.362 674.166 314.051C672.926 319.013 673.064 319.059 678.393 319.242C684.044 319.472 689.741 318.553 695.346 319.886C697.965 321.815 698.378 324.802 698.975 327.696C697.689 329.35 695.805 329.717 694.519 329.809C702.054 330.866 710.277 329.763 718.455 330.82C713.034 330.085 707.567 330.361 702.145 330.269C700.905 330.269 699.113 330.498 699.021 328.89C698.93 327.374 700.721 327.283 701.962 327.145C705.729 326.685 709.588 327.558 713.356 326.547C716.663 326.088 719.834 325.445 721.074 321.677C721.166 321.356 721.947 321.494 722.314 321.815C723.141 322.642 723.233 324.021 724.336 324.664C731.549 325.674 738.808 324.802 746.067 325.123C748.226 325.215 750.523 324.71 752.499 326.134C752.912 326.593 752.958 327.099 752.683 327.65C750.799 329.212 748.502 328.982 746.297 329.028C740.737 329.12 735.178 329.028 729.619 329.028C727.919 329.028 726.174 328.89 724.382 330.131C726.311 332.015 728.425 331.417 730.354 331.555C737.613 332.015 744.964 330.59 752.177 332.474C754.428 333.898 753.693 336.839 755.21 338.63C757.553 340.238 760.171 339.365 762.652 339.411C768.211 339.549 773.771 339.32 779.284 339.549C781.305 339.641 784.108 339.182 783.694 342.811C781.765 344.695 779.238 344.281 776.94 344.327C770.279 344.465 763.617 344.19 757.001 344.603C765.639 345.752 774.46 343.914 783.097 345.797C784.062 346.303 784.705 347.13 785.118 348.095C785.945 350.024 785.716 352.092 785.991 354.067C786.083 354.802 786.221 355.813 787.14 355.905C788.38 356.043 788.426 354.894 788.702 354.021C789.299 352.046 788.013 349.105 791.367 348.462C792.102 349.243 792.377 350.208 792.469 351.265C792.561 353.332 792.561 355.446 792.469 357.513C792.469 358.018 792.377 358.478 792.24 358.983C791.413 361.051 791.78 363.256 791.55 365.415C791.275 368.264 792.607 369.366 795.18 369.596C795.639 369.78 796.053 370.009 796.466 370.285C797.523 374.742 802.209 376.074 804.552 379.474C805.471 382.322 804.828 385.308 805.379 388.157C808.136 393.44 812.776 396.978 817.095 400.837C817.6 401.251 818.105 401.71 818.427 402.307C818.703 402.95 818.703 403.594 818.519 404.237C818.335 404.788 817.738 405.431 818.105 405.845C818.703 406.672 819.392 405.707 820.081 405.615C820.77 405.477 821.367 405.523 822.01 405.845C822.883 406.534 823.343 407.591 824.124 408.372C826.513 409.612 826.513 411.634 826.008 413.747C826.88 413.196 825.64 411.68 827.248 410.853C828.718 414.023 832.348 414.436 834.875 416.458C835.701 419.857 839.009 419.995 841.307 421.42C842.134 424.406 844.247 426.152 847.049 427.162C847.601 431.481 851.736 432.4 854.354 434.743C855.043 437.454 856.835 438.418 859.5 438.327C861.338 438.281 863.221 438.235 864.967 439.062C866.805 443.61 871.905 445.448 873.834 449.904C874.064 450.455 874.937 450.455 875.58 450.547C878.428 450.915 881.369 450.226 884.079 451.604C885.963 457.439 890.42 457.99 895.657 457.531C898.276 457.301 901.078 457.025 903.467 458.679C904.8 462.768 907.786 463.687 911.691 463.273C914.08 463.044 916.515 462.952 918.858 463.273C923.177 463.917 926.577 462.952 928.736 458.863C931.447 460.195 930.39 462.676 930.574 464.744C929.793 468.143 930.941 469.797 934.663 469.797C951.524 469.797 968.431 469.797 985.292 469.797C988.829 469.797 990.345 468.419 989.518 464.882C989.61 462.722 988.783 460.333 991.172 458.817C993.469 463.457 997.512 463.687 1001.97 463.228C1004.17 462.998 1006.47 462.998 1008.68 463.228C1012.49 463.641 1015.2 462.492 1016.49 458.725C1019.01 456.841 1022 457.301 1024.76 457.485C1029.76 457.806 1034.17 457.393 1035.87 451.604C1038.59 450.134 1041.62 450.823 1044.47 450.501C1047.36 447.791 1050.53 445.31 1052.87 442.094C1053.56 441.129 1053.84 439.797 1054.99 439.108C1056.87 438.143 1058.89 438.235 1060.91 438.281C1063.44 438.327 1065 437.27 1065.69 434.835C1068.08 432.308 1072.54 431.757 1072.95 427.3C1074.97 425.83 1078 425.417 1078.33 422.109C1080.99 419.903 1084.99 419.076 1085.49 414.758C1087.65 413.379 1090.23 412.598 1091.28 409.75C1092.02 407.82 1094.41 407.958 1096.06 407.131C1096.8 406.672 1097.48 406.121 1098.27 405.661C1098.91 405.431 1099.55 405.385 1100.19 405.569C1100.84 405.615 1101.48 406.626 1102.08 405.753C1102.4 405.294 1101.8 404.696 1101.62 404.145C1101.44 403.502 1101.48 402.859 1101.76 402.215C1102.12 401.664 1102.58 401.205 1103.09 400.745C1105.02 398.724 1107.41 397.254 1109.43 395.508C1111.63 393.67 1113.7 390.913 1114.85 387.927C1115.4 384.757 1114.48 381.449 1115.77 378.371C1119.08 376.212 1122.29 373.96 1123.86 370.055C1126.7 369.136 1127.71 367.207 1127.62 364.267C1127.53 361.923 1127.53 359.443 1129.37 357.513C1133.27 356.686 1134.56 354.205 1134.24 350.346C1134.05 347.773 1133.69 345.016 1135.43 342.627C1135.94 342.306 1136.4 342.398 1136.77 342.811C1138.14 344.741 1140.3 344.833 1142.37 344.879C1149.22 344.971 1156.11 345.016 1162.95 344.557C1156.38 344.098 1149.81 344.235 1143.24 344.144C1140.9 344.144 1138.37 344.419 1136.49 342.444C1136.17 338.768 1139.06 339.457 1140.99 339.366C1147.52 339.182 1153.99 339.365 1160.52 339.274C1162.08 339.274 1163.69 339.779 1165.07 338.63C1166.26 336.701 1165.57 333.944 1167.68 332.382C1174.53 330.361 1181.56 331.831 1188.5 331.371C1190.79 331.234 1193.18 331.831 1195.66 330.223C1194.1 328.569 1192.26 328.845 1190.66 328.845C1184.96 328.753 1179.22 328.845 1173.52 328.799C1171.45 328.799 1169.34 328.936 1167.55 327.604C1167.13 327.145 1167.04 326.639 1167.27 326.088C1168.83 324.618 1170.81 324.939 1172.69 324.893C1178.9 324.848 1185.05 324.893 1191.25 324.893C1193.14 324.893 1195.11 325.215 1196.45 323.377C1196.77 322.642 1197.13 321.999 1197.73 321.448C1199.94 321.08 1199.8 323.01 1200.49 324.158C1201.59 326.869 1204.26 325.583 1206.14 326.364C1210.6 327.145 1215.01 327.007 1219.42 326.456C1219.78 326.226 1220.15 325.996 1220.52 325.766C1222.63 325.215 1221.76 323.056 1222.59 321.815C1223.23 321.126 1223.87 320.483 1224.61 319.886C1229.89 318.094 1235.31 319.38 1240.64 319.013C1242.62 318.875 1244.73 319.38 1246.52 317.818C1245.24 315.705 1243.31 316.348 1241.74 316.302C1238.44 316.164 1235.08 316.44 1231.78 316.21C1228.24 315.935 1225.62 317.037 1224.06 320.299C1223.64 320.805 1223.14 320.851 1222.63 320.483C1221.21 318.278 1221.3 316.072 1222.59 313.867C1223.18 313.178 1223.92 312.81 1224.79 312.627C1230.49 312.213 1236.19 312.443 1241.88 312.489C1244.13 312.489 1245.88 311.938 1247.21 310.146C1247.63 309.824 1248.08 309.64 1248.59 309.686C1253.09 314.143 1258.65 312.259 1263.89 312.029C1265.59 311.938 1265.54 309.916 1266.23 308.722C1266.46 308.262 1266.78 307.895 1267.2 307.573C1267.84 307.159 1268.58 306.93 1269.36 306.838C1271.24 306.7 1273.17 306.792 1275.05 306.746C1276.57 306.746 1277.95 306.424 1278.22 304.633C1278.96 300.544 1281.94 300.038 1285.34 299.992C1287.27 299.992 1289.62 300.819 1290.77 298.293C1291.27 297.19 1291.91 296.133 1292.88 295.306C1297.2 294.939 1297.2 290.344 1299.72 288.277C1303.12 287.588 1304.32 285.474 1304 282.167C1303.86 280.604 1303.81 278.996 1304 277.434C1304.36 274.035 1302.89 272.059 1299.63 271.37C1297.43 268.567 1296.1 264.754 1291.82 264.157C1290.67 260.298 1288.7 257.955 1284.15 259.425C1282.86 259.838 1281.35 259.425 1280.11 258.644C1278.13 253.131 1273.81 252.487 1268.76 252.947C1266.42 253.177 1264.03 253.268 1261.78 252.166C1259.34 250.788 1260.72 247.388 1258.51 245.918C1253.37 244.356 1248.13 245.412 1242.94 245.228C1242.43 245.228 1241.97 244.999 1241.61 244.585C1241.29 244.172 1241.06 243.712 1240.87 243.253C1240.46 240.267 1238.02 240.68 1236.05 240.542C1230.31 240.267 1224.56 240.818 1218.82 240.221C1218.31 240.129 1217.9 239.945 1217.44 239.715C1215.33 238.061 1216.2 234.799 1214 233.145C1213.49 232.64 1213.03 232.135 1212.57 231.629C1212.11 231.078 1211.7 230.481 1211.01 230.159C1202.14 229.562 1193.23 229.47 1184.41 228.23C1174.76 228.23 1165.11 228.23 1155.46 228.23C1153.12 228.23 1150.69 228.413 1148.48 227.219C1146.92 221.889 1143.24 220.236 1138.01 221.108C1137.09 221.246 1136.17 220.787 1135.39 220.19C1133.37 217.387 1134.33 214.079 1133.96 211.047C1133.78 210.312 1133.83 209.347 1132.91 209.071C1131.9 208.796 1131.57 209.623 1131.3 210.404C1130.7 211.782 1131.21 213.849 1128.96 214.125C1128.54 213.849 1128.22 213.482 1127.99 213.023C1127.39 211.277 1127.48 209.531 1127.76 207.739C1127.94 207.004 1128.22 206.361 1128.54 205.718C1130.29 203.007 1128.73 199.745 1130.06 196.988C1130.33 196.437 1130.06 197.172 1130.15 196.529C1129.74 196.529 1130.01 197.08 1129.64 197.126C1127.39 196.897 1125.23 196.299 1123.17 195.334C1121.6 192.624 1120.87 188.719 1116.18 190.694C1114.57 190.465 1112.83 190.602 1111.59 189.178C1111.45 188.857 1111.5 188.581 1111.59 188.305C1112.23 186.697 1115.26 187.754 1115.08 185.824C1114.85 183.114 1115.82 180.035 1113.38 177.784C1111.68 176.728 1109.75 175.993 1109.2 173.695C1108.51 170.709 1104.84 171.536 1103.41 169.423C1102.63 166.482 1100.88 164.415 1097.94 163.496C1096.75 161.015 1095.69 158.35 1092.29 158.167C1091.65 157.845 1091.19 157.386 1090.78 156.788C1090.09 155.64 1090.09 154.262 1089.49 153.113C1088.57 151.505 1086.41 152.148 1085.31 150.862C1084.07 149.713 1084.71 147.554 1082.92 146.727C1081.5 146.13 1079.8 146.221 1078.6 145.119C1077.54 142.179 1076.35 139.33 1072.86 138.457C1072.17 134.368 1067.99 133.955 1065.65 131.612C1064.96 128.396 1063.03 126.925 1059.63 127.247C1057.79 127.385 1055.86 127.385 1054.16 126.42C1052.23 124.95 1052.6 121.688 1049.8 120.907C1046.86 120.08 1047.59 116.313 1045.11 115.072C1040.93 113.924 1037.53 115.072 1034.77 118.38C1033.26 117.507 1033.3 115.945 1032.93 114.521C1032.89 114.016 1032.89 113.556 1032.93 113.051C1033.53 110.018 1031.92 109.054 1029.26 109.008C1024.8 108.962 1020.35 109.008 1015.89 109.008C1015.34 109.008 1014.83 109.008 1014.28 109.008C1009.41 109.008 1004.5 109.008 999.626 109.008C997.788 109.008 995.813 109.283 994.25 107.813C994.572 104.735 997.145 105.24 998.983 105.194C1004.22 104.919 1009.5 105.011 1014.74 105.194C1015.66 105.332 1016.58 105.424 1017.5 105.378C1018.51 105.332 1019.79 105.7 1020.39 104.505C1021.13 102.989 1019.79 102.3 1018.88 101.519C1017.04 100.233 1016.67 97.6598 1014.51 96.6491C1008.68 95.0411 1008.26 94.5357 1008.17 88.5632C1008.08 83.3716 1008.17 78.1801 1008.08 72.9885C1008.03 72.2075 1007.76 71.5643 1007.16 71.1048C1003.62 70.2779 1002.38 68.0267 1002.43 64.4891C1002.57 56.8625 1002.11 49.236 1002.24 41.6095C1001.51 39.1745 998.753 40.2312 997.421 38.8529C996.777 38.3016 996.318 37.6125 996.042 36.7855C995.445 25.1619 995.629 13.5843 995.904 1.96075C996.042 1.3635 996.272 0.85814 996.64 0.398711C997.099 -0.0147753 997.604 -0.10665 998.156 0.123065C999.672 1.82295 999.488 3.98227 999.534 6.0497C999.58 12.1142 999.534 18.1786 999.58 24.289C999.58 25.9889 999.212 27.8266 1000.96 29.6644C1002.15 24.1053 1006.38 24.6565 1010.33 24.6106C1013.87 24.6106 1017.36 24.6106 1020.9 24.6106C1024.89 24.6106 1027.93 25.1619 1031.19 28.8374C1033.81 31.7318 1036.24 35.591 1040.24 37.4287C1042.63 38.5313 1042.58 41.0123 1042.72 43.2635C1043.13 49.4198 1043.27 49.5576 1049.57 49.5576C1055.63 49.5576 1061.74 49.7873 1067.76 49.282C1070.75 49.0063 1073.18 49.6495 1074.28 52.8196C1074.97 54.841 1076.58 55.2545 1078.46 55.3005C1081.04 55.3924 1083.56 55.3005 1086.14 55.3464C1089.26 55.3464 1091.88 55.9896 1092.71 59.5732C1092.89 60.3542 1093.26 61.0893 1093.99 61.5028C1099 64.4431 1103.23 68.1186 1106.26 73.2182C1107.27 74.9181 1109.43 74.4587 1111.13 74.5046C1114.16 74.5965 1116.87 75.1019 1118.39 78.1341C1119.58 80.4313 1121.79 80.2475 1123.86 80.2475C1130.24 80.3394 1136.63 80.2475 1143.01 80.2934C1146.09 80.2934 1148.76 80.8907 1149.63 84.4743C1150.27 87.2768 1152.71 86.8633 1154.73 86.9092C1157.95 87.0011 1159.97 88.3334 1162.36 90.7225C1165.43 93.7547 1167.87 97.5679 1171.68 99.911C1172.65 100.508 1173.61 101.151 1173.98 102.254C1174.9 104.919 1176.97 105.194 1179.35 105.24C1185.92 105.24 1192.45 105.149 1199.02 105.286C1200.67 105.286 1202.33 105.194 1202.92 103.265C1203.93 100.049 1206.46 99.4516 1209.36 99.4516C1211.28 99.4516 1213.21 99.4057 1215.1 99.4516C1218.22 99.5435 1220.24 98.4409 1222.72 96.0059C1225.99 92.7899 1228.56 88.8848 1232.74 86.2201C1235.59 84.4283 1238.16 80.8447 1240.41 77.7206C1241.88 75.6532 1243.54 74.6884 1245.93 74.5506C1247.99 74.4587 1250.06 74.4127 1252.17 74.5046C1255.67 74.6424 1258.01 73.9533 1260.26 70.3698C1262.14 67.4294 1265.13 63.754 1268.67 62.6514C1273.68 61.1353 1279.1 61.7784 1284.33 62.4676C1284.98 62.5595 1285.8 62.7892 1285.99 63.3405C1287.32 67.7969 1293.11 68.0726 1294.4 72.6669C1295.04 74.9641 1297.57 74.4128 1299.4 74.4587C1302.53 74.5506 1305.47 74.7343 1306.89 78.3179C1307.76 80.5691 1310.06 80.2015 1311.9 80.2475C1315.16 80.3394 1317.96 81.0285 1319.11 84.5661C1319.71 86.4038 1321.18 86.9092 1322.88 86.9092C1333.77 87.047 1344.61 87.0011 1355.5 86.9092C1358.07 86.9092 1359.36 85.7147 1359.31 83.1419C1359.22 78.9611 1359.5 75.1019 1364.64 73.8155C1365.93 73.4939 1366.02 71.7481 1366.57 70.6454C1367.63 68.578 1369.01 68.3023 1370.8 69.7265C1371.81 70.2319 1371.58 72.1156 1373.51 71.794C1390.55 68.9455 1407.69 70.7832 1424.83 70.7832C1426.89 70.7832 1428.96 71.1508 1430.62 72.621C1431.54 74.1371 1429.97 75.9748 1431.26 77.445C1432.13 80.2015 1434.38 80.2934 1436.73 80.2934C1440.22 80.2934 1443.48 80.615 1444.49 84.9337C1444.95 86.8633 1446.83 86.8633 1448.44 86.9092C1452.9 87.047 1457.35 87.0011 1461.86 86.9092C1463.97 86.9092 1465.49 86.1282 1466.27 84.0148C1467.14 81.6717 1469.02 80.5691 1471.41 80.3853C1475.41 80.1096 1479.41 80.1096 1483.36 80.3853C1485.61 80.5231 1487.45 81.3501 1487.77 83.9229C1488.09 86.312 1487.68 88.3334 1485.24 89.5739C1484.19 90.0792 1482.39 90.263 1482.95 92.0548C1483.5 93.8006 1485.29 93.6169 1486.62 93.479C1500.95 91.9629 1515.33 93.0656 1529.67 92.7439C1532.15 92.698 1534.45 92.6061 1535.5 89.7117C1536.28 87.5984 1538.26 87.2308 1540.24 87.093C1542.76 86.9092 1545.38 86.7714 1547.91 87.047C1551.95 87.4605 1554.34 86.0822 1554.57 81.8095C1556.45 80.8447 1558.66 80.4313 1558.98 83.0959C1559.39 86.2201 1561.32 86.0822 1563.35 86.0363C1577.31 85.9444 1591.28 86.3579 1605.25 85.6228C1607.91 85.485 1609.84 83.5094 1612.41 83.5554C1616.64 88.6091 1620.59 88.4713 1623.85 83.0959C1626.06 79.4665 1641.63 78.7773 1643.61 82.4528C1646.27 87.4146 1651.74 89.528 1654.68 93.9844C1657.21 97.8436 1661.98 99.4057 1663.87 103.724C1664.83 105.976 1666.67 105.424 1668.37 105.378C1675.08 105.24 1681.79 105.011 1688.49 105.516C1694.14 105.93 1695.16 106.894 1695.34 112.499C1695.48 115.532 1697.04 117.323 1698.78 119.712C1701.54 123.434 1706.64 124.72 1708.16 129.452C1708.52 130.693 1709.72 131.014 1710.87 131.06C1713.9 131.29 1716.93 131.244 1719.96 131.06C1720.61 131.06 1721.57 131.014 1721.76 130.601C1723.46 127.063 1726.99 125.317 1729.38 122.561C1730.9 120.815 1731.63 118.656 1734.11 117.645C1735.86 116.956 1735.49 114.934 1735.63 113.372C1736.18 106.481 1737.01 105.838 1743.76 105.838C1747.48 105.838 1750.56 106.021 1752.4 110.156C1753.64 112.913 1758.79 112.729 1760.44 109.973C1762.6 106.297 1767.56 105.332 1768.8 100.784C1769.12 99.6354 1771.33 99.6354 1772.75 99.5894C1776.29 99.4516 1779.78 99.4975 1783.32 99.5894C1785.89 99.6813 1787.91 100.554 1789.2 102.989C1790.85 106.159 1795.4 106.711 1796.37 110.845C1796.64 112.04 1798.44 111.351 1798.89 110.156C1800.55 105.838 1804.32 105.562 1807.99 105.378C1813.6 105.149 1819.2 105.194 1824.76 105.378C1827.15 105.47 1829.17 105.24 1830.32 102.714C1831.47 100.187 1833.81 99.6354 1836.34 99.5894C1841.12 99.4975 1845.94 99.5435 1850.72 99.5894C1853.02 99.5894 1854.62 98.9462 1855.68 96.695C1857.33 93.2493 1861.01 91.5035 1863.26 88.3794C1865.51 85.2093 1874.61 87.1389 1876.68 90.5846C1877.18 91.4116 1877.41 92.3764 1878.38 92.8359C1883.29 95.0411 1885.82 99.7732 1889.4 103.357C1890.69 104.643 1891.88 105.24 1893.49 105.286C1896.06 105.424 1898.59 105.24 1901.16 105.424C1903.51 105.608 1904.84 104.873 1906.03 102.622C1907.69 99.4516 1911.22 97.8436 1913.43 94.9033C1914.67 93.2034 1917.57 93.6169 1919.54 95.3167L1919.91 95.1789Z" fill="#0E1024"/>
</svg>
