<svg width="366" height="498" viewBox="0 0 366 498" fill="none" xmlns="http://www.w3.org/2000/svg">
<g filter="url(#filter0_d_669_4613)">
<rect x="334.763" y="9.02222" width="20.0885" height="306.431" transform="rotate(90 334.763 9.02222)" fill="#ACD5F1"/>
<rect x="326.049" y="461.014" width="20.0885" height="283.195" transform="rotate(90 326.049 461.014)" fill="#ACD5F1"/>
<rect x="350.125" y="17.125" width="459.375" height="336" transform="rotate(90 350.125 17.125)" fill="#ACD5F1"/>
<path d="M31.9625 3.99999L331.859 4L331.859 10.2777L344.203 10.2777L344.203 17.8109L358 17.8109L358 472.314L344.203 472.314L344.203 479.429L333.311 479.429L333.311 486.125L31.2364 486.125L31.2364 479.429L20.3443 479.429L20.3443 473.151L7.99986 473.151L7.99988 17.8108L17.4397 17.8108L17.4397 11.1147L31.9625 11.1147L31.9625 3.99999Z" stroke="black" stroke-width="7"/>
<path d="M37.3686 9.24999L328.268 9.25L328.268 15.3909L340.242 15.3909L340.242 22.7601L353.625 22.7601L353.625 467.365L340.242 467.365L340.242 474.324L329.676 474.324L329.676 480.875L36.6642 480.875L36.6642 474.324L26.0989 474.324L26.0989 468.183L14.1248 468.183L14.1248 22.7601L23.2814 22.7601L23.2814 16.2097L37.3686 16.2097L37.3686 9.24999Z" stroke="#3498DB" stroke-width="7"/>
<g filter="url(#filter1_i_669_4613)">
<rect x="39" y="41" width="289" height="299" rx="17.5" fill="white"/>
</g>
<path d="M284.663 392.415H284.286V392.791V393.962H280.022H279.645V394.338V395.767H276.928H276.551V396.143V397.314H275.123H274.746V397.69V400.408H273.576H273.199V400.784V405.306H272.029H271.652V405.683V411.871V412.247H272.029H273.199V416.512V416.888H273.576H274.746V419.864V420.24H275.123H276.551V421.411V421.787H276.928H279.645V423.215V423.592H280.022H284.286V424.762V425.139H284.663H291.108H291.485V424.762V423.592H296.007H296.384V423.215V422.045H299.101H299.478V421.668V418.693H300.648H301.025V418.317V416.888H302.453H302.829V416.512V412.247H304H304.376V411.871V405.683V405.306H304H302.829V400.784V400.408H302.453H301.025V397.69V397.314H300.648H299.478V395.885V395.509H299.101H296.384V394.338V393.962H296.007H291.485V392.791V392.415H291.108H284.663Z" fill="#5D95FD" stroke="black" stroke-width="0.752877"/>
<path d="M250.511 362.623H250.135V363V364.17H245.87H245.494V364.547V365.975H242.777H242.4V366.352V367.522H240.972H240.595V367.899V370.616H239.425H239.048V370.993V375.515H237.878H237.501V375.891V382.079V382.456H237.878H239.048V386.72V387.097H239.425H240.595V390.072V390.449H240.972H242.4V391.619V391.996H242.777H245.494V393.424V393.801H245.87H250.135V394.971V395.348H250.511H256.957H257.334V394.971V393.801H261.856H262.233V393.424V392.254H264.95H265.327V391.877V388.902H266.497H266.874V388.525V387.097H268.302H268.678V386.72V382.456H269.849H270.225V382.079V375.891V375.515H269.849H268.678V370.993V370.616H268.302H266.874V367.899V367.522H266.497H265.327V366.094V365.717H264.95H262.233V364.547V364.17H261.856H257.334V363V362.623H256.957H250.511Z" fill="#5D95FD" stroke="black" stroke-width="0.752877"/>
<path d="M215.634 392.415H215.257V392.791V393.962H210.993H210.616V394.338V395.767H207.899H207.522V396.143V397.314H206.094H205.718V397.69V400.408H204.547H204.171V400.784V405.306H203H202.624V405.683V411.871V412.247H203H204.171V416.512V416.888H204.547H205.718V419.864V420.24H206.094H207.522V421.411V421.787H207.899H210.616V423.215V423.592H210.993H215.257V424.762V425.139H215.634H222.08H222.456V424.762V423.592H226.978H227.355V423.215V422.045H230.072H230.449V421.668V418.693H231.619H231.996V418.317V416.888H233.424H233.801V416.512V412.247H234.971H235.348V411.871V405.683V405.306H234.971H233.801V400.784V400.408H233.424H231.996V397.69V397.314H231.619H230.449V395.885V395.509H230.072H227.355V394.338V393.962H226.978H222.456V392.791V392.415H222.08H215.634Z" fill="#5D95FD" stroke="black" stroke-width="0.752877"/>
<path d="M249.785 421.48H249.408V421.856V423.027H245.144H244.767V423.403V424.831H242.05H241.673V425.208V426.378H240.245H239.869V426.755V429.472H238.698H238.322V429.849V434.371H237.151H236.775V434.748V440.936V441.312H237.151H238.322V445.577V445.953H238.698H239.869V448.928V449.305H240.245H241.673V450.475V450.852H242.05H244.767V452.28V452.657H245.144H249.408V453.827V454.204H249.785H256.231H256.607V453.827V452.657H261.13H261.506V452.28V451.11H264.224H264.6V450.733V447.758H265.771H266.147V447.381V445.953H267.575H267.952V445.577V441.312H269.122H269.499V440.936V434.748V434.371H269.122H267.952V429.849V429.472H267.575H266.147V426.755V426.378H265.771H264.6V424.95V424.574H264.224H261.506V423.403V423.027H261.13H256.607V421.856V421.48H256.231H249.785Z" fill="#5D95FD" stroke="black" stroke-width="0.752877"/>
<path d="M261.129 377.997H257.815V381.301L254.981 381.301V390.611L251.477 390.611V381.301H248.458V377.997H245.144V368.086H248.458V377.697H257.815V368.086H261.129V377.997Z" fill="white" stroke="black" stroke-width="0.752877"/>
<path d="M214.19 407.469V404.272H210.993V400.784H214.481V403.981H217.678V406.888H220.584V403.981H223.491V400.784H226.978V404.272H223.781V407.178H220.584V410.085H223.781V413.282H226.978V416.77H223.491V413.573H220.294V410.375H217.678V413.573H214.481V416.77H210.993V413.282H214.19V410.085H217.387V407.469H214.19Z" fill="white" stroke="black" stroke-width="0.752877"/>
<path d="M259.676 429.081V446.561H256.542V438.251H248.563V446.561H245.144V429.081H247.993V426.216H256.827V429.081H259.676Z" fill="white" stroke="black" stroke-width="0.752877"/>
<path d="M280.748 418.949V396.424H293.537V399.642H296.734V406.078H293.537V409.296H296.734V415.732H293.537V418.949H280.748Z" fill="white" stroke="black" stroke-width="0.752877"/>
<path d="M283.945 399.642V406.078H293.537V399.642H283.945Z" fill="#5D95FD"/>
<path d="M283.945 415.732V409.296H293.537V415.732H283.945Z" fill="#5D95FD"/>
<path d="M283.945 399.642V406.078H293.537V399.642H283.945Z" stroke="black" stroke-width="0.752877"/>
<path d="M283.945 415.732V409.296H293.537V415.732H283.945Z" stroke="black" stroke-width="0.752877"/>
<path d="M64.0474 398.547H67.0948L67.8567 395.828H73.9515H84.6174H105.187H124.717H139.471H144.042V397.867H147.089V400.586H149.375V406.703V411.461H147.089V414.18H144.042V416.899H136.423H125.758L103.664 416.813H83.8556L73.1896 416.899L67.0948 416.813V414.86H64.0474V412.141H61V406.703V401.266H64.0474V398.547Z" fill="#5D95FD"/>
<path d="M92.9978 440.688V376.117H95.2834V373.399H98.3308V370H105.187H112.044V373.399H115.092V376.117H117.377V440.687H114.33V443.406L111.282 443.406V446.125H105.949H99.0926V443.406H96.0452V440.688H92.9978Z" fill="#5D95FD"/>
<path d="M64.0474 412.141H61V401.266H64.0474V398.547H67.0948V395.828H92.9978V376.117H95.2834V373.398H98.3308V370H112.044V373.398H115.092V376.117H117.377V395.828H144.042V397.867H147.089V400.586H149.375V411.461H147.089V414.18H144.042V416.898H117.377V440.687H114.33V443.406H111.282V446.125H99.0927V443.406H96.0452V440.687H92.9978V416.898H67.0948V414.859H64.0474V412.141Z" stroke="black" stroke-width="0.875"/>
<path d="M105.695 375.688V390.563" stroke="black" stroke-width="0.875"/>
<path d="M67.6027 406.75H84.8713" stroke="black" stroke-width="0.875"/>
<path d="M128.043 406.313H145.312" stroke="black" stroke-width="0.875"/>
<path d="M105.695 427.313V442.188" stroke="black" stroke-width="0.875"/>
</g>
<defs>
<filter id="filter0_d_669_4613" x="0.499878" y="0.5" width="365" height="497.125" filterUnits="userSpaceOnUse" color-interpolation-filters="sRGB">
<feFlood flood-opacity="0" result="BackgroundImageFix"/>
<feColorMatrix in="SourceAlpha" type="matrix" values="0 0 0 0 0 0 0 0 0 0 0 0 0 0 0 0 0 0 127 0" result="hardAlpha"/>
<feOffset dy="4"/>
<feGaussianBlur stdDeviation="2"/>
<feComposite in2="hardAlpha" operator="out"/>
<feColorMatrix type="matrix" values="0 0 0 0 0 0 0 0 0 0 0 0 0 0 0 0 0 0 0.25 0"/>
<feBlend mode="normal" in2="BackgroundImageFix" result="effect1_dropShadow_669_4613"/>
<feBlend mode="normal" in="SourceGraphic" in2="effect1_dropShadow_669_4613" result="shape"/>
</filter>
<filter id="filter1_i_669_4613" x="39" y="41" width="289" height="302.5" filterUnits="userSpaceOnUse" color-interpolation-filters="sRGB">
<feFlood flood-opacity="0" result="BackgroundImageFix"/>
<feBlend mode="normal" in="SourceGraphic" in2="BackgroundImageFix" result="shape"/>
<feColorMatrix in="SourceAlpha" type="matrix" values="0 0 0 0 0 0 0 0 0 0 0 0 0 0 0 0 0 0 127 0" result="hardAlpha"/>
<feOffset dy="3.5"/>
<feGaussianBlur stdDeviation="1.75"/>
<feComposite in2="hardAlpha" operator="arithmetic" k2="-1" k3="1"/>
<feColorMatrix type="matrix" values="0 0 0 0 0 0 0 0 0 0 0 0 0 0 0 0 0 0 0.25 0"/>
<feBlend mode="normal" in2="shape" result="effect1_innerShadow_669_4613"/>
</filter>
</defs>
</svg>
